<?xml version="1.0" encoding="UTF-8" standalone="no"?>
<svg
   id="Layer_1"
   data-name="Layer 1"
   width="190mm"
   height="190mm"
   viewBox="0 0 538.5827 538.58279"
   version="1.1"
   sodipodi:docname="EGA_submarcas_Norway.svg"
   inkscape:version="1.2.2 (b0a8486541, 2022-12-01)"
   xmlns:inkscape="http://www.inkscape.org/namespaces/inkscape"
   xmlns:sodipodi="http://sodipodi.sourceforge.net/DTD/sodipodi-0.dtd"
   xmlns="http://www.w3.org/2000/svg"
   xmlns:svg="http://www.w3.org/2000/svg">
  <sodipodi:namedview
     id="namedview113"
     pagecolor="#ffffff"
     bordercolor="#666666"
     borderopacity="1.0"
     inkscape:showpageshadow="2"
     inkscape:pageopacity="0.0"
     inkscape:pagecheckerboard="0"
     inkscape:deskcolor="#d1d1d1"
     inkscape:document-units="mm"
     showgrid="false"
     inkscape:zoom="1.8200548"
     inkscape:cx="256.31096"
     inkscape:cy="151.36907"
     inkscape:window-width="1920"
     inkscape:window-height="1552"
     inkscape:window-x="3840"
     inkscape:window-y="0"
     inkscape:window-maximized="1"
     inkscape:current-layer="Layer_1" />
  <defs
     id="defs4">
    <style
       id="style2">.cls-1{fill:#f6c75e;}.cls-2{fill:#eb9661;}.cls-3{fill:#5e9cc3;}.cls-4{fill:#155177;}</style>
  </defs>
  <g
     id="g291"
     transform="translate(0,150.75544)">
    <path
       class="cls-1"
       d="m 22.2953,142.2717 v 26.54 c 0,14.6577 38.788,26.54 86.6355,26.54 v -26.54 c -47.8475,1e-4 -86.6355,-11.8823 -86.6355,-26.54 z"
       id="path6" />
    <path
       class="cls-2"
       d="m 22.2953,105.2468 v 26.54 c 0,14.6577 38.788,26.54 86.6355,26.54 v -26.54 c -47.8475,2e-4 -86.6355,-11.8823 -86.6355,-26.54 z"
       id="path8" />
    <path
       class="cls-3"
       d="m 22.2953,68.2219 v 26.54 c 0,14.6577 38.788,26.54 86.6355,26.54 v -26.54 C 61.0833,94.7621 22.2953,82.88 22.2953,68.2219 Z"
       id="path10" />
    <path
       class="cls-4"
       d="m 22.2953,57.5974 c 0,14.6578 38.788,26.54 86.6355,26.54 v -53.08 C 61.0833,31.0573 22.2953,42.94 22.2953,57.5974 Z"
       id="path12" />
    <path
       class="cls-4"
       d="m 138.3958,58.2145 a 12.77,12.77 0 0 0 9.3823,-3.9787 12.9446,12.9446 0 0 0 3.95,-9.4437 13.14,13.14 0 0 0 -3.95,-9.61 12.7778,12.7778 0 0 0 -9.3823,-3.9762 12.96,12.96 0 0 0 -9.5471,3.9762 13.132,13.132 0 0 0 -3.9529,9.61 13.541,13.541 0 0 0 13.5,13.4224 z"
       id="path14" />
    <path
       class="cls-1"
       d="m 140.37,197.0661 a 1.4441,1.4441 0 0 0 0.5772,0.581 1.4617,1.4617 0 0 0 0.7421,0.249 l 7.4058,-1.3254 a 0.8124,0.8124 0 0 0 0.7422,-0.4149 1.5007,1.5007 0 0 0 0.2473,-0.747 l -3.0931,-25.5756 h -14.3062 z"
       id="path16" />
    <path
       class="cls-2"
       d="m 127.367,152.8252 a 3.2675,3.2675 0 0 1 0.5747,0.83 c 0.1649,0.3294 0.3014,0.6069 0.4122,0.8274 l 1.3848,4.9069 h 15.9895 l -1.7355,-14.3506 a 3.211,3.211 0 0 0 -0.2473,-0.996 c -0.165,-0.4383 -0.3041,-0.77 -0.4123,-0.9934 L 137.664,132.2068 H 116.66 v 8.415 z"
       id="path18" />
    <path
       class="cls-3"
       d="m 176.5045,109.1653 a 1.48,1.48 0 0 0 -0.4123,-0.747 L 157.7188,94.5809 H 116.66 v 27.1827 h 15.5434 l -3.6848,-7.0478 a 2.601,2.601 0 0 1 0,-1.8233 L 136.2545,95.33 a 0.7388,0.7388 0 0 1 0.4947,-0.415 0.6887,0.6887 0 0 1 0.66,0.249 l 7.7356,6.7929 a 5.0709,5.0709 0 0 0 0.8246,0.6614 3.9692,3.9692 0 0 0 0.987,0.4981 l 24.6911,12.4264 a 1.2976,1.2976 0 0 0 1.4817,-0.4954 l 3.2932,-5.1381 a 1.1428,1.1428 0 0 0 0.0821,-0.744 z"
       id="path20" />
    <path
       class="cls-4"
       d="m 149.5861,84.1376 -6.91,-18.6348 a 3.2,3.2 0 0 0 -0.5772,-0.7444 c -0.2758,-0.2749 -0.5206,-0.524 -0.74,-0.7445 L 125.885,55.5611 a 7.2354,7.2354 0 0 0 -0.99,-0.2464 2.04,2.04 0 0 0 -0.9869,0.083 L 116.66,58.545 v 25.5926 z"
       id="path22" />
    <path
       class="cls-4"
       d="m 219.2722,31.0711 v 5.0166 h -13.11 v 6.27 h 11.3623 v 4.6357 h -11.3626 v 11.21 h -5.9658 V 31.0711 Z"
       id="path24" />
    <path
       class="cls-4"
       d="m 236.447,56.95 a 8.9121,8.9121 0 0 1 -5.5478,1.6718 10.1031,10.1031 0 0 1 -4.085,-0.76 8.0465,8.0465 0 0 1 -2.9062,-2.1289 9.0182,9.0182 0 0 1 -1.7676,-3.2676 15.7457,15.7457 0 0 1 -0.665,-4.1416 11.8033,11.8033 0 0 1 0.6846,-4.1037 9.8063,9.8063 0 0 1 1.918,-3.23 8.7144,8.7144 0 0 1 2.9267,-2.1269 8.93,8.93 0 0 1 3.7051,-0.7608 8.0607,8.0607 0 0 1 4.3506,1.083 8.6179,8.6179 0 0 1 2.7744,2.7559 10.8822,10.8822 0 0 1 1.4434,3.6475 15.6026,15.6026 0 0 1 0.3232,3.7617 h -14.706 a 7.8038,7.8038 0 0 0 0.3037,2.4511 5.5453,5.5453 0 0 0 1.1025,2.0518 5.4416,5.4416 0 0 0 1.9385,1.4258 6.6856,6.6856 0 0 0 2.7734,0.5312 5.5945,5.5945 0 0 0 3.3633,-0.9492 4.5982,4.5982 0 0 0 1.7285,-2.8887 h 3.1924 A 7.8563,7.8563 0 0 1 236.447,56.95 Z m -0.7783,-12.6163 a 5.531,5.531 0 0 0 -1.1787,-1.7666 5.6,5.6 0 0 0 -1.748,-1.1787 5.5287,5.5287 0 0 0 -2.2227,-0.4365 5.6272,5.6272 0 0 0 -2.2607,0.4365 5.227,5.227 0 0 0 -1.73,1.1973 5.7209,5.7209 0 0 0 -1.14,1.7666 6.7161,6.7161 0 0 0 -0.4941,2.1475 h 11.2861 a 6.6133,6.6133 0 0 0 -0.5119,-2.1661 z"
       id="path26" />
    <path
       class="cls-4"
       d="m 257.2713,58.2039 v -2.66 h -0.0762 a 4.7491,4.7491 0 0 1 -2.5078,2.3555 9.5788,9.5788 0 0 1 -3.7618,0.7226 8.8709,8.8709 0 0 1 -3.9716,-0.8359 8.1432,8.1432 0 0 1 -2.8116,-2.2422 9.7568,9.7568 0 0 1 -1.6914,-3.2676 13.4354,13.4354 0 0 1 -0.57,-3.9521 13.8637,13.8637 0 0 1 0.5508,-3.9522 9.2935,9.2935 0 0 1 1.6729,-3.249 8.0738,8.0738 0 0 1 2.8115,-2.2041 8.9357,8.9357 0 0 1 3.9336,-0.8174 9.6537,9.6537 0 0 1 1.6338,0.1524 8.3452,8.3452 0 0 1 1.748,0.5127 7.4932,7.4932 0 0 1 1.6533,0.95 5.2449,5.2449 0 0 1 1.3106,1.4629 h 0.0762 V 31.0711 h 3.2294 v 27.1328 z m -11.6094,-6.9727 a 7.2364,7.2364 0 0 0 1.1015,2.3359 5.3924,5.3924 0 0 0 1.9,1.6348 5.7674,5.7674 0 0 0 2.7168,0.6074 5.33,5.33 0 0 0 4.6367,-2.3369 7.0862,7.0862 0 0 0 1.045,-2.375 11.5214,11.5214 0 0 0 -0.02,-5.4912 6.9122,6.9122 0 0 0 -1.083,-2.375 5.5358,5.5358 0 0 0 -1.9189,-1.6523 5.9947,5.9947 0 0 0 -2.85,-0.627 5.5494,5.5494 0 0 0 -2.7744,0.6455 5.1391,5.1391 0 0 0 -1.8233,1.71 7.4187,7.4187 0 0 0 -0.9883,2.4316 12.9012,12.9012 0 0 0 -0.3047,2.8125 10.0342,10.0342 0 0 0 0.3626,2.6797 z"
       id="path28" />
    <path
       class="cls-4"
       d="m 279.3865,56.95 a 8.9164,8.9164 0 0 1 -5.5479,1.6718 10.1023,10.1023 0 0 1 -4.0849,-0.76 8.0514,8.0514 0 0 1 -2.9073,-2.1289 9.018,9.018 0 0 1 -1.7666,-3.2676 15.7123,15.7123 0 0 1 -0.666,-4.1416 11.8243,11.8243 0 0 1 0.6846,-4.1045 9.8271,9.8271 0 0 1 1.9189,-3.23 8.7219,8.7219 0 0 1 2.9258,-2.1269 8.9293,8.9293 0 0 1 3.7051,-0.7608 8.0669,8.0669 0 0 1 4.3518,1.0828 8.6166,8.6166 0 0 1 2.7734,2.7559 10.8839,10.8839 0 0 1 1.4443,3.6475 15.7,15.7 0 0 1 0.3233,3.7617 h -14.7063 a 7.7516,7.7516 0 0 0 0.3037,2.4511 5.5449,5.5449 0 0 0 1.1016,2.0518 5.44,5.44 0 0 0 1.9385,1.4258 6.6931,6.6931 0 0 0 2.7744,0.5312 5.5934,5.5934 0 0 0 3.3623,-0.9492 4.5993,4.5993 0 0 0 1.7295,-2.8887 h 3.1914 a 7.8561,7.8561 0 0 1 -2.8496,4.9786 z m -0.7793,-12.6163 a 5.5122,5.5122 0 0 0 -1.1777,-1.7666 5.6122,5.6122 0 0 0 -1.7481,-1.1787 5.5316,5.5316 0 0 0 -2.2226,-0.4365 5.6357,5.6357 0 0 0 -2.2618,0.4365 5.2238,5.2238 0 0 0 -1.7285,1.1973 5.7433,5.7433 0 0 0 -1.1406,1.7666 6.7153,6.7153 0 0 0 -0.4932,2.1475 h 11.2862 a 6.64,6.64 0 0 0 -0.5137,-2.1661 z"
       id="path30" />
    <path
       class="cls-4"
       d="M 288.81,38.5574 V 42.7 h 0.0762 a 8.73,8.73 0 0 1 2.8877,-3.5342 7.2589,7.2589 0 0 1 4.332,-1.0645 v 3.4209 a 9.1436,9.1436 0 0 0 -3.3066,0.5313 5.2211,5.2211 0 0 0 -2.2041,1.5586 A 6.4487,6.4487 0 0 0 289.38,46.1 13.4554,13.4554 0 0 0 289,49.4632 v 8.74 h -3.23 V 38.5574 Z"
       id="path32" />
    <path
       class="cls-4"
       d="m 315.9412,58.1209 a 4.5123,4.5123 0 0 1 -2.3174,0.5009 2.78,2.78 0 0 1 -1.9951,-0.7031 3.0556,3.0556 0 0 1 -0.7412,-2.2988 7.7342,7.7342 0 0 1 -3.0967,2.2988 10.6858,10.6858 0 0 1 -6.3457,0.3984 5.8618,5.8618 0 0 1 -2.0713,-0.9492 4.5492,4.5492 0 0 1 -1.3867,-1.6914 5.6776,5.6776 0 0 1 -0.5137,-2.5273 5.7691,5.7691 0 0 1 0.57,-2.7354 4.9727,4.9727 0 0 1 1.501,-1.73 6.8956,6.8956 0 0 1 2.1279,-1.0068 q 1.1969,-0.3412 2.4512,-0.5693 1.33,-0.2667 2.5264,-0.3995 a 14.0264,14.0264 0 0 0 2.1093,-0.38 3.5154,3.5154 0 0 0 1.4444,-0.7227 1.7617,1.7617 0 0 0 0.5322,-1.3867 3.219,3.219 0 0 0 -0.3994,-1.71 2.73,2.73 0 0 0 -1.0264,-0.9873 4.1676,4.1676 0 0 0 -1.4053,-0.457 10.5986,10.5986 0 0 0 -1.539,-0.1133 6.8258,6.8258 0 0 0 -3.42,0.7793 3.3053,3.3053 0 0 0 -1.4825,2.9443 h -3.2295 a 6.9665,6.9665 0 0 1 0.76,-3.0781 5.7568,5.7568 0 0 1 1.8242,-2.0322 7.6339,7.6339 0 0 1 2.6026,-1.1211 13.72,13.72 0 0 1 3.1347,-0.3428 18.35,18.35 0 0 1 2.6416,0.1905 6.889,6.889 0 0 1 2.375,0.7773 4.5552,4.5552 0 0 1 1.71,1.6494 5.2677,5.2677 0 0 1 0.6455,2.7676 V 53.572 a 7.5166,7.5166 0 0 0 0.1328,1.669 q 0.1334,0.53 0.8936,0.5312 a 3.186,3.186 0 0 0 0.9873,-0.19 z M 310.698,48.0193 a 4,4 0 0 1 -1.5967,0.665 q -0.9873,0.21 -2.07,0.3418 -1.0839,0.1349 -2.1855,0.3047 a 8.0141,8.0141 0 0 0 -1.9756,0.5508 3.5955,3.5955 0 0 0 -1.4248,1.083 3.028,3.028 0 0 0 -0.5508,1.919 2.632,2.632 0 0 0 0.3223,1.35 2.6931,2.6931 0 0 0 0.8359,0.8925 3.52,3.52 0 0 0 1.1973,0.4942 6.6305,6.6305 0 0 0 1.4433,0.1523 7.6579,7.6579 0 0 0 2.7364,-0.4375 5.7555,5.7555 0 0 0 1.8623,-1.1015 4.3366,4.3366 0 0 0 1.0634,-1.4444 3.64,3.64 0 0 0 0.3428,-1.4629 z"
       id="path34" />
    <path
       class="cls-4"
       d="m 327.3416,38.5574 v 2.8506 h -3.9141 v 12.1982 a 3.5191,3.5191 0 0 0 0.0947,0.9111 0.938,0.938 0 0 0 0.3614,0.5323 1.5879,1.5879 0 0 0 0.7412,0.247 10.7414,10.7414 0 0 0 1.2343,0.0567 h 1.4825 v 2.8506 h -2.4707 A 11.5712,11.5712 0 0 1 322.7244,58.033 3.15,3.15 0 0 1 321.28,57.405 2.6825,2.6825 0 0 1 320.4627,56.114 7.49,7.49 0 0 1 320.197,53.9099 V 41.408 h -3.3437 v -2.8506 h 3.3437 v -5.89 h 3.2305 v 5.89 z"
       id="path36" />
    <path
       class="cls-4"
       d="m 344.8211,56.95 a 8.9166,8.9166 0 0 1 -5.5479,1.6718 10.1073,10.1073 0 0 1 -4.0859,-0.76 8.0554,8.0554 0 0 1 -2.9063,-2.1289 9.02,9.02 0 0 1 -1.7676,-3.2676 15.7539,15.7539 0 0 1 -0.665,-4.1416 11.8243,11.8243 0 0 1 0.6846,-4.1045 9.8254,9.8254 0 0 1 1.9189,-3.23 8.7119,8.7119 0 0 1 2.9258,-2.1269 8.9289,8.9289 0 0 1 3.7051,-0.7608 8.0612,8.0612 0 0 1 4.3506,1.083 8.62,8.62 0 0 1 2.7744,2.7559 10.9049,10.9049 0 0 1 1.4443,3.6475 15.6508,15.6508 0 0 1 0.3223,3.7617 h -14.7051 a 7.7487,7.7487 0 0 0 0.3037,2.4511 5.5276,5.5276 0 0 0 1.1016,2.0518 5.44,5.44 0 0 0 1.9384,1.4258 6.6923,6.6923 0 0 0 2.7735,0.5312 5.5949,5.5949 0 0 0 3.3635,-0.9495 4.594,4.594 0 0 0 1.7285,-2.8887 h 3.1924 a 7.8561,7.8561 0 0 1 -2.8498,4.9787 z m -0.7793,-12.6163 a 5.5436,5.5436 0 0 0 -1.1778,-1.7666 5.6106,5.6106 0 0 0 -1.748,-1.1787 5.5366,5.5366 0 0 0 -2.2237,-0.4365 5.6272,5.6272 0 0 0 -2.2607,0.4365 5.2238,5.2238 0 0 0 -1.7285,1.1973 5.7233,5.7233 0 0 0 -1.1406,1.7666 6.7126,6.7126 0 0 0 -0.4932,2.1475 h 11.2852 a 6.6133,6.6133 0 0 0 -0.5127,-2.1661 z"
       id="path38" />
    <path
       class="cls-4"
       d="m 365.6443,58.2039 v -2.66 h -0.0762 a 4.7488,4.7488 0 0 1 -2.5078,2.3555 9.578,9.578 0 0 1 -3.7617,0.7226 8.8717,8.8717 0 0 1 -3.9717,-0.8359 8.1623,8.1623 0 0 1 -2.8115,-2.2422 9.7713,9.7713 0 0 1 -1.6914,-3.2676 13.4321,13.4321 0 0 1 -0.57,-3.9521 13.832,13.832 0 0 1 0.5517,-3.9522 9.2916,9.2916 0 0 1 1.6719,-3.249 8.0757,8.0757 0 0 1 2.8115,-2.2041 8.9391,8.9391 0 0 1 3.9336,-0.8174 9.6527,9.6527 0 0 1 1.6338,0.1524 8.3286,8.3286 0 0 1 1.7481,0.5127 7.4728,7.4728 0 0 1 1.6533,0.95 5.2446,5.2446 0 0 1 1.31,1.4629 h 0.0762 V 31.0711 h 3.2305 v 27.1328 z m -11.6094,-6.9727 a 7.2178,7.2178 0 0 0 1.1026,2.3359 5.3961,5.3961 0 0 0 1.8994,1.6348 5.77,5.77 0 0 0 2.7168,0.6074 5.33,5.33 0 0 0 4.6367,-2.3369 7.0841,7.0841 0 0 0 1.0449,-2.375 11.486,11.486 0 0 0 -0.0195,-5.4912 6.933,6.933 0 0 0 -1.082,-2.375 5.54,5.54 0 0 0 -1.92,-1.6523 5.9941,5.9941 0 0 0 -2.85,-0.627 5.5431,5.5431 0 0 0 -2.7734,0.6455 5.1327,5.1327 0 0 0 -1.8242,1.71 7.4361,7.4361 0 0 0 -0.9883,2.4316 12.9008,12.9008 0 0 0 -0.3037,2.8125 10.0737,10.0737 0 0 0 0.3607,2.6797 z"
       id="path40" />
    <path
       class="cls-4"
       d="m 220.488,65.5711 v 5.0166 h -14.3261 v 5.8134 H 219.31 v 4.6368 h -13.1481 v 6.6494 h 14.63 v 5.0166 H 200.1961 V 65.5711 Z"
       id="path42" />
    <path
       class="cls-4"
       d="m 237.8533,92.7039 v -3.1162 h -0.0752 a 6.61,6.61 0 0 1 -2.6221,2.6787 7.8526,7.8526 0 0 1 -3.7617,0.8554 8.7934,8.7934 0 0 1 -3.23,-0.5136 5.1378,5.1378 0 0 1 -2.09,-1.4629 5.4919,5.4919 0 0 1 -1.1211,-2.2608 12.1317,12.1317 0 0 1 -0.3233,-2.9072 v -12.92 h 3.23 v 13.3009 a 3.9025,3.9025 0 0 0 1.0635,2.8877 3.9546,3.9546 0 0 0 2.9258,1.0634 6.57,6.57 0 0 0 2.5654,-0.456 4.8059,4.8059 0 0 0 1.8047,-1.292 5.5469,5.5469 0 0 0 1.083,-1.957 7.9633,7.9633 0 0 0 0.3613,-2.4512 V 73.0574 h 3.23 v 19.6465 z"
       id="path44" />
    <path
       class="cls-4"
       d="M 248.6834,73.0574 V 77.2 h 0.0761 a 8.7394,8.7394 0 0 1 2.8887,-3.5342 7.2591,7.2591 0 0 1 4.332,-1.0645 v 3.4209 a 9.14,9.14 0 0 0 -3.3066,0.5313 5.2155,5.2155 0 0 0 -2.2041,1.5586 6.4345,6.4345 0 0 0 -1.2158,2.4879 13.4086,13.4086 0 0 0 -0.38,3.3632 v 8.74 h -3.23 V 73.0574 Z"
       id="path46" />
    <path
       class="cls-4"
       d="m 257.2722,78.8523 a 9.1534,9.1534 0 0 1 1.8233,-3.2676 8.5948,8.5948 0 0 1 3.0019,-2.1855 11.0038,11.0038 0 0 1 8.2276,0 8.6511,8.6511 0 0 1 2.9834,2.1855 9.17,9.17 0 0 1 1.8232,3.2676 13.0873,13.0873 0 0 1 0.6084,4.0469 12.9061,12.9061 0 0 1 -0.6084,4.0283 9.1884,9.1884 0 0 1 -1.8232,3.249 8.4314,8.4314 0 0 1 -2.9834,2.166 11.2476,11.2476 0 0 1 -8.2276,0 8.38,8.38 0 0 1 -3.0019,-2.166 9.1717,9.1717 0 0 1 -1.8233,-3.249 12.9091,12.9091 0 0 1 -0.6084,-4.0283 13.09,13.09 0 0 1 0.6084,-4.0469 z m 3.2862,7.2207 a 6.636,6.636 0 0 0 1.3116,2.317 5.6622,5.6622 0 0 0 1.957,1.4248 5.955,5.955 0 0 0 4.75,0 5.6715,5.6715 0 0 0 1.957,-1.4248 6.6519,6.6519 0 0 0 1.3116,-2.3174 10.8464,10.8464 0 0 0 0,-6.3467 6.8835,6.8835 0 0 0 -1.3116,-2.3369 5.5891,5.5891 0 0 0 -1.957,-1.4433 5.9539,5.9539 0 0 0 -4.75,0 5.58,5.58 0 0 0 -1.957,1.4433 6.8666,6.8666 0 0 0 -1.3115,2.3369 10.8464,10.8464 0 0 0 0,6.3467 z"
       id="path48" />
    <path
       class="cls-4"
       d="m 282.8836,73.0574 v 2.66 h 0.0761 a 4.8411,4.8411 0 0 1 2.5078,-2.375 9.3574,9.3574 0 0 1 3.7618,-0.7412 8.8726,8.8726 0 0 1 3.9716,0.836 8.0789,8.0789 0 0 1 2.8116,2.2617 9.9789,9.9789 0 0 1 1.69,3.2861 13.409,13.409 0 0 1 0.57,3.9522 13.8584,13.8584 0 0 1 -0.5508,3.9521 9.3,9.3 0 0 1 -1.6719,3.249 7.8951,7.8951 0 0 1 -2.8125,2.1856 9.1183,9.1183 0 0 1 -3.9326,0.7978 9.679,9.679 0 0 1 -1.6147,-0.1517 8.9511,8.9511 0 0 1 -1.7666,-0.4941 6.8418,6.8418 0 0 1 -1.6533,-0.9307 5.1894,5.1894 0 0 1 -1.3106,-1.4629 h -0.0761 V 100.19 h -3.2305 V 73.0574 Z M 294.492,80.03 a 7.22,7.22 0 0 0 -1.1016,-2.3359 5.4017,5.4017 0 0 0 -1.9,-1.6348 5.7791,5.7791 0 0 0 -2.7168,-0.6074 5.33,5.33 0 0 0 -4.6357,2.3369 7.0553,7.0553 0 0 0 -1.045,2.375 11.5042,11.5042 0 0 0 0.0186,5.4912 6.9392,6.9392 0 0 0 1.083,2.375 5.5371,5.5371 0 0 0 1.9189,1.6524 5.9961,5.9961 0 0 0 2.8506,0.6269 5.525,5.525 0 0 0 2.793,-0.6455 5.1971,5.1971 0 0 0 1.8047,-1.71 7.4538,7.4538 0 0 0 0.9883,-2.4317 12.9626,12.9626 0 0 0 0.3037,-2.8125 10.0341,10.0341 0 0 0 -0.3617,-2.6796 z"
       id="path50" />
    <path
       class="cls-4"
       d="m 315.9812,91.45 a 8.9161,8.9161 0 0 1 -5.5478,1.6718 10.1081,10.1081 0 0 1 -4.086,-0.76 8.0551,8.0551 0 0 1 -2.9062,-2.1289 9.0182,9.0182 0 0 1 -1.7676,-3.2676 15.7457,15.7457 0 0 1 -0.665,-4.1416 11.8266,11.8266 0 0 1 0.6845,-4.1045 9.8256,9.8256 0 0 1 1.919,-3.23 8.71,8.71 0 0 1 2.9258,-2.1269 8.9288,8.9288 0 0 1 3.705,-0.7608 8.0607,8.0607 0 0 1 4.3506,1.083 8.6179,8.6179 0 0 1 2.7744,2.7559 10.9051,10.9051 0 0 1 1.4444,3.6475 15.6505,15.6505 0 0 1 0.3222,3.7617 H 304.43 a 7.7459,7.7459 0 0 0 0.3037,2.4511 5.5288,5.5288 0 0 0 1.1015,2.0518 5.4416,5.4416 0 0 0 1.9385,1.4258 6.6921,6.6921 0 0 0 2.7734,0.5312 5.5945,5.5945 0 0 0 3.3629,-0.9495 4.594,4.594 0 0 0 1.7285,-2.8887 h 3.1924 a 7.8552,7.8552 0 0 1 -2.8497,4.9787 z m -0.7793,-12.6163 a 5.545,5.545 0 0 0 -1.1777,-1.7666 5.6122,5.6122 0 0 0 -1.7481,-1.1787 5.5361,5.5361 0 0 0 -2.2236,-0.4365 5.6272,5.6272 0 0 0 -2.2607,0.4365 5.2243,5.2243 0 0 0 -1.7286,1.1973 5.7251,5.7251 0 0 0 -1.1406,1.7666 A 6.7152,6.7152 0 0 0 304.43,81 h 11.2851 a 6.6133,6.6133 0 0 0 -0.5132,-2.1663 z"
       id="path52" />
    <path
       class="cls-4"
       d="m 339.8826,92.6209 a 4.5186,4.5186 0 0 1 -2.3184,0.5009 2.78,2.78 0 0 1 -1.9951,-0.7031 3.06,3.06 0 0 1 -0.7412,-2.2988 7.7267,7.7267 0 0 1 -3.0967,2.2988 10.6858,10.6858 0 0 1 -6.3457,0.3984 5.87,5.87 0 0 1 -2.0713,-0.9492 4.5492,4.5492 0 0 1 -1.3867,-1.6914 5.6913,5.6913 0 0 1 -0.5137,-2.5273 5.77,5.77 0 0 1 0.57,-2.7354 4.9829,4.9829 0 0 1 1.501,-1.73 6.8956,6.8956 0 0 1 2.1279,-1.0068 q 1.1984,-0.3412 2.4512,-0.5693 1.33,-0.2667 2.5274,-0.4 a 14.0732,14.0732 0 0 0 2.1093,-0.38 3.5167,3.5167 0 0 0 1.4434,-0.7227 1.7617,1.7617 0 0 0 0.5322,-1.3867 3.219,3.219 0 0 0 -0.3994,-1.71 2.7274,2.7274 0 0 0 -1.0254,-0.9873 4.1726,4.1726 0 0 0 -1.4062,-0.457 10.6,10.6 0 0 0 -1.5391,-0.1133 6.8284,6.8284 0 0 0 -3.42,0.7793 3.3052,3.3052 0 0 0 -1.4824,2.9443 h -3.23 a 6.9665,6.9665 0 0 1 0.76,-3.0781 5.7561,5.7561 0 0 1 1.8243,-2.0322 7.6325,7.6325 0 0 1 2.6025,-1.1211 13.7206,13.7206 0 0 1 3.1348,-0.3428 18.3509,18.3509 0 0 1 2.6416,0.1905 6.89,6.89 0 0 1 2.375,0.7773 4.5557,4.5557 0 0 1 1.71,1.6494 5.2675,5.2675 0 0 1 0.6465,2.7676 V 88.072 a 7.4616,7.4616 0 0 0 0.1328,1.669 q 0.1318,0.53 0.8926,0.5312 a 3.1968,3.1968 0 0 0 0.9883,-0.19 z m -5.2442,-10.1016 a 4,4 0 0 1 -1.5957,0.665 q -0.9887,0.21 -2.0713,0.3418 -1.0824,0.1349 -2.1845,0.3047 a 8.01,8.01 0 0 0 -1.9766,0.5508 3.5955,3.5955 0 0 0 -1.4248,1.083 3.028,3.028 0 0 0 -0.5508,1.919 2.6222,2.6222 0 0 0 0.3233,1.35 2.683,2.683 0 0 0 0.8359,0.8925 3.5145,3.5145 0 0 0 1.1963,0.4942 6.6338,6.6338 0 0 0 1.4443,0.1523 7.6617,7.6617 0 0 0 2.7364,-0.4375 5.75,5.75 0 0 0 1.8613,-1.1015 4.3539,4.3539 0 0 0 1.0644,-1.4444 3.6544,3.6544 0 0 0 0.3418,-1.4629 z"
       id="path54" />
    <path
       class="cls-4"
       d="m 345.9236,73.0574 v 3.1162 H 346 a 6.8018,6.8018 0 0 1 6.3838,-3.5723 8.5308,8.5308 0 0 1 3.23,0.5323 5.3325,5.3325 0 0 1 2.09,1.4824 5.5056,5.5056 0 0 1 1.1211,2.2607 12.1835,12.1835 0 0 1 0.3232,2.9072 v 12.92 h -3.23 V 79.4031 a 3.908,3.908 0 0 0 -1.0634,-2.8877 3.9583,3.9583 0 0 0 -2.9268,-1.0635 6.5689,6.5689 0 0 0 -2.5645,0.4561 4.7887,4.7887 0 0 0 -1.8046,1.292 5.5543,5.5543 0 0 0 -1.084,1.957 7.9693,7.9693 0 0 0 -0.36,2.4512 v 11.0957 h -3.23 V 73.0574 Z"
       id="path56" />
    <path
       class="cls-4"
       d="m 216.27,126.9949 a 10.0138,10.0138 0 0 1 -3.9141,0.8164 13.9052,13.9052 0 0 1 -5.6055,-1.083 12.0011,12.0011 0 0 1 -4.1982,-2.9824 13.1977,13.1977 0 0 1 -2.623,-4.4659 16.3921,16.3921 0 0 1 -0.9112,-5.5283 16.9744,16.9744 0 0 1 0.9112,-5.6435 13.5733,13.5733 0 0 1 2.623,-4.5411 11.9907,11.9907 0 0 1 4.1982,-3.039 13.7115,13.7115 0 0 1 5.6055,-1.1026 13.1906,13.1906 0 0 1 4.0469,0.627 11.4735,11.4735 0 0 1 3.5342,1.8428 9.9643,9.9643 0 0 1 3.8564,7.1064 h -5.7 a 5.7082,5.7082 0 0 0 -2.0517,-3.42 5.96,5.96 0 0 0 -3.6856,-1.14 6.97,6.97 0 0 0 -3.42,0.7784 6.4523,6.4523 0 0 0 -2.28,2.09 9.1709,9.1709 0 0 0 -1.2734,2.9834 14.8733,14.8733 0 0 0 -0.3985,3.458 13.832,13.832 0 0 0 0.3985,3.3252 8.9841,8.9841 0 0 0 1.2734,2.9063 6.503,6.503 0 0 0 2.28,2.0713 6.96,6.96 0 0 0 3.42,0.7792 5.8214,5.8214 0 0 0 6.46,-5.8525 h -6.0039 v -4.4453 h 11.3994 v 14.668 h -3.8 l -0.6074,-3.0782 a 8.9464,8.9464 0 0 1 -3.5342,2.8694 z"
       id="path58" />
    <path
       class="cls-4"
       d="m 242.7556,125.95 a 8.9161,8.9161 0 0 1 -5.5478,1.6718 10.1031,10.1031 0 0 1 -4.085,-0.76 8.05,8.05 0 0 1 -2.9072,-2.1289 9.018,9.018 0 0 1 -1.7666,-3.2676 15.7082,15.7082 0 0 1 -0.666,-4.1416 11.8266,11.8266 0 0 1 0.6845,-4.1045 9.8256,9.8256 0 0 1 1.919,-3.23 8.72,8.72 0 0 1 2.9258,-2.1269 8.9288,8.9288 0 0 1 3.705,-0.7608 8.0667,8.0667 0 0 1 4.3516,1.083 8.6147,8.6147 0 0 1 2.7734,2.7559 10.8841,10.8841 0 0 1 1.4444,3.6475 15.7043,15.7043 0 0 1 0.3232,3.7617 h -14.706 a 7.7487,7.7487 0 0 0 0.3037,2.4511 5.5432,5.5432 0 0 0 1.1015,2.0518 5.4416,5.4416 0 0 0 1.9385,1.4258 6.6937,6.6937 0 0 0 2.7744,0.5312 5.5934,5.5934 0 0 0 3.3623,-0.9492 4.5989,4.5989 0 0 0 1.73,-2.8887 h 3.1914 a 7.8552,7.8552 0 0 1 -2.8501,4.9784 z m -0.7793,-12.6163 a 5.5122,5.5122 0 0 0 -1.1777,-1.7666 5.611,5.611 0 0 0 -1.7481,-1.1787 5.5313,5.5313 0 0 0 -2.2226,-0.4365 5.6352,5.6352 0 0 0 -2.2617,0.4365 5.2228,5.2228 0 0 0 -1.7285,1.1973 5.7418,5.7418 0 0 0 -1.1407,1.7666 6.7152,6.7152 0 0 0 -0.4931,2.1475 H 242.49 a 6.64,6.64 0 0 0 -0.5137,-2.1661 z"
       id="path60" />
    <path
       class="cls-4"
       d="m 252.2927,107.5574 v 3.1162 h 0.0762 a 6.8019,6.8019 0 0 1 6.3838,-3.5723 8.5313,8.5313 0 0 1 3.2305,0.5323 5.3322,5.3322 0 0 1 2.09,1.4824 5.5044,5.5044 0 0 1 1.1211,2.2607 12.1835,12.1835 0 0 1 0.3232,2.9072 v 12.92 h -3.23 v -13.3008 a 3.908,3.908 0 0 0 -1.0635,-2.8877 3.9581,3.9581 0 0 0 -2.9268,-1.0635 6.5683,6.5683 0 0 0 -2.5644,0.4561 4.789,4.789 0 0 0 -1.8047,1.292 5.5559,5.5559 0 0 0 -1.084,1.957 7.9723,7.9723 0 0 0 -0.36,2.4512 v 11.0957 h -3.2305 v -19.6465 z"
       id="path62" />
    <path
       class="cls-4"
       d="m 269.9255,113.3523 a 9.1534,9.1534 0 0 1 1.8233,-3.2676 8.5948,8.5948 0 0 1 3.0019,-2.1855 11.0038,11.0038 0 0 1 8.2276,0 8.6369,8.6369 0 0 1 2.9824,2.1855 9.17,9.17 0 0 1 1.8242,3.2676 13.0873,13.0873 0 0 1 0.6084,4.0469 12.9061,12.9061 0 0 1 -0.6084,4.0283 9.189,9.189 0 0 1 -1.8242,3.249 8.4178,8.4178 0 0 1 -2.9824,2.166 11.2476,11.2476 0 0 1 -8.2276,0 8.38,8.38 0 0 1 -3.0019,-2.166 9.1717,9.1717 0 0 1 -1.8233,-3.249 12.88,12.88 0 0 1 -0.6084,-4.0283 13.0605,13.0605 0 0 1 0.6084,-4.0469 z m 3.2862,7.2207 a 6.6376,6.6376 0 0 0 1.3115,2.3174 5.6538,5.6538 0 0 0 1.957,1.4248 5.955,5.955 0 0 0 4.75,0 5.6822,5.6822 0 0 0 1.9571,-1.4248 6.636,6.636 0 0 0 1.31,-2.3174 10.8464,10.8464 0 0 0 0,-6.3467 6.8666,6.8666 0 0 0 -1.31,-2.3369 5.6,5.6 0 0 0 -1.9571,-1.4433 5.9539,5.9539 0 0 0 -4.75,0 5.572,5.572 0 0 0 -1.957,1.4433 6.8683,6.8683 0 0 0 -1.3115,2.3369 10.8464,10.8464 0 0 0 0,6.3467 z"
       id="path64" />
    <path
       class="cls-4"
       d="m 295.2322,107.5574 v 2.8887 h 0.0762 a 7.6537,7.6537 0 0 1 9.6523,-2.584 4.2533,4.2533 0 0 1 2.09,2.584 6.8472,6.8472 0 0 1 2.6036,-2.4707 7.3479,7.3479 0 0 1 3.5527,-0.8741 10.2979,10.2979 0 0 1 2.6787,0.3233 5.5654,5.5654 0 0 1 2.0518,1.0068 4.5575,4.5575 0 0 1 1.33,1.7676 6.4577,6.4577 0 0 1 0.4747,2.6025 v 14.4024 h -3.23 v -12.8828 a 9.1874,9.1874 0 0 0 -0.1514,-1.709 3.5079,3.5079 0 0 0 -0.57,-1.3877 2.8532,2.8532 0 0 0 -1.1592,-0.9307 4.6,4.6 0 0 0 -1.9189,-0.3418 5.087,5.087 0 0 0 -3.7618,1.3672 4.9319,4.9319 0 0 0 -1.3681,3.6484 v 12.2364 h -3.2305 v -12.8828 a 8.3244,8.3244 0 0 0 -0.1709,-1.7471 3.7256,3.7256 0 0 0 -0.5889,-1.3877 2.7592,2.7592 0 0 0 -1.1211,-0.9121 4.35,4.35 0 0 0 -1.8046,-0.3223 4.8136,4.8136 0 0 0 -2.4131,0.57 5.4532,5.4532 0 0 0 -2.5459,3.02 4.6714,4.6714 0 0 0 -0.2852,1.4248 v 12.2364 h -3.2305 v -19.6457 z"
       id="path66" />
    <path
       class="cls-4"
       d="m 338.5144,125.95 a 8.9161,8.9161 0 0 1 -5.5478,1.6718 10.1028,10.1028 0 0 1 -4.085,-0.76 8.05,8.05 0 0 1 -2.9072,-2.1289 9.0333,9.0333 0 0 1 -1.7676,-3.2676 15.7091,15.7091 0 0 1 -0.6641,-4.1416 11.8267,11.8267 0 0 1 0.6836,-4.1045 9.8256,9.8256 0 0 1 1.919,-3.23 8.72,8.72 0 0 1 2.9258,-2.1269 8.9288,8.9288 0 0 1 3.705,-0.7608 8.0607,8.0607 0 0 1 4.3506,1.083 8.6,8.6 0 0 1 2.7744,2.7559 10.8862,10.8862 0 0 1 1.4444,3.6475 15.6505,15.6505 0 0 1 0.3222,3.7617 h -14.705 a 7.8038,7.8038 0 0 0 0.3037,2.4511 5.5165,5.5165 0 0 0 1.1025,2.0518 5.4377,5.4377 0 0 0 1.9375,1.4258 6.6921,6.6921 0 0 0 2.7734,0.5312 5.5945,5.5945 0 0 0 3.3633,-0.9492 4.5993,4.5993 0 0 0 1.7295,-2.8887 h 3.1914 a 7.8552,7.8552 0 0 1 -2.8496,4.9784 z m -0.7793,-12.6163 a 5.5122,5.5122 0 0 0 -1.1777,-1.7666 5.6122,5.6122 0 0 0 -1.7481,-1.1787 5.5343,5.5343 0 0 0 -2.2226,-0.4365 5.6287,5.6287 0 0 0 -2.2617,0.4365 5.2243,5.2243 0 0 0 -1.7286,1.1973 5.7224,5.7224 0 0 0 -1.14,1.7666 6.69,6.69 0 0 0 -0.4941,2.1475 h 11.2851 a 6.6133,6.6133 0 0 0 -0.5123,-2.1661 z"
       id="path68" />
    <path
       class="cls-4"
       d="m 355.4617,115.12 v 3.04 H 344.48 v -3.04 z"
       id="path70" />
    <path
       class="cls-4"
       d="m 363.1375,107.5574 v 2.66 h 0.0761 a 4.8411,4.8411 0 0 1 2.5078,-2.375 9.3586,9.3586 0 0 1 3.7627,-0.7412 8.8713,8.8713 0 0 1 3.9707,0.836 8.0789,8.0789 0 0 1 2.8116,2.2617 10,10 0 0 1 1.6914,3.2861 13.4418,13.4418 0 0 1 0.5693,3.9522 13.8584,13.8584 0 0 1 -0.5508,3.9521 9.3012,9.3012 0 0 1 -1.6718,3.249 7.8841,7.8841 0 0 1 -2.8116,2.1856 9.1229,9.1229 0 0 1 -3.9336,0.7978 9.6678,9.6678 0 0 1 -1.6142,-0.1523 8.9413,8.9413 0 0 1 -1.7676,-0.4941 6.8358,6.8358 0 0 1 -1.6523,-0.9307 5.1927,5.1927 0 0 1 -1.3116,-1.4629 h -0.0761 V 134.69 h -3.2295 v -27.1326 z m 11.6093,6.9726 a 7.24,7.24 0 0 0 -1.1025,-2.3359 5.4071,5.4071 0 0 0 -1.8994,-1.6348 5.7861,5.7861 0 0 0 -2.7178,-0.6074 5.33,5.33 0 0 0 -4.6357,2.3369 7.0553,7.0553 0 0 0 -1.045,2.375 11.5042,11.5042 0 0 0 0.0186,5.4912 6.9221,6.9221 0 0 0 1.084,2.375 5.5281,5.5281 0 0 0 1.9189,1.6524 5.9891,5.9891 0 0 0 2.85,0.6269 5.5227,5.5227 0 0 0 2.793,-0.6455 5.2089,5.2089 0 0 0 1.8057,-1.71 7.47,7.47 0 0 0 0.9873,-2.4317 12.9626,12.9626 0 0 0 0.3037,-2.8125 10.07,10.07 0 0 0 -0.3608,-2.6796 z"
       id="path72" />
    <path
       class="cls-4"
       d="m 385.5574,100.0711 v 10.375 h 0.0752 a 4.3023,4.3023 0 0 1 1.0644,-1.5391 6.061,6.061 0 0 1 1.5391,-1.0264 7.9625,7.9625 0 0 1 1.7861,-0.5888 8.9873,8.9873 0 0 1 1.8047,-0.1905 8.5345,8.5345 0 0 1 3.23,0.5323 5.3322,5.3322 0 0 1 2.09,1.4824 5.5031,5.5031 0 0 1 1.1211,2.2607 12.1782,12.1782 0 0 1 0.3233,2.9072 v 12.92 h -3.2305 v -13.3008 a 3.9046,3.9046 0 0 0 -1.0645,-2.8877 3.9539,3.9539 0 0 0 -2.9257,-1.0635 6.5654,6.5654 0 0 0 -2.5645,0.4561 4.8013,4.8013 0 0 0 -1.8057,1.292 5.5554,5.5554 0 0 0 -1.083,1.957 7.9723,7.9723 0 0 0 -0.36,2.4512 v 11.0957 h -3.23 v -27.1328 z"
       id="path74" />
    <path
       class="cls-4"
       d="m 417.363,125.95 a 8.9161,8.9161 0 0 1 -5.5478,1.6718 10.1031,10.1031 0 0 1 -4.085,-0.76 8.0511,8.0511 0 0 1 -2.9072,-2.1289 9.018,9.018 0 0 1 -1.7666,-3.2676 15.7123,15.7123 0 0 1 -0.666,-4.1416 11.8243,11.8243 0 0 1 0.6846,-4.1045 9.8254,9.8254 0 0 1 1.9189,-3.23 8.72,8.72 0 0 1 2.9258,-2.1269 8.9289,8.9289 0 0 1 3.7051,-0.7608 8.0666,8.0666 0 0 1 4.3515,1.083 8.616,8.616 0 0 1 2.7737,2.7555 10.886,10.886 0 0 1 1.4443,3.6475 15.7043,15.7043 0 0 1 0.3232,3.7617 h -14.706 a 7.7487,7.7487 0 0 0 0.3037,2.4511 5.542,5.542 0 0 0 1.1016,2.0518 5.44,5.44 0 0 0 1.9384,1.4258 6.6939,6.6939 0 0 0 2.7745,0.5312 5.5938,5.5938 0 0 0 3.3623,-0.9492 4.5993,4.5993 0 0 0 1.7295,-2.8887 h 3.1914 a 7.8558,7.8558 0 0 1 -2.8499,4.9788 z m -0.7792,-12.6163 a 5.5124,5.5124 0 0 0 -1.1778,-1.7666 5.6106,5.6106 0 0 0 -1.748,-1.1787 5.5317,5.5317 0 0 0 -2.2227,-0.4365 5.6355,5.6355 0 0 0 -2.2617,0.4365 5.2228,5.2228 0 0 0 -1.7285,1.1973 5.7415,5.7415 0 0 0 -1.1406,1.7666 6.7126,6.7126 0 0 0 -0.4932,2.1475 h 11.2861 a 6.6371,6.6371 0 0 0 -0.5136,-2.1661 z"
       id="path76" />
    <path
       class="cls-4"
       d="m 426.9,107.5574 v 3.1162 h 0.0761 a 6.8019,6.8019 0 0 1 6.3838,-3.5723 8.531,8.531 0 0 1 3.2305,0.5323 5.3322,5.3322 0 0 1 2.09,1.4824 5.5031,5.5031 0 0 1 1.1211,2.2607 12.1782,12.1782 0 0 1 0.3233,2.9072 v 12.92 h -3.2305 v -13.3008 a 3.908,3.908 0 0 0 -1.0635,-2.8877 3.9579,3.9579 0 0 0 -2.9267,-1.0635 6.5689,6.5689 0 0 0 -2.5645,0.4561 4.79,4.79 0 0 0 -1.8047,1.292 5.5559,5.5559 0 0 0 -1.084,1.957 7.9723,7.9723 0 0 0 -0.36,2.4512 v 11.0957 H 423.86 v -19.6465 z"
       id="path78" />
    <path
       class="cls-4"
       d="m 444.533,113.3523 a 9.1547,9.1547 0 0 1 1.8232,-3.2676 8.5952,8.5952 0 0 1 3.002,-2.1855 11.0036,11.0036 0 0 1 8.2275,0 8.6369,8.6369 0 0 1 2.9824,2.1855 9.1689,9.1689 0 0 1 1.8242,3.2676 13.0873,13.0873 0 0 1 0.6084,4.0469 12.9061,12.9061 0 0 1 -0.6084,4.0283 9.1874,9.1874 0 0 1 -1.8242,3.249 8.4178,8.4178 0 0 1 -2.9824,2.166 11.2474,11.2474 0 0 1 -8.2275,0 8.38,8.38 0 0 1 -3.002,-2.166 9.1731,9.1731 0 0 1 -1.8232,-3.249 12.877,12.877 0 0 1 -0.6084,-4.0283 13.0576,13.0576 0 0 1 0.6084,-4.0469 z m 3.2861,7.2207 a 6.6376,6.6376 0 0 0 1.3115,2.3174 5.6542,5.6542 0 0 0 1.9571,1.4248 5.955,5.955 0 0 0 4.75,0 5.6808,5.6808 0 0 0 1.957,-1.4248 6.636,6.636 0 0 0 1.3105,-2.3174 10.8464,10.8464 0 0 0 0,-6.3467 6.8666,6.8666 0 0 0 -1.3105,-2.3369 5.5982,5.5982 0 0 0 -1.957,-1.4433 5.9539,5.9539 0 0 0 -4.75,0 5.5723,5.5723 0 0 0 -1.9571,1.4433 6.8683,6.8683 0 0 0 -1.3115,2.3369 10.8464,10.8464 0 0 0 0,6.3467 z"
       id="path80" />
    <path
       class="cls-4"
       d="m 469.84,107.5574 v 2.8887 h 0.0762 a 7.6537,7.6537 0 0 1 9.6523,-2.584 4.2537,4.2537 0 0 1 2.09,2.584 6.8469,6.8469 0 0 1 2.6035,-2.4707 7.3481,7.3481 0 0 1 3.5527,-0.8741 10.2979,10.2979 0 0 1 2.6787,0.3233 5.5654,5.5654 0 0 1 2.0518,1.0068 4.5577,4.5577 0 0 1 1.33,1.7676 6.46,6.46 0 0 1 0.4746,2.6025 v 14.4024 h -3.23 v -12.8828 a 9.1874,9.1874 0 0 0 -0.1514,-1.709 3.5064,3.5064 0 0 0 -0.57,-1.3877 2.8526,2.8526 0 0 0 -1.1592,-0.9307 4.6,4.6 0 0 0 -1.9189,-0.3418 5.0868,5.0868 0 0 0 -3.7617,1.3672 4.932,4.932 0 0 0 -1.3682,3.6484 v 12.2364 H 478.96 v -12.8828 a 8.3244,8.3244 0 0 0 -0.1709,-1.7471 3.7255,3.7255 0 0 0 -0.5888,-1.3877 2.76,2.76 0 0 0 -1.1211,-0.9121 4.3509,4.3509 0 0 0 -1.8047,-0.3223 4.8136,4.8136 0 0 0 -2.4131,0.57 5.4532,5.4532 0 0 0 -2.5459,3.02 4.6745,4.6745 0 0 0 -0.2852,1.4248 v 12.2364 H 466.8 v -19.6457 z"
       id="path82" />
    <path
       class="cls-4"
       d="m 513.1218,125.95 a 8.9161,8.9161 0 0 1 -5.5478,1.6718 10.1031,10.1031 0 0 1 -4.085,-0.76 8.0511,8.0511 0 0 1 -2.9072,-2.1289 9.0333,9.0333 0 0 1 -1.7676,-3.2676 15.7092,15.7092 0 0 1 -0.664,-4.1416 11.8243,11.8243 0 0 1 0.6836,-4.1045 9.8254,9.8254 0 0 1 1.9189,-3.23 8.72,8.72 0 0 1 2.9258,-2.1269 8.9289,8.9289 0 0 1 3.7051,-0.7608 8.0606,8.0606 0 0 1 4.3505,1.083 8.5994,8.5994 0 0 1 2.7745,2.7559 10.886,10.886 0 0 1 1.4443,3.6475 15.6559,15.6559 0 0 1 0.3223,3.7617 H 501.57 a 7.8067,7.8067 0 0 0 0.3037,2.4511 5.5165,5.5165 0 0 0 1.1025,2.0518 5.4377,5.4377 0 0 0 1.9375,1.4258 6.6923,6.6923 0 0 0 2.7735,0.5312 5.5944,5.5944 0 0 0 3.3632,-0.9492 4.5989,4.5989 0 0 0 1.7295,-2.8887 h 3.1914 a 7.8552,7.8552 0 0 1 -2.8495,4.9784 z m -0.7793,-12.6163 a 5.5122,5.5122 0 0 0 -1.1777,-1.7666 5.6106,5.6106 0 0 0 -1.748,-1.1787 5.5352,5.5352 0 0 0 -2.2227,-0.4365 5.6287,5.6287 0 0 0 -2.2617,0.4365 5.2228,5.2228 0 0 0 -1.7285,1.1973 5.7209,5.7209 0 0 0 -1.14,1.7666 6.69,6.69 0 0 0 -0.4939,2.1477 h 11.2851 a 6.6083,6.6083 0 0 0 -0.5126,-2.1663 z"
       id="path84" />
    <path
       class="cls-4"
       d="m 213.7244,134.5711 10.1456,27.1328 h -6.1944 l -2.0517,-6.042 h -10.1456 l -2.1289,6.042 h -6.0039 l 10.2607,-27.1328 z m 0.3418,16.6445 -3.42,-9.9561 H 210.57 l -3.5342,9.9561 z"
       id="path86" />
    <path
       class="cls-4"
       d="M 228.9617,142.0574 V 146.2 h 0.0762 a 8.7447,8.7447 0 0 1 2.8876,-3.5342 7.2611,7.2611 0 0 1 4.3321,-1.0645 v 3.4209 a 9.1385,9.1385 0 0 0 -3.3057,0.5313 5.21,5.21 0 0 0 -2.2041,1.5586 6.4345,6.4345 0 0 0 -1.2158,2.4879 13.4086,13.4086 0 0 0 -0.38,3.3632 v 8.74 h -3.23 v -19.6458 z"
       id="path88" />
    <path
       class="cls-4"
       d="m 249.7478,145.4773 a 4.9047,4.9047 0 0 0 -3.2676,-1.0254 6.0172,6.0172 0 0 0 -2.9257,0.6455 5.2049,5.2049 0 0 0 -1.8809,1.71 7.1956,7.1956 0 0 0 -1.0078,2.4512 13.3353,13.3353 0 0 0 -0.3037,2.8691 10.9045,10.9045 0 0 0 0.3232,2.66 7.1151,7.1151 0 0 0 1.0068,2.2988 5.092,5.092 0 0 0 1.7862,1.6152 5.3455,5.3455 0 0 0 2.6211,0.6074 5.2892,5.2892 0 0 0 3.7441,-1.2539 5.6677,5.6677 0 0 0 1.6524,-3.5332 h 3.3066 a 9.0461,9.0461 0 0 1 -2.7178,5.6231 8.53,8.53 0 0 1 -5.9463,1.9765 10.2285,10.2285 0 0 1 -3.9716,-0.7226 7.671,7.671 0 0 1 -2.8877,-2.0518 8.8538,8.8538 0 0 1 -1.7481,-3.1728 13.2364,13.2364 0 0 1 -0.5889,-4.0469 14.4581,14.4581 0 0 1 0.5694,-4.1231 9.5456,9.5456 0 0 1 1.73,-3.3437 8.1085,8.1085 0 0 1 2.9072,-2.2422 9.5036,9.5036 0 0 1 4.0654,-0.8174 11.9,11.9 0 0 1 3.1358,0.3994 7.6551,7.6551 0 0 1 2.584,1.2344 6.7751,6.7751 0 0 1 1.8427,2.1094 7.8081,7.8081 0 0 1 0.9121,3.0215 h -3.3447 a 4.9247,4.9247 0 0 0 -1.5962,-2.8885 z"
       id="path90" />
    <path
       class="cls-4"
       d="m 261.6414,134.5711 v 10.375 h 0.0761 a 4.3,4.3 0 0 1 1.0635,-1.5391 6.0928,6.0928 0 0 1 1.5391,-1.0264 7.9625,7.9625 0 0 1 1.7861,-0.5888 8.9969,8.9969 0 0 1 1.8057,-0.19 8.5259,8.5259 0 0 1 3.2295,0.5323 5.3249,5.3249 0 0 1 2.09,1.4824 5.5044,5.5044 0 0 1 1.1211,2.2607 12.1835,12.1835 0 0 1 0.3232,2.9072 v 12.92 h -3.23 v -13.3013 a 3.9041,3.9041 0 0 0 -1.0635,-2.8877 3.9559,3.9559 0 0 0 -2.9258,-1.0635 6.5732,6.5732 0 0 0 -2.5654,0.4561 4.7969,4.7969 0 0 0 -1.8047,1.292 5.5538,5.5538 0 0 0 -1.083,1.957 7.942,7.942 0 0 0 -0.3613,2.4512 v 11.0957 h -3.2295 v -27.1328 z"
       id="path92" />
    <path
       class="cls-4"
       d="m 279.7293,138.5242 v -3.9531 h 3.23 v 3.9531 z m 3.23,3.5332 v 19.6465 h -3.23 v -19.6465 z"
       id="path94" />
    <path
       class="cls-4"
       d="m 293.3709,161.7039 -7.2959,-19.6465 h 3.61 l 5.51,16.3779 h 0.0762 l 5.3574,-16.3779 h 3.3818 l -7.1816,19.6465 z"
       id="path96" />
    <path
       class="cls-4"
       d="m 320.8826,160.45 a 8.9144,8.9144 0 0 1 -5.5479,1.6718 10.1023,10.1023 0 0 1 -4.0849,-0.76 8.0506,8.0506 0 0 1 -2.9073,-2.1289 9.033,9.033 0 0 1 -1.7666,-3.2676 15.6719,15.6719 0 0 1 -0.665,-4.1416 11.8243,11.8243 0 0 1 0.6836,-4.1045 9.8254,9.8254 0 0 1 1.9189,-3.2305 8.7219,8.7219 0 0 1 2.9258,-2.1269 8.9293,8.9293 0 0 1 3.7051,-0.7608 8.0672,8.0672 0 0 1 4.3516,1.083 8.6068,8.6068 0 0 1 2.7734,2.7559 10.863,10.863 0 0 1 1.4443,3.6475 15.6028,15.6028 0 0 1 0.3233,3.7617 h -14.7061 a 7.8067,7.8067 0 0 0 0.3037,2.4511 5.544,5.544 0 0 0 1.1026,2.0518 5.436,5.436 0 0 0 1.9375,1.4258 6.6931,6.6931 0 0 0 2.7744,0.5312 5.5987,5.5987 0 0 0 3.3633,-0.9492 4.6025,4.6025 0 0 0 1.7285,-2.8887 h 3.1914 a 7.8561,7.8561 0 0 1 -2.8496,4.9789 z m -0.7793,-12.6163 a 5.5108,5.5108 0 0 0 -1.1778,-1.7666 5.6106,5.6106 0 0 0 -1.748,-1.1787 5.5317,5.5317 0 0 0 -2.2227,-0.4365 5.6355,5.6355 0 0 0 -2.2617,0.4365 5.2238,5.2238 0 0 0 -1.7285,1.1973 5.7224,5.7224 0 0 0 -1.14,1.7666 6.69,6.69 0 0 0 -0.4938,2.1477 h 11.2862 a 6.6145,6.6145 0 0 0 -0.5137,-2.1663 z"
       id="path98" />
    <path
       class="cls-3"
       d="m 199.1,171.73 h 5.6152 l 11.2715,16.8867 V 171.73 h 5.81 v 26.0136 H 216.453 L 204.91,180.5444 v 17.1992 h -5.81 z"
       id="path100" />
    <path
       class="cls-3"
       d="m 225.5808,188.5773 a 10.0142,10.0142 0 0 1 0.7207,-3.8027 9.6038,9.6038 0 0 1 2.0078,-3.1 9.2631,9.2631 0 0 1 3.1016,-2.086 10.2213,10.2213 0 0 1 3.998,-0.7617 10.073,10.073 0 0 1 3.9766,0.7617 9.2772,9.2772 0 0 1 3.082,2.086 9.6024,9.6024 0 0 1 2.0079,3.1 10.3675,10.3675 0 0 1 0,7.6055 9.4178,9.4178 0 0 1 -5.09,5.207 9.8754,9.8754 0 0 1 -3.9766,0.7793 10.02,10.02 0 0 1 -3.998,-0.7793 9.3691,9.3691 0 0 1 -5.1094,-5.207 10,10 0 0 1 -0.7206,-3.8028 z m 9.8281,4.9141 a 4.0286,4.0286 0 0 0 3.2559,-1.5215 4.7193,4.7193 0 0 0 0.8379,-1.5781 6.1513,6.1513 0 0 0 0,-3.627 4.5119,4.5119 0 0 0 -0.8379,-1.5605 4.2269,4.2269 0 0 0 -1.3848,-1.0918 4.12,4.12 0 0 0 -1.8711,-0.41 4.2474,4.2474 0 0 0 -1.8925,0.41 3.998,3.998 0 0 0 -1.3848,1.0918 5.0206,5.0206 0 0 0 -0.8379,1.5605 5.7588,5.7588 0 0 0 0,3.627 5.2709,5.2709 0 0 0 0.8379,1.5781 3.9012,3.9012 0 0 0 1.3848,1.1133 4.274,4.274 0 0 0 1.8925,0.4082 z"
       id="path102" />
    <path
       class="cls-3"
       d="m 248.5515,179.4523 h 5.3809 l 0.1953,2.3008 a 8.3825,8.3825 0 0 1 1.93,-1.7949 5.45,5.45 0 0 1 3.18,-0.8574 8.7,8.7 0 0 1 1.2676,0.0781 4.8652,4.8652 0 0 1 1.0332,0.2734 l -0.8965,4.9531 a 6.7328,6.7328 0 0 0 -2.0293,-0.2734 4.427,4.427 0 0 0 -3.2168,1.1895 4.4809,4.4809 0 0 0 -1.2285,3.373 v 9.0488 h -5.6153 z"
       id="path104" />
    <path
       class="cls-3"
       d="m 262.0847,179.4523 h 5.7715 l 3.1973,11.7383 3.5488,-11.7383 h 4.4863 l 3.5879,11.7383 3.1973,-11.7383 h 5.6543 l -6.2774,18.291 h -5.07 l -3.4336,-10.2187 -3.3925,10.2187 h -4.9922 z"
       id="path106" />
    <path
       class="cls-3"
       d="m 304.36,196.0265 a 6.1154,6.1154 0 0 1 -2.3594,1.6778 8.4886,8.4886 0 0 1 -5.2265,0.3125 6.023,6.023 0 0 1 -1.9883,-0.918 5.0552,5.0552 0 0 1 -1.5215,-1.7344 5.5693,5.5693 0 0 1 -0.6055,-2.73 6.1165,6.1165 0 0 1 0.6446,-2.8477 5.9713,5.9713 0 0 1 1.7734,-2.0859 8.1009,8.1009 0 0 1 2.6719,-1.2676 12.4278,12.4278 0 0 1 3.3359,-0.43 q 0.9728,0 1.9688,0.0391 a 8.4007,8.4007 0 0 1 1.3066,0.1172 v -0.3887 a 2.2661,2.2661 0 0 0 -0.2929,-1.19 2.602,2.602 0 0 0 -0.7793,-0.82 3.16,3.16 0 0 0 -1.1114,-0.4668 6.1522,6.1522 0 0 0 -1.3261,-0.1367 8.8424,8.8424 0 0 0 -3.1016,0.4668 10.1715,10.1715 0 0 0 -2.0859,1.0527 l -2.3008,-3.4316 a 15.2076,15.2076 0 0 1 1.3261,-0.8574 10.0571,10.0571 0 0 1 1.754,-0.7793 14.197,14.197 0 0 1 2.2812,-0.5664 17.6193,17.6193 0 0 1 2.9063,-0.2149 q 4.1718,0 6.1621,2.2422 a 8.7519,8.7519 0 0 1 1.9882,6.0254 v 10.6484 h -5.2636 z m 0,-6.3574 c -0.1308,-0.0254 -0.3769,-0.0586 -0.7422,-0.0976 a 11.827,11.827 0 0 0 -1.248,-0.0567 6.1585,6.1585 0 0 0 -3.3145,0.6621 2.1318,2.1318 0 0 0 -0.9746,1.8711 q 0,2.2647 2.7305,2.2637 a 4.1276,4.1276 0 0 0 1.3066,-0.2148 3.6549,3.6549 0 0 0 1.1309,-0.6055 3.1086,3.1086 0 0 0 0.7988,-0.9746 2.8681,2.8681 0 0 0 0.3125,-1.3653 z"
       id="path108" />
    <path
       class="cls-3"
       d="m 314.0711,200.6281 a 6.2,6.2 0 0 0 1.0332,0.625 2.7957,2.7957 0 0 0 1.2285,0.2734 2.1148,2.1148 0 0 0 1.5019,-0.5664 5.4287,5.4287 0 0 0 1.15,-1.93 l 0.5469,-1.4824 -8.3457,-18.0957 h 6.3945 l 4.5645,11.543 4.1328,-11.543 h 5.9668 l -7.4883,18.1738 q -0.624,1.5206 -1.2285,3.0215 a 12.1438,12.1438 0 0 1 -1.4805,2.6914 7.0954,7.0954 0 0 1 -2.1465,1.9317 6.23,6.23 0 0 1 -3.1777,0.74 8.7452,8.7452 0 0 1 -2.6914,-0.3906 7.7791,7.7791 0 0 1 -2.2227,-1.1309 z"
       id="path110" />
  </g>
</svg>
