<?xml version="1.0" encoding="UTF-8" standalone="no"?>
<svg
   version="1.1"
   id="Layer_1"
   x="0px"
   y="0px"
   viewBox="0 0 200 200"
   xml:space="preserve"
   sodipodi:docname="FAIRDOMhub-full.svg"
   inkscape:version="1.2.2 (b0a8486541, 2022-12-01)"
   width="200"
   height="200"
   xmlns:inkscape="http://www.inkscape.org/namespaces/inkscape"
   xmlns:sodipodi="http://sodipodi.sourceforge.net/DTD/sodipodi-0.dtd"
   xmlns="http://www.w3.org/2000/svg"
   xmlns:svg="http://www.w3.org/2000/svg"
   xmlns:rdf="http://www.w3.org/1999/02/22-rdf-syntax-ns#"
   xmlns:cc="http://creativecommons.org/ns#"
   xmlns:dc="http://purl.org/dc/elements/1.1/"><metadata
   id="metadata107"><rdf:RDF><cc:Work
       rdf:about=""><dc:format>image/svg+xml</dc:format><dc:type
         rdf:resource="http://purl.org/dc/dcmitype/StillImage" /></cc:Work></rdf:RDF></metadata><defs
   id="defs105" /><sodipodi:namedview
   pagecolor="#ffffff"
   bordercolor="#666666"
   borderopacity="1"
   objecttolerance="10"
   gridtolerance="10"
   guidetolerance="10"
   inkscape:pageopacity="0"
   inkscape:pageshadow="2"
   inkscape:window-width="1920"
   inkscape:window-height="1552"
   id="namedview103"
   showgrid="false"
   inkscape:zoom="4.2497118"
   inkscape:cx="46.70905"
   inkscape:cy="47.41498"
   inkscape:window-x="3840"
   inkscape:window-y="0"
   inkscape:window-maximized="1"
   inkscape:current-layer="Layer_1"
   inkscape:showpageshadow="2"
   inkscape:pagecheckerboard="0"
   inkscape:deskcolor="#d1d1d1" />


<g
   id="g229"
   transform="translate(0,54.959)"><g
     id="g76">
	<g
   id="g4">
		<path
   style="fill:#666666;fill-opacity:0.962019"
   d="m 155.918,77.663 c -17.972,0 -32.593,-14.621 -32.593,-32.592 0,-17.972 14.621,-32.593 32.593,-32.593 17.972,0 32.593,14.621 32.593,32.593 0,17.971 -14.621,32.592 -32.593,32.592 z m 0,-62.898 c -12.65986,0 -23.53138,7.802468 -28.05839,18.851244 -1.44864,3.535597 -2.24761,7.403614 -2.24761,11.454756 0,16.71 13.595,30.305 30.306,30.305 16.711,0 30.306,-13.595 30.306,-30.305 0,-16.711 -13.595,-30.306 -30.306,-30.306 z"
   id="path2"
   sodipodi:nodetypes="sssssssssss" />
	</g>
	<g
   id="g26">
		<g
   id="g8">
			<path
   style="fill:#3b96d2"
   d="m 155.23,62.831 c -9.027,0 -16.371,-7.344 -16.371,-16.371 0,-9.027 7.344,-16.371 16.371,-16.371 9.027,0 16.371,7.344 16.371,16.371 0,9.027 -7.343,16.371 -16.371,16.371 z m 0,-31.6 c -8.396,0 -15.229,6.832 -15.229,15.229 0,8.397 6.832,15.229 15.229,15.229 8.397,0 15.229,-6.832 15.229,-15.229 0,-8.397 -6.832,-15.229 -15.229,-15.229 z"
   id="path6" />
		</g>
		<g
   id="g12">

				<rect
   x="154.659"
   y="16.075001"
   transform="matrix(0.7071,0.7071,-0.7071,0.7071,78.318,-96.1568)"
   style="fill:#3b96d2"
   width="1.1440001"
   height="60.77"
   id="rect10" />
		</g>
		<g
   id="g16">

				<rect
   x="124.174"
   y="45.888"
   transform="matrix(0.7071,0.7071,-0.7071,0.7071,78.318,-96.1568)"
   style="fill:#3b96d2"
   width="62.112"
   height="1.1440001"
   id="rect14" />
		</g>
		<g
   id="g20">
			<rect
   x="124.675"
   y="45.889"
   style="fill:#3b96d2"
   width="61.111"
   height="1.143"
   id="rect18" />
		</g>
		<g
   id="g24">
			<rect
   x="154.659"
   y="15.841"
   style="fill:#3b96d2"
   width="1.143"
   height="61.237"
   id="rect22" />
		</g>
	</g>
	<g
   id="g32">
		<circle
   style="fill:#3b97d2"
   cx="123.784"
   cy="45.041"
   r="4.3759999"
   id="circle28" />
		<path
   style="fill:#40586e"
   d="m 123.784,50.561 c -3.043,0 -5.52,-2.477 -5.52,-5.52 0,-3.043 2.477,-5.52 5.52,-5.52 3.043,0 5.52,2.477 5.52,5.52 0,3.043 -2.477,5.52 -5.52,5.52 z m 0,-8.752 c -1.782,0 -3.232,1.45 -3.232,3.232 0,1.782 1.45,3.232 3.232,3.232 1.782,0 3.232,-1.45 3.232,-3.232 0,-1.782 -1.45,-3.232 -3.232,-3.232 z"
   id="path30" />
	</g>
	<g
   id="g38">
		<circle
   style="fill:#3b97d2"
   cx="186.63499"
   cy="45.396"
   r="4.3759999"
   id="circle34" />
		<path
   style="fill:#40586e"
   d="m 186.635,50.916 c -3.043,0 -5.52,-2.477 -5.52,-5.52 0,-3.043 2.477,-5.52 5.52,-5.52 3.043,0 5.52,2.477 5.52,5.52 0,3.043 -2.477,5.52 -5.52,5.52 z m 0,-8.752 c -1.782,0 -3.232,1.45 -3.232,3.232 0,1.782 1.45,3.232 3.232,3.232 1.782,0 3.232,-1.45 3.232,-3.232 0,-1.782 -1.45,-3.232 -3.232,-3.232 z"
   id="path36" />
	</g>
	<g
   id="g44">
		<circle
   style="fill:#3b97d2"
   cx="177.351"
   cy="22.952999"
   r="4.3759999"
   id="circle40" />
		<path
   style="fill:#40586e"
   d="m 177.352,28.472 c -3.043,0 -5.52,-2.477 -5.52,-5.52 0,-3.043 2.477,-5.52 5.52,-5.52 3.043,0 5.52,2.477 5.52,5.52 0,3.043 -2.477,5.52 -5.52,5.52 z m 0,-8.751 c -1.782,0 -3.232,1.45 -3.232,3.232 0,1.782 1.45,3.232 3.232,3.232 1.782,0 3.232,-1.45 3.232,-3.232 0,-1.782 -1.45,-3.232 -3.232,-3.232 z"
   id="path42" />
	</g>
	<g
   id="g50">
		<circle
   style="fill:#3b97d2"
   cx="133.174"
   cy="67.184998"
   r="4.3759999"
   id="circle46" />
		<path
   style="fill:#40586e"
   d="m 133.174,72.705 c -3.043,0 -5.52,-2.477 -5.52,-5.52 0,-3.043 2.477,-5.52 5.52,-5.52 3.043,0 5.52,2.477 5.52,5.52 0,3.043 -2.477,5.52 -5.52,5.52 z m 0,-8.752 c -1.782,0 -3.232,1.45 -3.232,3.232 0,1.782 1.45,3.232 3.232,3.232 1.782,0 3.232,-1.45 3.232,-3.232 0,-1.782 -1.45,-3.232 -3.232,-3.232 z"
   id="path48" />
	</g>
	<g
   id="g56">
		<circle
   style="fill:#3b97d2"
   cx="177.351"
   cy="67.184998"
   r="4.3759999"
   id="circle52" />
		<path
   style="fill:#40586e"
   d="m 177.352,72.705 c -3.043,0 -5.52,-2.477 -5.52,-5.52 0,-3.043 2.477,-5.52 5.52,-5.52 3.043,0 5.52,2.477 5.52,5.52 0,3.043 -2.477,5.52 -5.52,5.52 z m 0,-8.752 c -1.782,0 -3.232,1.45 -3.232,3.232 0,1.782 1.45,3.232 3.232,3.232 1.782,0 3.232,-1.45 3.232,-3.232 0,-1.782 -1.45,-3.232 -3.232,-3.232 z"
   id="path54" />
	</g>
	<g
   id="g62">
		<circle
   style="fill:#3b97d2"
   cx="133.174"
   cy="22.952999"
   r="4.3759999"
   id="circle58" />
		<path
   style="fill:#40586e"
   d="m 133.174,28.472 c -3.043,0 -5.52,-2.477 -5.52,-5.52 0,-3.043 2.477,-5.52 5.52,-5.52 3.043,0 5.52,2.477 5.52,5.52 0,3.043 -2.477,5.52 -5.52,5.52 z m 0,-8.751 c -1.782,0 -3.232,1.45 -3.232,3.232 0,1.782 1.45,3.232 3.232,3.232 1.782,0 3.232,-1.45 3.232,-3.232 0,-1.782 -1.45,-3.232 -3.232,-3.232 z"
   id="path60" />
	</g>
	<g
   id="g68">
		<circle
   style="fill:#3b97d2"
   cx="155.23"
   cy="13.563"
   r="4.3759999"
   id="circle64" />
		<path
   style="fill:#40586e"
   d="m 155.23,19.083 c -3.043,0 -5.52,-2.477 -5.52,-5.52 0,-3.043 2.477,-5.52 5.52,-5.52 3.043,0 5.52,2.477 5.52,5.52 0,3.043 -2.477,5.52 -5.52,5.52 z m 0,-8.752 c -1.782,0 -3.232,1.45 -3.232,3.232 0,1.782 1.45,3.232 3.232,3.232 1.782,0 3.232,-1.45 3.232,-3.232 0,-1.782 -1.449,-3.232 -3.232,-3.232 z"
   id="path66" />
	</g>
	<g
   id="g74">
		<circle
   style="fill:#3b97d2"
   cx="155.23"
   cy="76.519997"
   r="4.3759999"
   id="circle70" />
		<path
   style="fill:#40586e"
   d="m 155.23,82.039 c -3.043,0 -5.52,-2.477 -5.52,-5.52 0,-3.043 2.477,-5.52 5.52,-5.52 3.043,0 5.52,2.477 5.52,5.52 0,3.043 -2.477,5.52 -5.52,5.52 z m 0,-8.752 c -1.782,0 -3.232,1.45 -3.232,3.232 0,1.782 1.45,3.232 3.232,3.232 1.782,0 3.232,-1.45 3.232,-3.232 0,-1.782 -1.449,-3.232 -3.232,-3.232 z"
   id="path72" />
	</g>
</g><g
     id="g92">
	<path
   style="fill:#3b97d2"
   d="M 14.2,40.472 V 43.98 H 21 v 3.031 h -6.8 v 5.587 H 10.345 V 37.44 h 11.24 v 3.032 H 14.2 Z"
   id="path78" />
	<path
   style="fill:#3b97d2"
   d="m 26.133,49.805 -1.105,2.794 h -3.963 l 6.54,-15.159 h 3.963 l 6.388,15.159 h -4.115 l -1.083,-2.794 z m 3.335,-8.532 -2.209,5.609 h 4.375 z"
   id="path80" />
	<path
   style="fill:#3b97d2"
   d="M 39.366,52.599 V 37.44 h 3.855 v 15.159 z"
   id="path82" />
	<path
   style="fill:#3b97d2"
   d="m 53.141,48.333 h -0.109 -2.923 v 4.266 H 46.254 V 37.44 h 6.779 c 4.007,0 6.302,1.906 6.302,5.284 0,2.317 -0.975,3.985 -2.75,4.873 l 3.183,5.002 h -4.375 z m -0.109,-3.032 c 1.668,0 2.642,-0.844 2.642,-2.448 0,-1.581 -0.975,-2.382 -2.642,-2.382 H 50.109 V 45.3 h 2.923 z"
   id="path84" />
	<path
   style="fill:#666666;fill-opacity:0.962019"
   d="m 68.453,37.44 c 4.765,0 8.056,3.075 8.056,7.58 0,4.483 -3.335,7.58 -8.207,7.58 H 61.935 V 37.44 Z M 65.79,49.524 h 2.75 c 2.361,0 4.049,-1.82 4.049,-4.483 0,-2.685 -1.776,-4.526 -4.222,-4.526 H 65.79 Z"
   id="path86" />
	<path
   style="fill:#666666;fill-opacity:0.962019"
   d="m 93.664,44.998 c 0,4.418 -3.508,7.775 -8.208,7.775 -4.677,0 -8.186,-3.335 -8.186,-7.775 0,-4.418 3.508,-7.688 8.186,-7.688 4.699,0 8.208,3.292 8.208,7.688 z M 81.211,45.02 c 0,2.555 1.97,4.526 4.288,4.526 2.339,0 4.201,-1.97 4.201,-4.526 0,-2.556 -1.862,-4.483 -4.201,-4.483 -2.339,0 -4.288,1.927 -4.288,4.483 z"
   id="path88" />
	<path
   style="fill:#666666;fill-opacity:0.962019"
   d="m 108.954,52.599 -0.022,-9.853 -3.638,8.338 h -2.512 l -3.638,-8.338 v 9.853 H 95.7 V 37.418 h 4.223 l 4.115,9.031 4.115,-9.031 h 4.201 v 15.181 z"
   id="path90" />
</g><g
     id="g100">
	<path
   style="fill:#666666;fill-opacity:0.962019"
   d="m 143.55,51.657 v -5.2 h -5.544 v 5.2 h -3.403 V 38.273 h 3.403 v 5.507 h 5.544 v -5.507 h 3.403 v 13.383 h -3.403 z"
   id="path94" />
	<path
   style="fill:#666666;fill-opacity:0.962019"
   d="m 161.672,46.036 c 0,3.537 -2.351,5.773 -6.099,5.773 -3.766,0 -6.175,-2.237 -6.175,-5.773 v -7.762 h 3.403 v 7.762 c 0,1.816 1.167,2.926 2.792,2.926 1.606,0 2.696,-1.11 2.696,-2.926 v -7.762 h 3.384 v 7.762 z"
   id="path96" />
	<path
   style="fill:#666666;fill-opacity:0.962019"
   d="m 170.445,38.273 c 3.001,0 4.914,1.3 4.914,3.347 0,1.414 -0.88,2.542 -2.294,2.944 1.683,0.324 2.753,1.644 2.753,3.384 0,2.274 -1.988,3.708 -5.143,3.708 h -6.557 V 38.273 Z m -2.944,5.355 h 2.753 c 0.994,0 1.625,-0.536 1.625,-1.397 0,-0.86 -0.631,-1.358 -1.625,-1.358 h -2.753 z m 0,5.41 h 2.753 c 1.262,0 2.046,-0.555 2.046,-1.51 0,-0.899 -0.784,-1.453 -2.046,-1.453 h -2.753 z"
   id="path98" />
</g></g>
</svg>
