<?xml version="1.0" encoding="UTF-8" standalone="no"?>
<svg
   xmlns:dc="http://purl.org/dc/elements/1.1/"
   xmlns:cc="http://creativecommons.org/ns#"
   xmlns:rdf="http://www.w3.org/1999/02/22-rdf-syntax-ns#"
   xmlns:svg="http://www.w3.org/2000/svg"
   xmlns="http://www.w3.org/2000/svg"
   xmlns:sodipodi="http://sodipodi.sourceforge.net/DTD/sodipodi-0.dtd"
   xmlns:inkscape="http://www.inkscape.org/namespaces/inkscape"
   inkscape:version="1.0 (4035a4fb49, 2020-05-01)"
   sodipodi:docname="biobank_NO.svg"
   id="svg61"
   version="1.1"
   viewBox="0 0 254 63"
   height="63px"
   width="254px">
  <metadata
     id="metadata67">
    <rdf:RDF>
      <cc:Work
         rdf:about="">
        <dc:format>image/svg+xml</dc:format>
        <dc:type
           rdf:resource="http://purl.org/dc/dcmitype/StillImage" />
        <dc:title>Group</dc:title>
      </cc:Work>
    </rdf:RDF>
  </metadata>
  <defs
     id="defs65" />
  <sodipodi:namedview
     inkscape:current-layer="07_article"
     inkscape:window-maximized="1"
     inkscape:window-y="30"
     inkscape:window-x="3600"
     inkscape:cy="103.29737"
     inkscape:cx="132.4804"
     inkscape:zoom="2"
     showgrid="false"
     id="namedview63"
     inkscape:window-height="1025"
     inkscape:window-width="1680"
     inkscape:pageshadow="2"
     inkscape:pageopacity="0"
     guidetolerance="10"
     gridtolerance="10"
     objecttolerance="10"
     borderopacity="1"
     bordercolor="#666666"
     pagecolor="#ffffff" />
  <!-- Generator: Sketch 52.3 (67297) - http://www.bohemiancoding.com/sketch -->
  <title
     id="title2">Group</title>
  <desc
     id="desc4">Created with Sketch.</desc>
  <g
     fill-rule="evenodd"
     fill="none"
     stroke-width="1"
     stroke="none"
     id="Webdesign-v2">
    <g
       transform="translate(-129.000000, -10.000000)"
       id="07_article">
      <circle
         r="2.6388316"
         cy="-54.374142"
         cx="132.9762"
         transform="rotate(45)"
         fill="#1ae3e2"
         id="circle23" />
      <circle
         r="2.6388316"
         cy="-54.289444"
         cx="152.93515"
         transform="rotate(45)"
         fill="#1ae3e2"
         id="circle25" />
      <path
         style="fill:#000000;fill-opacity:0.7019608"
         fill="#ffffff"
         id="path31"
         d="m 151.89275,45.579217 4.47337,4.511494 c 0.33775,0.340584 0.33773,0.889799 0,1.230408 v 0 c -0.33406,0.336887 -0.87796,0.339204 -1.21486,0.0052 -0.002,-0.0017 -0.003,-0.0035 -0.005,-0.0052 l -4.47337,-4.511494 c -0.33775,-0.340584 -0.33773,-0.889799 0,-1.230407 v 0 c 0.33406,-0.336887 0.87796,-0.339205 1.21486,-0.0052 0.002,0.0017 0.003,0.0035 0.005,0.0052 z" />
      <path
         style="fill:#000000;fill-opacity:0.7019608"
         fill="#1ae3e2"
         id="path43"
         d="m 179.90671,17.158246 4.47336,4.511495 c 0.33776,0.340583 0.33773,0.889798 0,1.230408 v 0 c -0.33405,0.336887 -0.87795,0.339204 -1.21485,0.0052 -0.002,-0.0017 -0.003,-0.0035 -0.005,-0.0052 l -4.47337,-4.511495 c -0.33775,-0.340584 -0.33773,-0.889798 0,-1.230408 v 0 c 0.33406,-0.336886 0.87796,-0.339204 1.21486,-0.0052 0.002,0.0017 0.003,0.0035 0.005,0.0052 z" />
      <g
         style="fill:#000000;fill-opacity:0.70026988"
         id="Group-8"
         transform="translate(169.89822,31.853619)"
         fill="#ffffff">
        <path
           style="fill:#000000;fill-opacity:0.70026988"
           d="m 6.4551022,16.761475 c 1.867798,0 3.0877697,-1.009691 3.0877697,-2.640301 0,-1.579261 -1.0638534,-2.692511 -2.9839791,-2.692511 H 3.2894896 v 5.332812 z M 6.1177828,8.8138196 c 1.8163351,0 2.9057037,-1.0351499 2.9057037,-2.5626324 0,-1.5538036 -1.0893686,-2.5634954 -2.9835466,-2.5634954 H 3.2894896 V 8.8138196 Z M 6.5329452,1.0473907 c 3.5288798,0 5.6046908,2.0711628 5.6046908,4.9444696 0,1.9417152 -1.142128,3.3915291 -2.7245023,3.9610989 1.9460733,0.5177908 3.2949183,2.2001788 3.2949183,4.3748998 0,2.951407 -2.28296,5.074349 -5.7080493,5.074349 H 0.20171998 V 1.0473907 Z"
           id="Fill-15-Copy" />
        <polygon
           style="fill:#000000;fill-opacity:0.70026988"
           id="Fill-16-Copy"
           points="20.211851,6.8875598 16.876829,6.8875598 16.876829,19.402208 20.211851,19.402208 " />
        <path
           style="fill:#000000;fill-opacity:0.70026988"
           d="m 34.62994,12.714603 c 0,-2.607907 -1.69068,-3.9505924 -3.592696,-3.9505924 -1.875599,0 -3.592257,1.3426854 -3.592257,3.9505924 0,2.607908 1.716658,4.002235 3.592257,4.002235 1.902016,0 3.592696,-1.368506 3.592696,-4.002235 m 3.090776,0 c 0,3.87313 -2.826607,6.687605 -6.683472,6.687605 -3.830009,0 -6.656615,-2.814475 -6.656615,-6.687605 0,-3.8468786 2.826606,-6.6613531 6.656615,-6.6613531 3.856865,0 6.683472,2.8144745 6.683472,6.6613531"
           id="Fill-17-Copy" />
        <path
           style="fill:#000000;fill-opacity:0.70026988"
           d="m 48.505533,8.7386364 c -2.006504,0 -3.552054,1.4340356 -3.552054,3.9631516 0,2.503043 1.54555,4.014863 3.552054,4.014863 2.060734,0 3.551603,-1.51182 3.551603,-4.014863 0,-2.529116 -1.464206,-3.9631516 -3.551603,-3.9631516 z M 41.889493,19.089327 V 0.21308081 h 3.091101 V 7.9564355 c 0.59698,-0.9903533 2.114964,-1.9033556 4.148582,-1.9033556 3.958778,0 6.100405,2.8941434 6.100405,6.6226341 0,3.832785 -2.358998,6.726494 -6.208864,6.726494 -1.87093,0 -3.30802,-0.782201 -4.067238,-2.007215 v 1.694334 z"
           id="Fill-18-Copy" />
        <path
           style="fill:#000000;fill-opacity:0.70026988"
           d="m 66.364688,13.79926 v -0.56804 l -3.216443,0.49015 c -0.911748,0.15535 -1.646211,0.671751 -1.646211,1.704122 0,0.852492 0.633158,1.627093 1.798169,1.627093 1.646211,0 3.064485,-0.800852 3.064485,-3.253325 m -4.077538,-1.988142 3.16579,-0.490581 c 0.709137,-0.10328 0.911748,-0.464761 0.911748,-0.903701 0,-1.0586216 -0.70956,-1.9106828 -2.330444,-1.9106828 -1.544484,0 -2.405579,1.0069814 -2.53221,2.2717328 l -2.68459,-0.619251 c 0.227937,-2.1688825 2.152737,-4.1053851 5.191896,-4.1053851 3.798948,0 5.242548,2.1951333 5.242548,4.6992461 v 6.248018 c 0,1.136082 0.126632,1.884863 0.151536,2.013963 h -2.734821 c -0.02575,-0.07746 -0.126631,-0.593861 -0.126631,-1.600842 -0.582506,0.955341 -1.798169,1.988573 -3.798948,1.988573 -2.583285,0 -4.178421,-1.807833 -4.178421,-3.795976 0,-2.246343 1.620462,-3.485274 3.722547,-3.795114"
           id="Fill-19-Copy" />
        <path
           style="fill:#000000;fill-opacity:0.70026988"
           d="M 77.533141,19.402208 H 74.405957 V 6.4262871 h 3.04586 v 1.7319584 c 0.862671,-1.4921488 2.426713,-2.1049956 3.882022,-2.1049956 3.20851,0 4.744694,2.2915142 4.744694,5.1425841 v 8.206374 h -3.126735 v -7.673464 c 0,-1.598731 -0.728329,-2.8777152 -2.695849,-2.8777152 -1.77926,0 -2.722808,1.3589212 -2.722808,3.0642342 z"
           id="Fill-20-Copy" />
        <polygon
           style="fill:#000000;fill-opacity:0.70026988"
           id="Fill-21-Copy"
           points="99.150531,19.402208 95.521619,14.128047 93.998999,15.797896 93.998999,19.402208 91.081066,19.402208 91.081066,0.21308081 93.998999,0.21308081 93.998999,11.716043 98.744499,6.4948937 102.65214,6.4948937 97.577157,11.954593 102.75364,19.402208 " />
        <polygon
           style="fill:#000000;fill-opacity:0.70026988"
           id="Fill-22-Copy"
           points="117.6212,19.402208 114.42622,19.402208 114.42622,1.0473907 118.49938,1.0473907 127.07259,14.069395 127.07259,1.0473907 130.26757,1.0473907 130.26757,19.402208 126.93946,19.402208 117.6212,5.4999592 " />
        <path
           style="fill:#000000;fill-opacity:0.70026988"
           d="m 144.68566,12.714603 c 0,-2.607907 -1.69068,-3.9505924 -3.59269,-3.9505924 -1.8756,0 -3.59226,1.3426854 -3.59226,3.9505924 0,2.607908 1.71666,4.002235 3.59226,4.002235 1.90201,0 3.59269,-1.368506 3.59269,-4.002235 m 3.09078,0 c 0,3.87313 -2.82661,6.687605 -6.68347,6.687605 -3.83001,0 -6.65662,-2.814475 -6.65662,-6.687605 0,-3.8468786 2.82661,-6.6613531 6.65662,-6.6613531 3.85686,0 6.68347,2.8144745 6.68347,6.6613531"
           id="Fill-23-Copy" />
        <path
           style="fill:#000000;fill-opacity:0.70026988"
           d="m 159.44901,9.3296769 c -0.34227,-0.054156 -0.68499,-0.081234 -1.0005,-0.081234 -2.36962,0 -3.44912,1.4080521 -3.44912,3.8721411 v 6.281624 h -3.05418 V 6.2161687 h 2.9752 v 2.1116256 c 0.606,-1.4346779 2.02734,-2.2745444 3.7124,-2.2745444 0.36817,0 0.68456,0.054156 0.8162,0.081685 z"
           id="Fill-24-Copy" />
        <polygon
           style="fill:#000000;fill-opacity:0.70026988"
           id="Fill-25-Copy"
           points="179.67274,6.8875598 182.79417,6.8875598 178.66754,19.402208 175.59902,19.402208 172.39868,10.408228 169.27769,19.402208 166.12982,19.402208 161.95028,6.8875598 165.23042,6.8875598 167.8488,15.547462 170.89087,6.8875598 174.0652,6.8875598 177.10683,15.547462 " />
        <path
           style="fill:#000000;fill-opacity:0.70026988"
           d="m 193.09521,13.79926 v -0.56804 l -3.21589,0.49015 c -0.91171,0.15535 -1.64657,0.671751 -1.64657,1.704122 0,0.852492 0.63313,1.627093 1.7981,1.627093 1.64657,0 3.06436,-0.800852 3.06436,-3.253325 m -4.07695,-1.988142 3.16566,-0.490581 c 0.70911,-0.10328 0.91129,-0.464761 0.91129,-0.903701 0,-1.0586216 -0.7091,-1.9106828 -2.32993,-1.9106828 -1.54484,0 -2.40548,1.0069814 -2.53253,2.2717328 l -2.68406,-0.619251 c 0.22792,-2.1688825 2.15265,-4.1053851 5.19169,-4.1053851 3.79838,0 5.24192,2.1951333 5.24192,4.6992461 v 6.248018 c 0,1.136082 0.12705,1.884863 0.15195,2.013963 h -2.73471 c -0.0257,-0.07746 -0.12705,-0.593861 -0.12705,-1.600842 -0.58248,0.955341 -1.7981,1.988573 -3.79838,1.988573 -2.58318,0 -4.17868,-1.807833 -4.17868,-3.795976 0,-2.246343 1.62082,-3.485274 3.72283,-3.795114"
           id="Fill-26-Copy" />
        <polygon
           style="fill:#000000;fill-opacity:0.70026988"
           id="Fill-27-Copy"
           points="198.63552,6.8875598 202.17201,6.8875598 205.95194,15.15255 209.48843,6.8875598 212.80936,6.8875598 204.43997,25.242377 201.09203,25.242377 204.25097,18.399686 " />
      </g>
      <circle
         r="2.6388316"
         cy="-74.252602"
         cx="152.85043"
         transform="rotate(45)"
         fill="#1ae3e2"
         id="circle28" />
      <path
         style="fill:#000000;fill-opacity:0.7019608"
         fill="#ffffff"
         id="path33"
         d="m 142.41372,46.788737 -4.47336,4.511495 c -0.33406,0.336886 -0.87796,0.339204 -1.21486,0.0052 -0.002,-0.0017 -0.003,-0.0035 -0.005,-0.0052 v 0 c -0.33775,-0.340583 -0.33773,-0.889799 0,-1.230408 l 4.47337,-4.511494 c 0.33406,-0.336887 0.87796,-0.339205 1.21485,-0.0052 0.002,0.0017 0.003,0.0035 0.005,0.0052 v 0 c 0.33773,0.340612 0.33773,0.889799 0,1.230408 z" />
      <path
         style="fill:#000000;fill-opacity:0.7019608"
         fill="#ffffff"
         id="Rectangle-4-Copy-2"
         d="m 156.43895,60.933508 -4.47336,4.511494 c -0.33406,0.336887 -0.87796,0.339205 -1.21486,0.0052 -0.002,-0.0017 -0.003,-0.0035 -0.005,-0.0052 v 0 c -0.33775,-0.340583 -0.33773,-0.889798 0,-1.230406 l 4.47337,-4.511495 c 0.33406,-0.336887 0.87796,-0.339205 1.21485,-0.0052 0.002,0.0017 0.003,0.0035 0.005,0.0052 v 0 c 0.33775,0.340584 0.33773,0.889799 -1e-5,1.230408 z" />
      <path
         style="fill:#000000;fill-opacity:0.7019608"
         fill="#ffffff"
         id="Rectangle-4-Copy"
         d="m 137.83657,59.755198 4.47337,4.511495 c 0.33775,0.340583 0.33773,0.889798 0,1.230407 v 0 c -0.33406,0.336887 -0.87796,0.339204 -1.21486,0.0052 -0.002,-0.0017 -0.003,-0.0035 -0.005,-0.0052 L 136.61655,60.9856 c -0.33775,-0.340584 -0.33773,-0.889799 0,-1.230408 v 0 c 0.33406,-0.336894 0.87796,-0.339204 1.21486,-0.0052 0.002,0.0017 0.003,0.0034 0.005,0.0052 z" />
      <circle
         r="2.6388316"
         cy="-114.24281"
         cx="132.60368"
         transform="rotate(45)"
         fill="#1ae3e2"
         id="circle39" />
      <path
         style="fill:#000000;fill-opacity:0.7019608"
         fill="#ffffff"
         id="path47"
         d="m 170.42769,18.367767 -4.47337,4.511495 c -0.33406,0.336886 -0.87796,0.339204 -1.21485,0.0052 -0.002,-0.0017 -0.003,-0.0035 -0.005,-0.0052 v 0 c -0.33775,-0.340584 -0.33773,-0.889798 0,-1.230407 l 4.47337,-4.511494 c 0.33406,-0.336887 0.87796,-0.339205 1.21486,-0.0052 0.002,0.0017 0.003,0.0035 0.005,0.0052 v 0 c 0.33775,0.340584 0.33773,0.889798 0,1.230407 z" />
      <circle
         r="2.6388316"
         cy="-114.07679"
         cx="152.48553"
         transform="rotate(45)"
         fill="#1ae3e2"
         id="circle49" />
      <circle
         r="2.6388316"
         cy="-74.386101"
         cx="132.83849"
         transform="rotate(45)"
         fill="#1ae3e2"
         id="circle51" />
      <circle
         r="2.6388316"
         cy="-94.349258"
         cx="132.75377"
         transform="rotate(45)"
         fill="#1ae3e2"
         id="circle53" />
      <path
         style="fill:#000000;fill-opacity:0.7019608"
         fill="#ffffff"
         id="path55"
         d="m 156.43895,32.512541 -4.47336,4.511494 c -0.33406,0.336887 -0.87796,0.339205 -1.21486,0.0052 -0.002,-0.0017 -0.003,-0.0035 -0.005,-0.0052 v 0 c -0.33775,-0.340584 -0.33773,-0.889799 0,-1.230407 l 4.47337,-4.511495 c 0.33406,-0.336887 0.87796,-0.339205 1.21485,-0.0052 0.002,0.0017 0.003,0.0035 0.005,0.0052 v 0 c 0.33775,0.340585 0.33773,0.889799 0,1.230409 z" />
    </g>
  </g>
</svg>
