<?xml version="1.0" encoding="UTF-8" standalone="no"?>
<svg
   xmlns:dc="http://purl.org/dc/elements/1.1/"
   xmlns:cc="http://creativecommons.org/ns#"
   xmlns:rdf="http://www.w3.org/1999/02/22-rdf-syntax-ns#"
   xmlns:svg="http://www.w3.org/2000/svg"
   xmlns="http://www.w3.org/2000/svg"
   xmlns:sodipodi="http://sodipodi.sourceforge.net/DTD/sodipodi-0.dtd"
   xmlns:inkscape="http://www.inkscape.org/namespaces/inkscape"
   width="274"
   height="124"
   viewBox="0 0 274 124"
   fill="none"
   version="1.1"
   id="svg40"
   sodipodi:docname="napi-logo-grey.svg"
   inkscape:version="1.0.1 (3bc2e813f5, 2020-09-07)">
  <metadata
     id="metadata46">
    <rdf:RDF>
      <cc:Work
         rdf:about="">
        <dc:format>image/svg+xml</dc:format>
        <dc:type
           rdf:resource="http://purl.org/dc/dcmitype/StillImage" />
        <dc:title></dc:title>
      </cc:Work>
    </rdf:RDF>
  </metadata>
  <defs
     id="defs44" />
  <sodipodi:namedview
     pagecolor="#ffffff"
     bordercolor="#666666"
     borderopacity="1"
     objecttolerance="10"
     gridtolerance="10"
     guidetolerance="10"
     inkscape:pageopacity="0"
     inkscape:pageshadow="2"
     inkscape:window-width="1680"
     inkscape:window-height="1002"
     id="namedview42"
     showgrid="false"
     inkscape:zoom="1.9109948"
     inkscape:cx="126.82531"
     inkscape:cy="50.285251"
     inkscape:window-x="3600"
     inkscape:window-y="30"
     inkscape:window-maximized="1"
     inkscape:current-layer="svg40" />
  <path
     d="M15.52 57.65V89.97C15.52 93.66 12.29 96.9 8.13 96.9C3.97001 96.9 0.73999 93.67 0.73999 89.97V37.33C0.73999 33.64 3.97 30.4 8.59 30.4C12.75 30.4 15.33 33.17 17.83 36.86L39.53 69.65H40.45V37.33C40.45 33.64 43.68 30.4 47.84 30.4C52 30.4 55.23 33.63 55.23 37.33V89.97C55.23 93.76 52 96.9 47.38 96.9C43.22 96.9 40.64 94.13 38.14 90.43L16.44 57.64H15.52V57.65Z"
     fill="white"
     id="path2"
     style="fill:#666666" />
  <path
     d="M98.32 90.8999C96.84 94.9599 94.63 97.3699 90.47 97.3699C86.31 97.3699 83.08 94.14 83.08 90.44C83.08 88.13 84.93 83.51 84.93 83.51L102.48 38.2599C104.42 33.1799 107.56 29.95 113.56 29.95C119.56 29.95 122.7 33.1799 124.64 38.2599L142.19 83.51C142.19 83.51 144.04 88.13 144.04 90.44C144.04 94.13 140.81 97.3699 136.65 97.3699C132.49 97.3699 130.28 94.9699 128.8 90.8999L125.57 82.13H101.56L98.32 90.8999ZM121.41 69.19L114.02 47.49H113.1L105.71 69.19H121.41Z"
     fill="white"
     id="path4"
     style="fill:#666666" />
  <path
     d="M189.91 75.2V89.52C189.91 93.21 186.68 96.45 182.52 96.45C178.36 96.45 175.13 93.22 175.13 89.52V37.8C175.13 34.11 178.36 30.87 182.52 30.87H200.53C217.62 30.87 226.85 40.11 226.85 53.03C226.85 65.96 217.61 75.19 200.53 75.19H189.91V75.2ZM200.53 62.27C207.92 62.27 211.61 58.58 211.61 53.03C211.61 47.49 207.92 43.8 200.53 43.8H189.91V62.27H200.53Z"
     fill="white"
     id="path6"
     style="fill:#666666" />
  <path
     d="M273.33 89.97C273.33 93.66 270.1 96.9 265.94 96.9C261.78 96.9 258.55 93.67 258.55 89.97V37.33C258.55 33.64 261.78 30.4 265.94 30.4C270.1 30.4 273.33 33.63 273.33 37.33V89.97Z"
     fill="white"
     id="path8"
     style="fill:#666666" />
  <path
     d="M155.15 22.48C154.88 22.48 154.61 22.37 154.42 22.16C154.04 21.75 154.07 21.12 154.48 20.75L170.04 6.39998C170.45 6.02998 171.08 6.04999 171.45 6.45999C171.83 6.86999 171.8 7.49998 171.39 7.86998L155.83 22.22C155.64 22.39 155.4 22.48 155.15 22.48Z"
     fill="white"
     id="path10"
     style="fill:#666666" />
  <path
     d="M139.59 119.05C139.32 119.05 139.05 118.94 138.85 118.73C138.48 118.32 138.5 117.69 138.91 117.32L154.47 103.07C154.88 102.7 155.51 102.73 155.88 103.13C156.25 103.54 156.22 104.17 155.82 104.54L140.26 118.79C140.08 118.96 139.83 119.05 139.59 119.05Z"
     fill="white"
     id="path12"
     style="fill:#666666" />
  <path
     d="M155.15 104.8C154.6 104.8 154.15 104.35 154.15 103.8V21.4C154.15 20.85 154.6 20.4 155.15 20.4C155.7 20.4 156.15 20.85 156.15 21.4V103.8C156.15 104.35 155.71 104.8 155.15 104.8Z"
     fill="white"
     id="path14"
     style="fill:#666666" />
  <path
     d="M71.6 22.37C71.33 22.37 71.06 22.26 70.86 22.05C70.49 21.64 70.51 21.01 70.92 20.64L86.48 6.38999C86.89 6.01999 87.52 6.04998 87.89 6.44998C88.26 6.85998 88.24 7.48999 87.83 7.85999L72.27 22.11C72.08 22.29 71.84 22.37 71.6 22.37Z"
     fill="white"
     id="path16"
     style="fill:#666666" />
  <path
     d="M55.96 119.15C55.69 119.15 55.42 119.04 55.22 118.83C54.85 118.42 54.87 117.79 55.28 117.42L70.84 103.17C71.25 102.8 71.88 102.82 72.25 103.23C72.62 103.64 72.6 104.27 72.19 104.64L56.63 118.89C56.44 119.06 56.2 119.15 55.96 119.15Z"
     fill="white"
     id="path18"
     style="fill:#666666" />
  <path
     d="M71.6 104.8C71.05 104.8 70.6 104.35 70.6 103.8V21.4C70.6 20.85 71.05 20.4 71.6 20.4C72.15 20.4 72.6 20.85 72.6 21.4V103.8C72.6 104.35 72.15 104.8 71.6 104.8Z"
     fill="white"
     id="path20"
     style="fill:#666666" />
  <path
     d="M239.99 22.37C239.72 22.37 239.45 22.26 239.25 22.05C238.88 21.64 238.91 21.01 239.31 20.64L254.87 6.38999C255.28 6.01999 255.91 6.04998 256.28 6.44998C256.65 6.85998 256.62 7.48999 256.22 7.85999L240.66 22.11C240.47 22.29 240.23 22.37 239.99 22.37Z"
     fill="white"
     id="path22"
     style="fill:#666666" />
  <path
     d="M224.43 119.12C224.16 119.12 223.89 119.01 223.69 118.8C223.32 118.39 223.35 117.76 223.75 117.39L239.31 103.14C239.72 102.77 240.35 102.8 240.72 103.2C241.09 103.61 241.06 104.24 240.66 104.61L225.1 118.86C224.91 119.03 224.67 119.12 224.43 119.12Z"
     fill="white"
     id="path24"
     style="fill:#666666" />
  <path
     d="M239.99 104.8C239.44 104.8 238.99 104.35 238.99 103.8V21.4C238.99 20.85 239.44 20.4 239.99 20.4C240.54 20.4 240.99 20.85 240.99 21.4V103.8C240.99 104.35 240.54 104.8 239.99 104.8Z"
     fill="white"
     id="path26"
     style="fill:#666666" />
  <path
     d="M87.15 13.63C90.7398 13.63 93.65 10.7199 93.65 7.13C93.65 3.54015 90.7398 0.630005 87.15 0.630005C83.5601 0.630005 80.65 3.54015 80.65 7.13C80.65 10.7199 83.5601 13.63 87.15 13.63Z"
     fill="#6E8AC6"
     id="path28" />
  <path
     d="M170.71 13.63C174.3 13.63 177.21 10.7199 177.21 7.13C177.21 3.54015 174.3 0.630005 170.71 0.630005C167.12 0.630005 164.21 3.54015 164.21 7.13C164.21 10.7199 167.12 13.63 170.71 13.63Z"
     fill="#6E8AC6"
     id="path30" />
  <path
     d="M255.55 13.63C259.14 13.63 262.05 10.7199 262.05 7.13C262.05 3.54015 259.14 0.630005 255.55 0.630005C251.96 0.630005 249.05 3.54015 249.05 7.13C249.05 10.7199 251.96 13.63 255.55 13.63Z"
     fill="#6E8AC6"
     id="path32" />
  <path
     d="M56.48 123.8C60.0698 123.8 62.98 120.89 62.98 117.3C62.98 113.71 60.0698 110.8 56.48 110.8C52.8901 110.8 49.98 113.71 49.98 117.3C49.98 120.89 52.8901 123.8 56.48 123.8Z"
     fill="#F3736F"
     id="path34" />
  <path
     d="M140.03 123.8C143.62 123.8 146.53 120.89 146.53 117.3C146.53 113.71 143.62 110.8 140.03 110.8C136.44 110.8 133.53 113.71 133.53 117.3C133.53 120.89 136.44 123.8 140.03 123.8Z"
     fill="#F3736F"
     id="path36" />
  <path
     d="M224.87 123.8C228.46 123.8 231.37 120.89 231.37 117.3C231.37 113.71 228.46 110.8 224.87 110.8C221.28 110.8 218.37 113.71 218.37 117.3C218.37 120.89 221.28 123.8 224.87 123.8Z"
     fill="#F3736F"
     id="path38" />
</svg>
