<?xml version="1.0" encoding="utf-8"?>
<!-- Generator: Adobe Illustrator 16.0.0, SVG Export Plug-In . SVG Version: 6.00 Build 0)  -->
<!DOCTYPE svg PUBLIC "-//W3C//DTD SVG 1.1//EN" "http://www.w3.org/Graphics/SVG/1.1/DTD/svg11.dtd">
<svg version="1.1" id="Layer_1" xmlns="http://www.w3.org/2000/svg" xmlns:xlink="http://www.w3.org/1999/xlink" x="0px" y="0px"
	 width="465px" height="92px" viewBox="0 0 465 92" enable-background="new 0 0 465 92" xml:space="preserve">
<text transform="matrix(1 0 0 1 -341.9473 10.3989)" font-family="'Chalkduster'" font-size="30">NOR-openscreen</text>
<text transform="matrix(1 0 0 1 -928.3159 4.2417)" font-family="'Zapfino'" font-size="30">NOR-openscreen</text>
<text transform="matrix(1 0 0 1 -305.7891 -88.8472)" font-family="'Consolas'" font-size="30">NOR-openscreen</text>
<text transform="matrix(1 0 0 1 -375 -149.7046)" font-family="'EurostileRegular'" font-size="30">NOR-openscreen</text>
<text transform="matrix(1 0 0 1 -361.5156 104.3984)" font-family="'HoboStd'" font-size="30">NOR-openscreen</text>
<text transform="matrix(1 0 0 1 -704.3687 134.873)" font-family="'Kefa-Regular'" font-size="30">NOR-openscreen</text>
<text transform="matrix(1 0 0 1 -394.1582 224.3477)" font-family="'Krungthep'" font-size="30">NOR-openscreen</text>
<text transform="matrix(1 0 0 1 -671.2632 218.4531)" font-family="'Menlo-Regular'" font-size="30">NOR-openscreen</text>
<text transform="matrix(1 0 0 1 -732.7896 -105.2847)" font-family="'OCRAStd'" font-size="30">NOR-openscreen</text>
<g>
	<path fill="#1A4684" d="M28.018,62.326v-27.75h1.443l17.057,15.429V34.576h3.109v27.75h-1.406l-17.094-15.43v15.43H28.018z"/>
	<path fill="#1A4684" d="M61.947,34.576h6.18c1.676,0,3.119,0.61,4.328,1.832s1.813,2.67,1.813,4.348v15.392
		c0,1.678-0.604,3.127-1.813,4.348s-2.652,1.832-4.328,1.832h-6.18c-1.678,0-3.127-0.604-4.348-1.813
		c-1.221-1.208-1.832-2.664-1.832-4.366V40.755c0-1.702,0.611-3.157,1.832-4.366C58.82,35.18,60.27,34.576,61.947,34.576z
		 M61.947,40.755v15.392c0,0.839,0.302,1.566,0.906,2.184s1.326,0.925,2.164,0.925c0.863,0,1.598-0.308,2.202-0.925
		s0.907-1.345,0.907-2.184V40.755c0-0.863-0.303-1.597-0.907-2.202c-0.604-0.604-1.339-0.907-2.202-0.907
		c-0.838,0-1.56,0.303-2.164,0.907C62.249,39.158,61.947,39.892,61.947,40.755z"/>
	<path fill="#1A4684" d="M80.447,62.326v-27.75h12.357c1.678,0,3.121,0.61,4.329,1.832s1.813,2.67,1.813,4.348v1.665
		c0,1.381-0.469,2.707-1.406,3.977c-0.938,1.271-2.516,1.906-4.736,1.906h3.071c0.839,0,1.56,0.303,2.165,0.906
		c0.604,0.605,0.906,1.338,0.906,2.201v10.916h-6.143v-9.25c0-0.839-0.303-1.561-0.906-2.165c-0.604-0.604-1.338-0.906-2.201-0.906
		h-3.071v12.321H80.447z M86.626,46.896h3.071c0.863,0,1.597-0.302,2.201-0.906c0.604-0.604,0.906-1.326,0.906-2.165v-3.071
		c0-0.863-0.303-1.597-0.906-2.202c-0.604-0.604-1.338-0.907-2.201-0.907h-3.071V46.896z"/>
	<path fill="#1A4684" d="M105.375,52.326v-3.32h16.68v3.32H105.375z"/>
	<path fill="#1A4684" d="M135.375,39.006h6.68c1.813,0,3.373,0.654,4.68,1.96c1.307,1.307,1.96,2.867,1.96,4.68v10
		c0,1.813-0.653,3.38-1.96,4.7s-2.867,1.98-4.68,1.98h-6.68c-1.814,0-3.381-0.654-4.701-1.961c-1.319-1.306-1.979-2.879-1.979-4.72
		v-10c0-1.813,0.66-3.373,1.979-4.68C131.994,39.66,133.561,39.006,135.375,39.006z M135.375,45.646v10
		c0,0.907,0.326,1.694,0.979,2.36s1.433,1,2.34,1c0.933,0,1.727-0.334,2.38-1s0.98-1.453,0.98-2.36v-10
		c0-0.906-0.327-1.686-0.98-2.34c-0.653-0.653-1.447-0.98-2.38-0.98c-0.907,0-1.687,0.327-2.34,0.98
		C135.701,43.959,135.375,44.739,135.375,45.646z"/>
	<path fill="#1A4684" d="M155.374,39.006h6.681v3.32c0-1.12,0.279-1.953,0.84-2.5c0.56-0.546,1.386-0.82,2.479-0.82h3.36
		c1.813,0,3.373,0.654,4.68,1.96c1.307,1.307,1.96,2.867,1.96,4.68v10c0,1.841-0.653,3.414-1.96,4.72
		c-1.307,1.307-2.867,1.961-4.68,1.961h-6.68v6.68h-6.681V39.006z M162.055,59.006h3.319c0.933,0,1.727-0.326,2.38-0.98
		c0.653-0.652,0.98-1.445,0.98-2.38v-10c0-0.906-0.327-1.686-0.98-2.34c-0.653-0.653-1.447-0.98-2.38-0.98
		c-0.907,0-1.687,0.327-2.34,0.98c-0.653,0.654-0.979,1.434-0.979,2.34V59.006z"/>
	<path fill="#1A4684" d="M202.054,52.326h-13.319v3.319c0,0.907,0.326,1.694,0.979,2.36s1.433,1,2.34,1h3.36
		c2.213,0,3.32-1.12,3.32-3.36h3.319c-0.507,4.454-2.72,6.681-6.64,6.681h-6.68c-1.814,0-3.381-0.654-4.701-1.961
		c-1.319-1.306-1.979-2.879-1.979-4.72v-10c0-1.813,0.66-3.373,1.979-4.68c1.32-1.306,2.887-1.96,4.701-1.96h6.68
		c1.813,0,3.373,0.654,4.68,1.96c1.307,1.307,1.96,2.867,1.96,4.68V52.326z M188.734,49.006h6.68v-3.36
		c0-0.906-0.327-1.686-0.98-2.34c-0.653-0.653-1.447-0.98-2.38-0.98c-0.907,0-1.687,0.327-2.34,0.98
		c-0.653,0.654-0.979,1.434-0.979,2.34V49.006z"/>
	<path fill="#1A4684" d="M208.733,62.326v-23.32h6.681v3.32c0.133-1.12,0.479-1.953,1.039-2.5c0.561-0.546,1.32-0.82,2.28-0.82h3.36
		c1.813,0,3.373,0.654,4.68,1.96c1.307,1.307,1.96,2.867,1.96,4.68v16.681h-6.64V45.646c0-0.906-0.327-1.686-0.98-2.34
		c-0.653-0.653-1.447-0.98-2.38-0.98c-0.907,0-1.687,0.327-2.34,0.98c-0.653,0.654-0.979,1.434-0.979,2.34v16.681H208.733z"/>
	<path fill="#1A4684" d="M252.094,45.646h-3.32c-0.294-2.213-1.348-3.32-3.16-3.32c-1.174,0-2.054,0.234-2.641,0.7
		c-0.586,0.467-0.879,1.153-0.879,2.06c0,0.96,1.613,2.307,4.84,4.04c2.64,1.414,4.16,2.588,4.56,3.521
		c0.399,0.935,0.601,1.935,0.601,3c0,1.841-0.654,3.414-1.961,4.72c-1.307,1.307-2.879,1.961-4.72,1.961h-3.319
		c-4.454,0-6.681-2.227-6.681-6.681h3.36c0.266,2.24,1.307,3.36,3.119,3.36c1.201,0,2.094-0.233,2.681-0.7
		c0.587-0.466,0.88-1.166,0.88-2.101c0-0.933-1.613-2.266-4.84-4c-2.641-1.412-4.167-2.586-4.58-3.52
		c-0.414-0.934-0.62-1.933-0.62-3c0-1.84,0.66-3.413,1.979-4.72c1.32-1.306,2.887-1.96,4.701-1.96h3.319
		C249.6,39.006,251.826,41.219,252.094,45.646z"/>
	<path fill="#1A4684" d="M275.413,45.646h-3.319c-0.268-2.213-1.388-3.32-3.361-3.32c-0.906,0-1.686,0.327-2.34,0.98
		c-0.653,0.654-0.979,1.434-0.979,2.34v10c0,0.907,0.326,1.694,0.979,2.36c0.654,0.666,1.434,1,2.34,1
		c1.974,0,3.094-1.12,3.361-3.36h3.319c-0.267,4.454-2.493,6.681-6.681,6.681h-3.319c-1.813,0-3.38-0.654-4.7-1.961
		c-1.32-1.306-1.98-2.879-1.98-4.72v-10c0-1.813,0.66-3.373,1.98-4.68c1.32-1.306,2.887-1.96,4.7-1.96h3.319
		C272.946,39.006,275.173,41.219,275.413,45.646z"/>
	<path fill="#1A4684" d="M288.732,62.326h-6.68v-23.32h6.68v6.64c0.266-2.213,0.953-3.873,2.061-4.98
		c1.105-1.106,2.646-1.66,4.619-1.66h3.32v6.64h-6.68c-0.907,0-1.688,0.327-2.34,0.98c-0.654,0.654-0.98,1.447-0.98,2.38V62.326z"/>
	<path fill="#1A4684" d="M322.053,52.326h-13.32v3.319c0,0.907,0.326,1.694,0.98,2.36c0.652,0.666,1.433,1,2.34,1h3.359
		c2.213,0,3.32-1.12,3.32-3.36h3.32c-0.508,4.454-2.721,6.681-6.641,6.681h-6.68c-1.814,0-3.38-0.654-4.7-1.961
		c-1.319-1.306-1.979-2.879-1.979-4.72v-10c0-1.813,0.66-3.373,1.979-4.68c1.32-1.306,2.886-1.96,4.7-1.96h6.68
		c1.813,0,3.373,0.654,4.68,1.96c1.307,1.307,1.961,2.867,1.961,4.68V52.326z M308.732,49.006h6.68v-3.36
		c0-0.906-0.326-1.686-0.979-2.34c-0.653-0.653-1.447-0.98-2.38-0.98c-0.907,0-1.688,0.327-2.34,0.98
		c-0.654,0.654-0.98,1.434-0.98,2.34V49.006z"/>
	<path fill="#1A4684" d="M348.732,52.326h-13.32v3.319c0,0.907,0.326,1.694,0.98,2.36c0.652,0.666,1.433,1,2.34,1h3.359
		c2.214,0,3.32-1.12,3.32-3.36h3.32c-0.507,4.454-2.721,6.681-6.641,6.681h-6.68c-1.813,0-3.38-0.654-4.7-1.961
		c-1.319-1.306-1.979-2.879-1.979-4.72v-10c0-1.813,0.66-3.373,1.979-4.68c1.32-1.306,2.887-1.96,4.7-1.96h6.68
		c1.813,0,3.373,0.654,4.681,1.96c1.306,1.307,1.96,2.867,1.96,4.68V52.326z M335.412,49.006h6.68v-3.36
		c0-0.906-0.326-1.686-0.979-2.34c-0.654-0.653-1.447-0.98-2.38-0.98c-0.907,0-1.688,0.327-2.34,0.98
		c-0.654,0.654-0.98,1.434-0.98,2.34V49.006z"/>
	<path fill="#1A4684" d="M355.412,62.326v-23.32h6.68v3.32c0.133-1.12,0.48-1.953,1.04-2.5c0.56-0.546,1.32-0.82,2.28-0.82h3.359
		c1.813,0,3.373,0.654,4.681,1.96c1.306,1.307,1.96,2.867,1.96,4.68v16.681h-6.641V45.646c0-0.906-0.326-1.686-0.979-2.34
		c-0.654-0.653-1.447-0.98-2.38-0.98c-0.907,0-1.688,0.327-2.34,0.98c-0.654,0.654-0.98,1.434-0.98,2.34v16.681H355.412z"/>
</g>
<text transform="matrix(1 0 0 1 -588.9473 45.9995)" font-family="'Skia-Regular'" font-size="30">NOR-openscreen</text>
<text transform="matrix(1 0 0 1 -588.9473 -15.3081)" font-family="'StoneSansSemITCTTSemi'" font-size="30">NOR-openscreen</text>
<text transform="matrix(1 0 0 1 37.9473 183.3262)" fill="#1A4784" font-family="'SynchroLET'" font-size="44">NOR-openscreen</text>
<circle fill="#E31E26" cx="417.563" cy="42.325" r="4.5"/>
<circle fill="#1A4683" cx="431.063" cy="42.325" r="4.5"/>
<circle fill="#1A4683" cx="402.938" cy="42.325" r="4.5"/>
<circle fill="#797BBA" cx="417.563" cy="57.325" r="4.5"/>
<circle fill="#1A4683" cx="402.938" cy="57.325" r="4.5"/>
<circle fill="#E31E26" cx="431.063" cy="71.325" r="4.5"/>
<circle fill="#1A4683" cx="417.563" cy="26.675" r="4.5"/>
</svg>
