<?xml version="1.0" encoding="UTF-8" standalone="no"?>
<svg
   inkscape:export-ydpi="200"
   inkscape:export-xdpi="200"
   inkscape:export-filename="/home/kbo055/Documents/icons/vector/logos/BioMedData.png"
   sodipodi:docname="BioMedData_white.svg"
   inkscape:version="1.2.2 (b0a8486541, 2022-12-01)"
   id="svg8"
   version="1.1"
   viewBox="0 0 124.02267 19.642625"
   height="19.642626mm"
   width="124.02267mm"
   xmlns:inkscape="http://www.inkscape.org/namespaces/inkscape"
   xmlns:sodipodi="http://sodipodi.sourceforge.net/DTD/sodipodi-0.dtd"
   xmlns="http://www.w3.org/2000/svg"
   xmlns:svg="http://www.w3.org/2000/svg"
   xmlns:rdf="http://www.w3.org/1999/02/22-rdf-syntax-ns#"
   xmlns:cc="http://creativecommons.org/ns#"
   xmlns:dc="http://purl.org/dc/elements/1.1/">
  <defs
     id="defs2" />
  <sodipodi:namedview
     fit-margin-bottom="10"
     fit-margin-right="10"
     fit-margin-left="10"
     fit-margin-top="10"
     inkscape:window-maximized="1"
     inkscape:window-y="0"
     inkscape:window-x="0"
     inkscape:window-height="1032"
     inkscape:window-width="1920"
     showguides="false"
     showgrid="false"
     inkscape:document-rotation="0"
     inkscape:current-layer="g1310-7-6"
     inkscape:document-units="mm"
     inkscape:cy="-25.357143"
     inkscape:cx="-2.1428571"
     inkscape:zoom="1.4"
     inkscape:pageshadow="2"
     inkscape:pageopacity="0.0"
     borderopacity="1.0"
     bordercolor="#666666"
     pagecolor="#ffffff"
     id="base"
     inkscape:showpageshadow="2"
     inkscape:pagecheckerboard="0"
     inkscape:deskcolor="#d1d1d1">
    <inkscape:grid
       originy="-213.442"
       originx="-33.206279"
       id="grid858"
       type="xygrid" />
  </sodipodi:namedview>
  <metadata
     id="metadata5">
    <rdf:RDF>
      <cc:Work
         rdf:about="">
        <dc:format>image/svg+xml</dc:format>
        <dc:type
           rdf:resource="http://purl.org/dc/dcmitype/StillImage" />
      </cc:Work>
    </rdf:RDF>
  </metadata>
  <g
     transform="translate(-33.206274,-213.44206)"
     id="layer1"
     inkscape:groupmode="layer"
     inkscape:label="Layer 1">
    <g
       id="g1250-8-7-9"
       transform="translate(0.13379203,157.72804)">
      <g
         transform="translate(-7.0317581)"
         id="g1321-7-0">
        <path
           sodipodi:nodetypes="scccsscccccccccccccccscscsccccssccsccccccscscssccccccssscccsscscscscsc"
           d="m 103.4938,55.996516 c -0.38481,0 -0.76943,0.199904 -0.96946,0.599964 l -3.369804,6.740156 -1.349786,-2.69906 c -0.0949,-0.183078 -0.13276,-0.251293 -0.34298,-0.251293 h -9.553934 c -0.0823,0 -4.86188,0.0064 -4.86188,0.0064 l -3.29902,7.707021 -3.279906,-7.707024 h -4.726845 v 14.401705 h 3.521234 V 64.260611 l 3.318137,7.765418 h 2.35387 l 3.31814,-7.765418 v 10.533724 h 3.51142 V 62.509297 h 8.550384 l 0.62011,1.24075 c -0.16672,-0.01071 -0.33462,-0.02016 -0.50849,-0.02016 -1.86495,0 -3.331184,0.504992 -4.398704,1.514636 -1.06109,1.009645 -1.59163,2.395313 -1.59163,4.157369 0,1.794208 0.54018,3.190042 1.62057,4.186825 1.08681,0.990351 2.608054,1.48518 4.563034,1.48518 0.81671,0 1.633262,-0.08004 2.449966,-0.240813 0.816727,-0.154339 1.633254,-0.38585 2.449974,-0.694531 v -2.662369 c -0.80384,0.437298 -1.588057,0.76527 -2.353324,0.983922 -0.758844,0.212217 -1.501596,0.318325 -2.228296,0.318325 -0.90031,0 -1.60162,-0.20257 -2.10323,-0.607716 -0.5016,-0.405143 -0.793864,-1.012854 -0.877464,-1.823143 h 8.073924 v -0.98392 c 0,-1.664544 -0.48549,-3.002775 -1.45366,-4.015775 l 2.91765,-5.835819 1.49861,2.997232 h 7.00164 v 3.063377 c -0.47588,-0.630224 -1.00303,-1.093242 -1.58182,-1.389062 -0.57234,-0.302249 -1.23167,-0.453718 -1.97764,-0.453718 -1.33121,0 -2.42409,0.530542 -3.2794,1.591635 -0.8553,1.054661 -1.28312,2.414778 -1.28312,4.08037 0,1.665592 0.42782,3.029098 1.28312,4.090191 0.85531,1.054661 1.94819,1.581814 3.2794,1.581814 0.7524,0 1.41511,-0.147563 1.98747,-0.443383 0.57235,-0.29582 1.09611,-0.762225 1.57199,-1.398881 v 1.562695 h 3.47267 V 60.322703 l -9.13175,0.0167 -1.8712,-3.742925 c -0.20003,-0.40006 -0.58516,-0.599963 -0.96997,-0.599962 z m -7.08793,10.029363 c 0.61735,0 1.11558,0.20257 1.495002,0.607714 0.38585,0.398714 0.578767,0.925867 0.578767,1.581816 h -4.485513 c 0.102894,-0.707395 0.363344,-1.247584 0.781354,-1.620572 0.418,-0.379421 0.96158,-0.568958 1.63039,-0.568958 z m 13.31184,0.212389 c 0.73955,0 1.30242,0.270095 1.68827,0.810287 0.39227,0.540191 0.58807,1.324406 0.58807,2.353344 0,1.028938 -0.1958,1.813671 -0.58807,2.353863 -0.38585,0.540192 -0.94872,0.810286 -1.68827,0.810286 -0.73312,0 -1.29599,-0.270094 -1.68828,-0.810286 -0.38585,-0.540192 -0.57876,-1.324925 -0.57876,-2.353863 0,-1.028938 0.19291,-1.813153 0.57876,-2.353344 0.39229,-0.540192 0.95516,-0.810287 1.68828,-0.810287 z"
           style="font-style:normal;font-variant:normal;font-weight:bold;font-stretch:normal;font-size:19.7556px;line-height:1.25;font-family:cor;-inkscape-font-specification:'cor Bold';letter-spacing:0px;word-spacing:0px;fill:#005472;fill-opacity:1;stroke:#010101;stroke-width:0.564999;stroke-miterlimit:4;stroke-dasharray:none;stroke-opacity:1"
           id="path843-6-1-1-8" />
        <path
           id="path1025-9-2-1-8"
           style="font-style:normal;font-variant:normal;font-weight:bold;font-stretch:normal;font-size:19.7556px;line-height:1.25;font-family:cor;-inkscape-font-specification:'cor Bold';letter-spacing:0px;word-spacing:0px;fill:#f47d20;fill-opacity:1;stroke:#010101;stroke-width:0.564999;stroke-miterlimit:4;stroke-dasharray:none;stroke-opacity:1"
           d="m 121.42861,60.39263 c -1.70462,0.26085 -3.00634,0.729277 -3.53725,1.296562 l 0.0119,1.473295 -0.002,0.988571 c 0.55196,0.578286 1.90614,1.053296 3.66954,1.307931 v -2.270663 h 1.33119 c 1.52411,0 2.68454,0.372814 3.48196,1.118794 0.34966,0.327101 0.61808,0.723675 0.81442,1.181841 1.60519,-0.209307 2.90211,-0.595427 3.60443,-1.081072 -0.3259,-0.736222 -0.78845,-1.393746 -1.38957,-1.971971 -0.4773,-0.465265 -1.01494,-0.845344 -1.61231,-1.1405 -0.001,-5.29e-4 -0.002,-0.0016 -0.004,-0.0021 -0.11186,-0.05518 -0.22603,-0.106844 -0.3421,-0.156064 -0.001,-5.29e-4 -0.002,-5.29e-4 -0.003,-0.0011 -0.24829,-0.104007 -0.50618,-0.194439 -0.77359,-0.271301 -1.06752,-0.315111 -2.69435,-0.472323 -4.88085,-0.472323 z m 9.70639,5.485972 c -0.91794,0.511347 -2.21674,0.8564 -3.66231,1.051097 0.0689,0.360783 0.10749,0.217995 0.10749,0.637688 0,1.014651 -0.20531,1.325951 -0.60772,1.999361 2.57834,-0.302644 4.41214,-1.062511 4.41214,-1.950786 v -0.738455 c -0.038,-0.540496 -0.12035,-0.521052 -0.2496,-0.998905 z m -13.23692,0.01344 -0.007,2.294948 c 0.5451,0.583353 1.90513,1.062979 3.67988,1.3193 v -2.572451 c -1.44676,-0.192162 -2.74944,-0.533591 -3.67265,-1.041797 z m -0.0104,4.041094 -0.005,2.07326 -10e-4,1.276924 c 0.67699,0.737637 2.65361,1.31132 5.13147,1.478981 1.54874,-0.04985 2.75988,-0.196178 3.62148,-0.442352 1.08039,-0.315111 2.00643,-0.845653 2.77813,-1.591633 0.67524,-0.649517 1.17684,-1.398534 1.50482,-2.247407 0.066,-0.17199 0.12301,-0.350401 0.1757,-0.531752 -1.21156,0.660167 -3.06258,1.03723 -5.04052,1.16582 -0.77606,0.573694 -1.826,0.860931 -3.15123,0.860931 h -1.3311 v -0.994256 c -1.45226,-0.192984 -2.7589,-0.537044 -3.68275,-1.048516 z"
           sodipodi:nodetypes="ccccccsscccscsccscccscsccccccccccccccccsccccc" />
        <path
           id="path851-2-8-5-5"
           style="font-style:normal;font-variant:normal;font-weight:bold;font-stretch:normal;font-size:19.7556px;line-height:1.25;font-family:cor;-inkscape-font-specification:'cor Bold';letter-spacing:0px;word-spacing:0px;fill:#f47d20;fill-opacity:1;stroke:#010101;stroke-width:0.564999;stroke-miterlimit:4;stroke-dasharray:none;stroke-opacity:1"
           d="m 137.90968,69.93267 q -1.08038,0 -1.63022,0.366559 -0.54019,0.366559 -0.54019,1.080385 0,0.655947 0.43408,1.032153 0.44373,0.366559 1.22508,0.366559 0.97428,0 1.63987,-0.694533 0.66559,-0.704179 0.66559,-1.755625 V 69.93267 Z m 5.27652,-1.302249 V 74.7944 h -3.48231 v -1.601284 q -0.69453,0.983922 -1.56269,1.437297 -0.86817,0.443729 -2.11254,0.443729 -1.67846,0 -2.7299,-0.974275 -1.0418,-0.983921 -1.0418,-2.54662 0,-1.900319 1.30225,-2.787778 1.31189,-0.887458 4.10932,-0.887458 h 2.03536 v -0.270096 q 0,-0.819935 -0.6463,-1.19614 -0.6463,-0.385852 -2.01607,-0.385852 -1.10932,0 -2.06431,0.221865 -0.95498,0.221865 -1.77491,0.665594 v -2.633437 q 1.10932,-0.270096 2.22829,-0.405144 1.11897,-0.144694 2.23794,-0.144694 2.92282,0 4.21543,1.157554 1.30224,1.147909 1.30224,3.74276 z" />
        <path
           id="path853-2-9-9-0"
           style="font-style:normal;font-variant:normal;font-weight:bold;font-stretch:normal;font-size:19.7556px;line-height:1.25;font-family:cor;-inkscape-font-specification:'cor Bold';letter-spacing:0px;word-spacing:0px;fill:#f47d20;fill-opacity:1;stroke:#010101;stroke-width:0.564999;stroke-miterlimit:4;stroke-dasharray:none;stroke-opacity:1"
           d="m 145.12948,60.922832 v 3.067513 2.469615 4.582149 c 0,1.363343 0.2826,2.330837 0.84852,2.903183 0.57235,0.565915 1.54036,0.849043 2.9037,0.849043 h 2.51975 v -2.469616 h -1.33326 c -0.59164,0 -0.98713,-0.08682 -1.18649,-0.26045 -0.19936,-0.180065 -0.2992,-0.520552 -0.2992,-1.02216 V 66.45996 h 2.81895 v -2.469615 h -2.81895 v -0.558623 h -2.19884 v -1.254705 h 2.19884 v -1.254185 z m 1.25418,3.763076 h 3.76308 v 1.254188 h -3.76308 z m 0,3.763079 h 1.25471 v 1.254704 h -1.25471 z m 0,2.507855 h 1.25471 v 1.254705 h -1.25471 z" />
        <path
           id="path855-4-3-7-9"
           style="font-style:normal;font-variant:normal;font-weight:bold;font-stretch:normal;font-size:19.7556px;line-height:1.25;font-family:cor;-inkscape-font-specification:'cor Bold';letter-spacing:0px;word-spacing:0px;fill:#f47d20;fill-opacity:1;stroke:#010101;stroke-width:0.564999;stroke-miterlimit:4;stroke-dasharray:none;stroke-opacity:1"
           d="m 158.56789,69.93267 q -1.08038,0 -1.63022,0.366559 -0.54019,0.366559 -0.54019,1.080385 0,0.655947 0.43408,1.032153 0.44373,0.366559 1.22508,0.366559 0.97427,0 1.63987,-0.694533 0.66559,-0.704179 0.66559,-1.755625 V 69.93267 Z m 5.27652,-1.302249 V 74.7944 h -3.48231 v -1.601284 q -0.69453,0.983922 -1.5627,1.437297 -0.86816,0.443729 -2.11253,0.443729 -1.67846,0 -2.7299,-0.974275 -1.0418,-0.983921 -1.0418,-2.54662 0,-1.900319 1.30225,-2.787778 1.31189,-0.887458 4.10931,-0.887458 h 2.03537 v -0.270096 q 0,-0.819935 -0.6463,-1.19614 -0.6463,-0.385852 -2.01607,-0.385852 -1.10933,0 -2.06431,0.221865 -0.95498,0.221865 -1.77492,0.665594 v -2.633437 q 1.10933,-0.270096 2.2283,-0.405144 1.11896,-0.144694 2.23793,-0.144694 2.92283,0 4.21543,1.157554 1.30225,1.147909 1.30225,3.74276 z" />
        <g
           id="g1310-7-6"
           style="fill:#544f4c;fill-opacity:1">
          <path
             id="path1162-7-8-6-3"
             style="font-weight:bold;font-size:22.5778px;line-height:1.25;font-family:Corbel;-inkscape-font-specification:'Corbel Bold';letter-spacing:0px;word-spacing:0px;fill:#ffffff;fill-opacity:1;stroke:#000000;stroke-width:0.565;stroke-miterlimit:4;stroke-dasharray:none;stroke-opacity:1"
             d="m 67.219928,69.462519 q 0,-0.848873 -0.198437,-1.499307 -0.198438,-0.650435 -0.551217,-1.091408 -0.352777,-0.440972 -0.848871,-0.661459 -0.496094,-0.220486 -1.080384,-0.220486 -0.573264,0 -1.069358,0.220486 -0.485071,0.220487 -0.837848,0.661459 -0.352777,0.440973 -0.551217,1.091408 -0.198438,0.650434 -0.198438,1.499307 0,0.848872 0.198438,1.499307 0.19844,0.650435 0.551217,1.091407 0.363802,0.429949 0.84887,0.661459 0.496097,0.220486 1.080384,0.220486 0.58429,0 1.069359,-0.220486 0.485071,-0.23151 0.837848,-0.661459 0.352779,-0.440972 0.551217,-1.091407 0.198437,-0.650435 0.198437,-1.499307 z m 2.700957,0 q 0,1.256771 -0.374825,2.293058 -0.374827,1.036285 -1.080383,1.774915 -0.694532,0.738629 -1.686722,1.146529 -0.992187,0.396875 -2.215888,0.396875 -1.256771,0 -2.259983,-0.396875 -0.99219,-0.4079 -1.686722,-1.146529 -0.694531,-0.73863 -1.069358,-1.774915 -0.363802,-1.036287 -0.363802,-2.293058 0,-1.256772 0.374827,-2.293058 0.374825,-1.036286 1.069358,-1.774915 0.705557,-0.73863 1.697744,-1.135505 0.992191,-0.4079 2.215888,-0.4079 1.256774,0 2.248961,0.4079 1.003213,0.396875 1.697744,1.135505 0.694532,0.738629 1.058336,1.774915 0.374825,1.036286 0.374825,2.293058 z" />
          <path
             id="path1158-5-0-7-8"
             style="font-weight:bold;font-size:22.5778px;line-height:1.25;font-family:Corbel;-inkscape-font-specification:'Corbel Bold';letter-spacing:0px;word-spacing:0px;fill:#ffffff;fill-opacity:1;stroke:#000000;stroke-width:0.564999;stroke-miterlimit:4;stroke-dasharray:none;stroke-opacity:1"
             d="m 51.069303,64.24802 q 0,0.959115 -0.429947,1.76389 -0.429948,0.793752 -1.422137,1.322919 v 0.0441 q 0.551216,0.187413 1.003212,0.48507 0.463022,0.286632 0.782727,0.694532 0.33073,0.396875 0.507119,0.903994 0.187412,0.507118 0.187412,1.135505 0,0.540191 -0.176389,1.157552 -0.165363,0.617363 -0.595313,1.201651 -0.429948,0.573265 -1.146529,1.058335 -0.716579,0.485069 -1.807987,0.771702 -0.275608,0.06615 -0.606338,0.121267 -0.319704,0.05512 -0.71658,0.09922 -0.396876,0.03307 -0.881946,0.05512 -0.48507,0.01102 -1.091407,0.01102 H 40.38674 V 60.323363 h 5.126308 q 1.642623,0 2.645836,0.33073 0.749654,0.242534 1.30087,0.63941 0.551216,0.385851 0.903994,0.870921 0.363802,0.474045 0.529166,1.014237 0.176389,0.529167 0.176389,1.069359 z m -7.981605,4.409727 v 4.156167 h 1.763891 q 0.705556,0 1.212675,-0.03307 0.507119,-0.0441 0.870921,-0.132292 0.562241,-0.121267 0.937066,-0.319705 0.374827,-0.209462 0.606338,-0.463021 0.231511,-0.264584 0.33073,-0.573265 0.09922,-0.319705 0.09922,-0.672483 0,-0.617362 -0.341753,-1.080383 -0.341753,-0.463021 -1.069358,-0.694532 -0.319705,-0.09922 -0.749654,-0.143316 -0.429949,-0.0441 -1.102433,-0.0441 z m 2.436374,-2.259985 q 1.102433,0 1.642624,-0.220487 0.606338,-0.253559 0.859896,-0.694532 0.264585,-0.451997 0.264585,-1.014237 0,-0.584289 -0.297657,-1.036286 -0.297657,-0.463021 -1.014238,-0.683507 -0.297657,-0.08819 -0.694532,-0.121268 -0.396876,-0.0441 -0.981164,-0.0441 h -2.215888 v 3.814414 z" />
          <path
             style="fill:#f47d20;fill-opacity:1;stroke:#000000;stroke-width:0.521961;stroke-miterlimit:4;stroke-dasharray:none;stroke-opacity:1"
             d="m 52.462309,74.649437 c -0.01525,0.225241 0.08736,0.422031 0.220491,0.422031 l 0.447917,0.0024 c 0.112325,0 0.206623,-0.139887 0.221877,-0.329563 0.0097,-0.116178 0.02496,-0.263177 0.04715,-0.429144 h 4.330779 c 0.02219,0.163596 0.04021,0.312966 0.04854,0.429144 0.01525,0.189676 0.109554,0.331934 0.221879,0.329563 l 0.447916,-0.0024 c 0.133127,0 0.237131,-0.19679 0.220491,-0.422031 -0.06379,-0.898593 -0.355004,-3.058536 -1.648831,-4.924482 -0.244066,0.294 -0.514479,0.573773 -0.811241,0.83932 0.08598,0.109065 0.158089,0.222871 0.235746,0.336677 h -1.769477 c 0.295375,-0.429144 0.651767,-0.844062 1.091363,-1.218674 2.386574,-2.02717 2.824783,-5.187658 2.905214,-6.323347 0.01525,-0.225242 -0.08736,-0.422031 -0.220492,-0.422031 l -0.449303,-0.0024 c -0.112324,0 -0.206623,0.139887 -0.221878,0.329563 -0.0097,0.116177 -0.02496,0.263177 -0.04715,0.429144 h -4.332166 c -0.02219,-0.165967 -0.03744,-0.310596 -0.04715,-0.429144 -0.01525,-0.189676 -0.109552,-0.331934 -0.221878,-0.329563 l -0.447916,0.0024 c -0.133126,0 -0.237131,0.196789 -0.221877,0.422031 0.07211,1.017141 0.434049,3.648906 2.217392,5.645253 -1.781957,1.996348 -2.145281,4.628113 -2.217392,5.645253 z m 3.104904,-6.508282 c -0.348071,-0.324822 -0.643446,-0.673352 -0.891672,-1.033738 h 1.781957 c -0.246839,0.360386 -0.542214,0.711287 -0.890285,1.033738 z m 1.818012,-2.930505 c -0.08043,0.24658 -0.177503,0.500272 -0.291215,0.758707 H 54.041803 C 53.926703,65.710922 53.829632,65.45723 53.750587,65.21065 Z M 53.7492,72.797719 c 0.08043,-0.24658 0.177503,-0.500272 0.291216,-0.758707 h 3.042501 c 0.115099,0.258435 0.213557,0.512127 0.293988,0.758707 z"
             id="path2-3-5" />
        </g>
      </g>
    </g>
  </g>
</svg>
