<?xml version="1.0" encoding="UTF-8" standalone="no"?>
<!-- Created with Inkscape (http://www.inkscape.org/) -->

<svg
   width="696.4527mm"
   height="103.50496mm"
   viewBox="0 0 696.4527 103.50496"
   version="1.1"
   id="svg3391"
   xml:space="preserve"
   inkscape:export-filename="bitmap.png"
   inkscape:export-xdpi="50"
   inkscape:export-ydpi="50"
   sodipodi:docname="main_logo.svg"
   inkscape:version="1.2.2 (b0a8486541, 2022-12-01)"
   xmlns:inkscape="http://www.inkscape.org/namespaces/inkscape"
   xmlns:sodipodi="http://sodipodi.sourceforge.net/DTD/sodipodi-0.dtd"
   xmlns="http://www.w3.org/2000/svg"
   xmlns:svg="http://www.w3.org/2000/svg"><sodipodi:namedview
     id="namedview3393"
     pagecolor="#ffffff"
     bordercolor="#666666"
     borderopacity="1.0"
     inkscape:showpageshadow="2"
     inkscape:pageopacity="0.0"
     inkscape:pagecheckerboard="0"
     inkscape:deskcolor="#d1d1d1"
     inkscape:document-units="mm"
     showgrid="false"
     inkscape:zoom="0.2773978"
     inkscape:cx="1467.207"
     inkscape:cy="567.77666"
     inkscape:window-width="1920"
     inkscape:window-height="1552"
     inkscape:window-x="3840"
     inkscape:window-y="0"
     inkscape:window-maximized="1"
     inkscape:current-layer="g1974"
     showguides="false" /><defs
     id="defs3388" /><g
     inkscape:label="Layer 1"
     inkscape:groupmode="layer"
     id="layer1"
     transform="translate(81.434332,68.305813)"><g
       id="g1974"
       transform="translate(9.6916969,8.2475198)"><g
         id="g1740"
         transform="translate(0,-6.8083674)"><path
           style="fill:#f47d20;fill-opacity:1;stroke-width:0.264583"
           d="m -41.713613,-31.438801 c -4.948262,-0.821902 -9.418916,-5.376402 -10.355469,-10.549684 -0.672878,-3.716805 0.464394,-8.232219 2.648905,-10.517187 0.452149,-0.472943 0.752425,-0.859896 0.667279,-0.859896 -0.275407,0 -6.321235,2.42864 -7.412636,2.977695 -2.708121,1.362385 -5.989171,3.908131 -9.185965,7.127333 -1.875859,1.889011 -3.580069,3.388722 -3.850802,3.388722 -0.26712,0 -1.015,-0.33514 -1.661954,-0.744757 -0.646953,-0.409615 -1.831123,-1.11044 -2.631487,-1.557388 -6.221209,-3.474106 -8.430528,-4.894048 -8.280699,-5.322051 0.516276,-1.474803 4.409323,-5.973162 7.871783,-9.095727 7.918101,-7.14081 18.046155,-11.692061 28.76228,-12.924927 3.973444,-0.457136 11.654589,-0.199649 15.56747,0.521851 5.512115,1.016384 11.846295,3.397843 16.921721,6.362052 3.1839667,1.859536 7.9242523,5.60257 10.6075983,8.375993 2.77438121,2.867515 5.5435977,6.388383 5.5435977,7.048304 0,0.231797 -0.3274218,0.649 -0.7276041,0.927114 -1.1624231,0.807852 -11.9219982,6.939793 -12.1565593,6.92809 -0.1169908,-0.0058 -0.6793596,-0.601972 -1.2497096,-1.32475 -1.410544,-1.787514 -4.99396,-5.284523 -6.767798,-6.604603 -2.421001,-1.801691 -5.401646,-3.427875 -8.779529,-4.789942 -1.763641,-0.711155 -3.26432,-1.293009 -3.334848,-1.293009 -0.07053,0 0.184971,0.246364 0.567772,0.547476 1.049835,0.825802 2.493087,4.065979 2.858757,6.418069 1.102329,7.090455 -3.712218,13.854351 -10.664523,14.982463 -1.935938,0.314131 -2.965006,0.309724 -4.95758,-0.02125 z"
           id="path3506"
           inkscape:export-filename="./path3506.png"
           inkscape:export-xdpi="50"
           inkscape:export-ydpi="50" /><path
           style="fill:#005472;fill-opacity:1;stroke-width:0.264583"
           d="m -35.131158,26.060244 v -7.699751 l 0.992187,-0.154352 c 1.948768,-0.303165 6.577809,-1.535345 8.26823,-2.200878 2.755963,-1.085046 5.769676,-2.77989 8.399854,-4.723884 l 2.446726,-1.8084062 -2.049851,-0.164846 c -2.541622,-0.2043933 -4.557155,-0.9070578 -6.619947,-2.3078704 -3.726302,-2.5304829 -5.616366,-6.24191759 -5.616366,-11.0286004 0,-3.6709852 1.255133,-6.678202 3.855384,-9.237236 6.312041,-6.211994 17.0278986,-4.53484 21.0315392,3.2916782 l 0.6090603,1.190625 0.3312266,-1.5875002 c 0.1821735,-0.873125 0.4762791,-2.920984 0.6535684,-4.550799 0.4965277,-4.564562 -0.2782384,-10.701168 -1.8974461,-15.028888 -0.5418059,-1.448107 -0.5492777,-1.562614 -0.1223434,-1.874798 0.9403954,-0.687631 12.5358792,-7.252806 12.8099902,-7.252806 0.4123928,0 0.9163897,1.085173 1.9674364,4.236156 1.7840854,5.348584 2.5148994,9.338419 2.7376704,14.946135 0.487323,12.2672635 -3.3672994,24.1465734 -11.0929423,34.186627 -3.06977,3.989395 -8.8749613,9.130781 -13.4907817,11.948154 -6.277647,3.831707 -14.88725,6.817191 -21.197938,7.350639 l -2.015257,0.170352 z"
           id="path3490"
           sodipodi:nodetypes="ccssscssssscsssssssssscc" /><path
           style="fill:#4d4848;fill-opacity:1;stroke-width:0.264583"
           d="m -48.228033,33.168524 c -10.981053,-1.952839 -20.466408,-7.022015 -28.317752,-15.133606 -3.226797,-3.333757 -5.613051,-6.485411 -7.789815,-10.2884202 -7.795281,-13.6191014 -8.9427,-30.2328358 -3.11209,-45.0606598 0.707827,-1.800074 0.88995,-2.05822 1.385282,-1.963534 0.972836,0.18597 12.823907,7.18943 12.827683,7.580595 0.0019,0.203232 -0.341458,1.453388 -0.763154,2.778125 -1.793092,5.632916 -2.158548,12.931018 -0.922189,18.415908 0.143523,0.6367167 0.169455,0.6219767 0.693211,-0.394018 0.960707,-1.863598 3.648887,-4.283424 5.9431,-5.349819 1.867953,-0.868262 2.332024,-0.970907 4.884512,-1.080376 2.341052,-0.100404 3.128063,-0.02728 4.630209,0.430212 6.589929,2.007016 10.533009,8.8849467 8.948036,15.6081017 -1.27132,5.3926977 -5.665896,9.4261383 -10.993821,10.0903694 -1.1019,0.1373743 -2.292525,0.1810994 -2.645833,0.097168 -0.578263,-0.1373743 -0.549953,-0.069969 0.283662,0.6753331 1.462249,1.3073408 5.472324,3.9520338 7.658817,5.0510838 2.535923,1.274691 5.899894,2.462376 8.613058,3.040933 1.164167,0.248248 2.325026,0.508709 2.579688,0.578805 0.427365,0.117634 0.463021,0.716918 0.463021,7.782536 v 7.655086 l -0.859896,-0.02164 c -0.472943,-0.01191 -2.050521,-0.233383 -3.505729,-0.492175 z"
           id="path3486" /></g><g
         id="g2292"
         transform="translate(100.93206,6.4360832)"><g
           aria-label="RDM"
           id="text314"
           style="font-weight:bold;font-size:59.9722px;line-height:1.25;font-family:Corbel;-inkscape-font-specification:'Corbel Bold';letter-spacing:-5.75469px;word-spacing:0px;fill:#f47d20;stroke-width:0.209078"><path
             d="m 225.58487,-41.982279 q 0,4.099662 -2.2841,6.969425 -2.25481,2.84048 -6.99871,4.216795 v 0.117133 l 11.65476,16.105815 h -8.60929 L 208.6884,-29.74186 h -4.91959 v 15.168749 h -7.17441 v -39.181055 h 11.9183 q 2.95762,0 5.50526,0.3514 2.54765,0.322116 4.36322,0.995632 3.45543,1.317748 5.32956,3.923962 1.87413,2.57693 1.87413,6.500893 z m -18.27278,6.237342 q 2.4598,0 4.15823,-0.204983 1.72771,-0.234266 2.89904,-0.673516 2.16697,-0.819932 2.9869,-2.22553 0.84922,-1.434882 0.84922,-3.27973 0,-1.581298 -0.67352,-2.781913 -0.64423,-1.229899 -2.22553,-1.932698 -1.02492,-0.468533 -2.57693,-0.673516 -1.55202,-0.234267 -3.83611,-0.234267 h -5.12458 v 12.006153 z"
             id="path414" /><path
             d="m 228.49804,-14.573111 v -39.181055 h 10.36628 q 1.37632,0 2.78192,0.08785 1.43488,0.08785 2.78191,0.26355 1.34703,0.175699 2.60621,0.439249 1.25919,0.234266 2.31339,0.585666 3.13331,0.995632 5.53454,2.694064 2.40123,1.698431 4.01181,4.011812 1.63987,2.31338 2.4598,5.183144 0.84921,2.84048 0.84921,6.178776 0,3.162597 -0.70279,5.94451 -0.7028,2.75263 -2.13769,5.036728 -1.43488,2.284097 -3.63113,4.041095 -2.16696,1.727715 -5.15386,2.84048 -2.48908,0.937066 -5.65167,1.405599 -3.1626,0.468532 -7.11584,0.468532 z m 10.13202,-6.003076 q 6.29591,0 9.83919,-1.727715 3.13331,-1.552015 4.74389,-4.509628 1.61058,-2.957613 1.61058,-7.555091 0,-2.401231 -0.5271,-4.333929 -0.5271,-1.932698 -1.52273,-3.426146 -0.99563,-1.522732 -2.43051,-2.606214 -1.4056,-1.083482 -3.19188,-1.786281 -1.66915,-0.644233 -3.71898,-0.937066 -2.04983,-0.292833 -4.59748,-0.292833 h -3.1626 v 27.174903 z"
             id="path416" /><path
             d="m 284.20899,-25.085815 q 1.28847,-4.626762 3.19188,-9.927039 l 6.76445,-18.741312 h 10.07345 v 39.181055 h -7.17441 v -19.854077 q 0,-4.363212 0.3514,-10.132022 h -0.26355 q -0.49781,1.669148 -1.17133,3.748263 -0.67352,2.079114 -1.4056,4.099662 l -8.11147,22.138174 h -4.62676 l -8.11148,-22.138174 q -0.73208,-2.020548 -1.4056,-4.099662 -0.67351,-2.079115 -1.17133,-3.748263 h -0.26355 q 0.3514,5.417411 0.3514,10.102739 v 19.88336 h -7.17441 v -39.181055 h 10.01489 l 6.76444,18.653462 q 1.69844,4.656045 3.19188,10.014889 z"
             id="path418" /></g></g><g
         aria-label="Life Science"
         id="text2141"
         style="font-weight:bold;font-size:59.9722px;line-height:1.25;font-family:Corbel;-inkscape-font-specification:'Corbel Bold';letter-spacing:-2.64583px;word-spacing:0px;fill:#4d4848;stroke-width:0.482209"><path
           d="m 33.486636,-47.318083 v 33.177979 h 18.331346 v 6.0030763 H 26.312228 V -47.318083 Z"
           id="path421" /><path
           d="m 55.204508,-36.512545 h 6.940142 v 28.3755173 h -6.940142 z m -0.1757,-14.026701 h 7.291542 v 7.525808 h -7.291542 z"
           id="path423" /><path
           d="m 85.063138,-44.916853 q -1.142048,-0.292833 -2.371947,-0.468532 -1.200615,-0.204983 -2.284097,-0.204983 -1.171332,0 -2.079115,0.292833 -0.907782,0.263549 -1.552015,0.907782 -0.614949,0.644232 -0.937065,1.669148 -0.322117,1.024915 -0.322117,2.48908 v 3.71898 h 7.877208 v 5.710243 H 75.516782 V -8.1370277 H 68.57664 V -30.802302 h -4.802461 v -5.710243 h 4.802461 v -3.36758 q 0,-2.986897 0.819933,-5.124577 0.849215,-2.166965 2.342664,-3.54328 1.493448,-1.405598 3.513996,-2.049831 2.020547,-0.673516 4.392495,-0.673516 1.464165,0 2.899046,0.26355 1.464165,0.234266 2.518364,0.585666 z"
           id="path425" /><path
           d="m 98.933085,-12.998056 q 2.020545,0 4.216795,-0.409966 2.19625,-0.409966 4.45106,-1.171332 v 5.534544 q -1.34703,0.585666 -4.12894,1.1127654 -2.78192,0.5270994 -5.768814,0.5270994 -3.016179,0 -5.739526,-0.7613658 -2.694064,-0.7906491 -4.714612,-2.518364 -2.020547,-1.727715 -3.221163,-4.480345 -1.171332,-2.75263 -1.171332,-6.676592 0,-3.865396 1.112766,-6.764442 1.112765,-2.899047 2.986896,-4.802462 1.874132,-1.903414 4.275362,-2.84048 2.430514,-0.966349 5.007444,-0.966349 2.694064,0 4.948879,0.819933 2.2841,0.819932 3.92396,2.57693 1.66915,1.756998 2.57693,4.538912 0.93707,2.75263 0.93707,6.530176 -0.0293,1.464165 -0.0879,2.48908 H 89.943112 q 0.146416,1.961981 0.878499,3.36758 0.732082,1.376315 1.903414,2.254814 1.200616,0.849215 2.781914,1.259182 1.581298,0.380682 3.426146,0.380682 z m -2.781913,-18.799878 q -1.317749,0 -2.342664,0.497816 -1.024916,0.468533 -1.786282,1.317748 -0.732082,0.819933 -1.171332,1.932698 -0.439249,1.112766 -0.585666,2.371948 h 11.156942 q 0,-1.259182 -0.3514,-2.371948 -0.32212,-1.112765 -0.99564,-1.932698 -0.644229,-0.849215 -1.639861,-1.317748 -0.966349,-0.497816 -2.284097,-0.497816 z"
           id="path427" /><path
           d="m 140.81681,-19.381815 q 0,-1.493448 -0.73208,-2.401231 -0.73208,-0.937065 -1.99126,-1.522731 -1.25918,-0.585666 -2.84048,-0.937066 -1.55202,-0.380683 -3.27973,-0.732082 -2.2841,-0.497816 -4.36321,-1.171332 -2.07912,-0.702799 -3.66042,-1.903415 -1.58129,-1.229898 -2.51836,-3.10403 -0.93707,-1.874131 -0.93707,-4.685328 0,-3.104029 1.08349,-5.388127 1.08348,-2.31338 2.92833,-3.806829 1.87413,-1.522731 4.36321,-2.254814 2.51836,-0.761366 5.65168,-0.761366 3.13331,0 6.2959,0.61495 3.1626,0.614949 5.4467,1.581298 v 6.149493 q -3.04546,-1.200615 -5.85666,-1.727715 -2.78192,-0.556383 -5.24171,-0.556383 -3.54328,0 -5.47598,1.288466 -1.90341,1.288465 -1.90341,3.865395 0,1.493449 0.61495,2.459797 0.64423,0.966349 1.72771,1.610582 1.08348,0.614949 2.48908,0.995632 1.4056,0.380683 2.9869,0.702799 2.48908,0.5271 4.74389,1.229899 2.2841,0.673516 4.0411,1.903414 1.757,1.229899 2.78191,3.221163 1.02492,1.961982 1.02492,5.036728 0,3.162596 -1.17134,5.475977 -1.17133,2.313381 -3.33829,3.836112 -2.13768,1.4934488 -5.21243,2.2255313 -3.07475,0.7320825 -6.73516,0.7320825 -3.19188,0 -6.29591,-0.6442326 -3.07474,-0.6149493 -5.12458,-1.756998 v -6.0616432 q 2.89905,1.259182 5.65168,1.844848 2.75263,0.556383 5.68096,0.556383 1.69843,0 3.3383,-0.26355 1.63986,-0.292833 2.92833,-0.966349 1.31775,-0.673516 2.1084,-1.815565 0.79064,-1.171332 0.79064,-2.869763 z"
           id="path429" /><path
           d="m 173.07668,-8.751977 q -1.31775,0.5563827 -3.22116,0.9370656 -1.90342,0.4099662 -4.01181,0.4099662 -3.07475,0 -5.73953,-0.878499 -2.66478,-0.878499 -4.65605,-2.6647808 -1.99126,-1.786281 -3.13331,-4.509628 -1.14205,-2.75263 -1.14205,-6.413042 0,-4.099662 1.31775,-7.027992 1.31775,-2.92833 3.39686,-4.743895 2.1084,-1.844848 4.71462,-2.694064 2.63549,-0.878499 5.18314,-0.878499 1.90341,0 3.66041,0.3514 1.757,0.322116 3.19188,0.907782 v 5.651677 q -1.28846,-0.556383 -2.75263,-0.878499 -1.43488,-0.351399 -3.10403,-0.351399 -1.66915,0 -3.19188,0.527099 -1.52273,0.497816 -2.69406,1.610581 -1.17133,1.112766 -1.87413,2.957614 -0.67352,1.815564 -0.67352,4.392495 0,1.874131 0.5271,3.543279 0.5271,1.639865 1.52273,2.811197 1.02492,1.171332 2.57693,1.903414 1.5813,0.7028 3.71898,0.7028 1.90342,0 3.45543,-0.380683 1.55202,-0.380683 2.92833,-0.937066 z"
           id="path431" /><path
           d="m 176.60963,-36.512545 h 6.94014 v 28.3755173 h -6.94014 z m -0.1757,-14.026701 h 7.29154 v 7.525808 h -7.29154 z"
           id="path433" /><path
           d="m 203.30565,-12.998056 q 2.02055,0 4.21679,-0.409966 2.19625,-0.409966 4.45106,-1.171332 v 5.534544 q -1.34703,0.585666 -4.12894,1.1127654 -2.78191,0.5270994 -5.76881,0.5270994 -3.01618,0 -5.73953,-0.7613658 -2.69406,-0.7906491 -4.71461,-2.518364 -2.02055,-1.727715 -3.22116,-4.480345 -1.17133,-2.75263 -1.17133,-6.676592 0,-3.865396 1.11276,-6.764442 1.11277,-2.899047 2.9869,-4.802462 1.87413,-1.903414 4.27536,-2.84048 2.43051,-0.966349 5.00744,-0.966349 2.69407,0 4.94888,0.819933 2.2841,0.819932 3.92396,2.57693 1.66915,1.756998 2.57693,4.538912 0.93707,2.75263 0.93707,6.530176 -0.0293,1.464165 -0.0879,2.48908 h -18.5949 q 0.14642,1.961981 0.8785,3.36758 0.73209,1.376315 1.90342,2.254814 1.20061,0.849215 2.78191,1.259182 1.5813,0.380682 3.42615,0.380682 z m -2.78192,-18.799878 q -1.31774,0 -2.34266,0.497816 -1.02492,0.468533 -1.78628,1.317748 -0.73208,0.819933 -1.17133,1.932698 -0.43925,1.112766 -0.58567,2.371948 h 11.15694 q 0,-1.259182 -0.3514,-2.371948 -0.32212,-1.112765 -0.99563,-1.932698 -0.64424,-0.849215 -1.63987,-1.317748 -0.96635,-0.497816 -2.2841,-0.497816 z"
           id="path435" /><path
           d="m 223.17868,-32.5593 h 0.11713 q 0.61495,-0.878499 1.55202,-1.727715 0.93706,-0.849215 2.13768,-1.493448 1.20061,-0.644233 2.63549,-1.024915 1.46417,-0.409967 3.10403,-0.409967 1.55202,0 2.9869,0.3514 1.46417,0.3514 2.66478,1.112765 1.20062,0.732083 2.1084,1.932698 0.93706,1.171332 1.46416,2.811197 0.29284,0.907782 0.38069,1.991264 0.11713,1.054199 0.11713,2.459798 v 18.4191953 h -6.94014 V -25.472741 q 0,-1.142049 -0.0879,-1.961981 -0.0878,-0.819933 -0.32212,-1.434882 -0.5271,-1.347032 -1.61058,-1.932698 -1.0542,-0.585666 -2.57693,-0.585666 -2.02055,0 -3.89468,0.966349 -1.84485,0.937066 -3.27973,2.75263 v 19.5319613 h -6.94014 V -36.512545 h 5.73953 z"
           id="path437" /><path
           d="m 267.85466,-8.751977 q -1.31775,0.5563827 -3.22116,0.9370656 -1.90342,0.4099662 -4.01182,0.4099662 -3.07474,0 -5.73952,-0.878499 -2.66478,-0.878499 -4.65605,-2.6647808 -1.99126,-1.786281 -3.13331,-4.509628 -1.14205,-2.75263 -1.14205,-6.413042 0,-4.099662 1.31775,-7.027992 1.31775,-2.92833 3.39686,-4.743895 2.1084,-1.844848 4.71461,-2.694064 2.6355,-0.878499 5.18315,-0.878499 1.90341,0 3.66041,0.3514 1.757,0.322116 3.19188,0.907782 v 5.651677 q -1.28847,-0.556383 -2.75263,-0.878499 -1.43488,-0.351399 -3.10403,-0.351399 -1.66915,0 -3.19188,0.527099 -1.52273,0.497816 -2.69406,1.610581 -1.17134,1.112766 -1.87414,2.957614 -0.67351,1.815564 -0.67351,4.392495 0,1.874131 0.5271,3.543279 0.5271,1.639865 1.52273,2.811197 1.02491,1.171332 2.57693,1.903414 1.5813,0.7028 3.71898,0.7028 1.90341,0 3.45543,-0.380683 1.55201,-0.380683 2.92833,-0.937066 z"
           id="path439" /><path
           d="m 285.82426,-12.998056 q 2.02055,0 4.2168,-0.409966 2.19625,-0.409966 4.45106,-1.171332 v 5.534544 q -1.34703,0.585666 -4.12895,1.1127654 -2.78191,0.5270994 -5.76881,0.5270994 -3.01618,0 -5.73952,-0.7613658 -2.69407,-0.7906491 -4.71461,-2.518364 -2.02055,-1.727715 -3.22117,-4.480345 -1.17133,-2.75263 -1.17133,-6.676592 0,-3.865396 1.11277,-6.764442 1.11276,-2.899047 2.98689,-4.802462 1.87413,-1.903414 4.27537,-2.84048 2.43051,-0.966349 5.00744,-0.966349 2.69406,0 4.94888,0.819933 2.28409,0.819932 3.92396,2.57693 1.66915,1.756998 2.57693,4.538912 0.93707,2.75263 0.93707,6.530176 -0.0293,1.464165 -0.0879,2.48908 h -18.5949 q 0.14642,1.961981 0.8785,3.36758 0.73208,1.376315 1.90341,2.254814 1.20062,0.849215 2.78192,1.259182 1.5813,0.380682 3.42614,0.380682 z m -2.78191,-18.799878 q -1.31775,0 -2.34266,0.497816 -1.02492,0.468533 -1.78629,1.317748 -0.73208,0.819933 -1.17133,1.932698 -0.43925,1.112766 -0.58566,2.371948 h 11.15693 q 0,-1.259182 -0.3514,-2.371948 -0.32211,-1.112765 -0.99563,-1.932698 -0.64423,-0.849215 -1.63986,-1.317748 -0.96635,-0.497816 -2.2841,-0.497816 z"
           id="path441" /></g><g
         aria-label="Look Up "
         id="text2214"
         style="font-weight:bold;font-size:59.9722px;line-height:1.25;font-family:Corbel;-inkscape-font-specification:'Corbel Bold';letter-spacing:-3.96875px;word-spacing:-3.96875px;fill:#005472;stroke-width:0.264583"><path
           d="m 416.52603,-47.318083 v 33.177979 h 18.33134 v 6.0030763 H 409.35162 V -47.318083 Z"
           id="path401" /><path
           d="m 456.62864,-22.310145 q 0,-2.254814 -0.5271,-3.982529 -0.5271,-1.727714 -1.46416,-2.899046 -0.93707,-1.171332 -2.25482,-1.756998 -1.31774,-0.585666 -2.86976,-0.585666 -1.52273,0 -2.84048,0.585666 -1.28846,0.585666 -2.22553,1.756998 -0.93707,1.171332 -1.46416,2.899046 -0.5271,1.727715 -0.5271,3.982529 0,2.254814 0.5271,3.982529 0.52709,1.727715 1.46416,2.899047 0.96635,1.142048 2.25481,1.756998 1.31775,0.585666 2.86977,0.585666 1.55201,0 2.84048,-0.585666 1.28846,-0.61495 2.22553,-1.756998 0.93706,-1.171332 1.46416,-2.899047 0.5271,-1.727715 0.5271,-3.982529 z m 7.17441,0 q 0,3.338296 -0.99563,6.090926 -0.99563,2.752631 -2.86976,4.714612 -1.84485,1.9619809 -4.48035,3.045463 -2.6355,1.0541988 -5.88594,1.0541988 -3.3383,0 -6.00308,-1.0541988 -2.6355,-1.0834821 -4.48034,-3.045463 -1.84485,-1.961981 -2.84048,-4.714612 -0.96635,-2.75263 -0.96635,-6.090926 0,-3.338296 0.99563,-6.090926 0.99563,-2.752631 2.84048,-4.714612 1.87413,-1.961981 4.50963,-3.01618 2.6355,-1.083482 5.88594,-1.083482 3.3383,0 5.97379,1.083482 2.66479,1.054199 4.50963,3.01618 1.84485,1.961981 2.8112,4.714612 0.99563,2.75263 0.99563,6.090926 z"
           id="path403" /><path
           d="m 485.86716,-22.310145 q 0,-2.254814 -0.5271,-3.982529 -0.5271,-1.727714 -1.46417,-2.899046 -0.93706,-1.171332 -2.25481,-1.756998 -1.31775,-0.585666 -2.86976,-0.585666 -1.52274,0 -2.84048,0.585666 -1.28847,0.585666 -2.22554,1.756998 -0.93706,1.171332 -1.46416,2.899046 -0.5271,1.727715 -0.5271,3.982529 0,2.254814 0.5271,3.982529 0.5271,1.727715 1.46416,2.899047 0.96635,1.142048 2.25482,1.756998 1.31775,0.585666 2.86976,0.585666 1.55202,0 2.84048,-0.585666 1.28847,-0.61495 2.22553,-1.756998 0.93707,-1.171332 1.46417,-2.899047 0.5271,-1.727715 0.5271,-3.982529 z m 7.17441,0 q 0,3.338296 -0.99564,6.090926 -0.99563,2.752631 -2.86976,4.714612 -1.84485,1.9619809 -4.48034,3.045463 -2.6355,1.0541988 -5.88595,1.0541988 -3.33829,0 -6.00307,-1.0541988 -2.6355,-1.0834821 -4.48035,-3.045463 -1.84485,-1.961981 -2.84048,-4.714612 -0.96635,-2.75263 -0.96635,-6.090926 0,-3.338296 0.99563,-6.090926 0.99564,-2.752631 2.84048,-4.714612 1.87414,-1.961981 4.50963,-3.01618 2.6355,-1.083482 5.88595,-1.083482 3.33829,0 5.97379,1.083482 2.66478,1.054199 4.50963,3.01618 1.84484,1.961981 2.81119,4.714612 0.99564,2.75263 0.99564,6.090926 z"
           id="path405" /><path
           d="m 495.51514,-50.539246 h 6.94015 v 25.535037 h 0.14641 l 10.80554,-11.508336 h 8.58001 l -12.44541,13.323901 12.53326,15.0516163 h -8.40431 L 502.57242,-21.343796 h -0.11713 v 13.2067683 h -6.94015 z"
           id="path407" /><path
           d="m 541.97051,-7.4049452 q -3.07475,0 -5.53454,-0.6149493 -2.4598,-0.585666 -4.33393,-1.6984314 -1.87413,-1.1420491 -3.19188,-2.7526301 -1.31775,-1.639865 -2.1084,-3.689696 -0.64423,-1.639865 -0.93707,-3.631129 -0.26355,-1.991265 -0.26355,-4.451062 v -23.07524 h 7.17441 v 22.431008 q 0,4.158228 0.99564,6.500892 1.11276,2.606214 3.25044,3.777546 2.13768,1.142049 5.03673,1.142049 2.89905,0 5.03673,-1.142049 2.13768,-1.171332 3.25044,-3.777546 0.99564,-2.342664 0.99564,-6.500892 v -22.431008 h 7.1744 v 23.07524 q 0,2.459797 -0.29283,4.451062 -0.26355,1.991264 -0.90778,3.631129 -0.79065,2.049831 -2.13768,3.689696 -1.31775,1.610581 -3.25045,2.7526301 -1.90341,1.1127654 -4.39249,1.6984314 -2.48908,0.6149493 -5.56383,0.6149493 z"
           id="path409" /><path
           d="m 576.18719,-31.651518 q -1.81557,0.02928 -3.45543,0.907783 -1.63987,0.849215 -2.89905,2.31338 v 12.650386 q 0.43925,0.497816 1.0542,0.995632 0.61495,0.497816 1.37631,0.907782 0.76137,0.409967 1.66915,0.673516 0.93707,0.26355 1.9327,0.26355 1.61058,0 2.86976,-0.673516 1.25919,-0.702799 2.07912,-1.961981 0.84921,-1.259182 1.28846,-2.986897 0.43925,-1.756998 0.43925,-3.894678 0,-2.284098 -0.46853,-4.011813 -0.43925,-1.727714 -1.28847,-2.869763 -0.81993,-1.142049 -1.99126,-1.727715 -1.17133,-0.585666 -2.60621,-0.585666 z m 0.90778,24.2465728 q -2.2841,0 -4.15823,-0.8199324 -1.84485,-0.8492157 -3.07475,-2.0791144 h -0.11713 q 0.0293,0.5856661 0.0586,1.6691482 0.0293,1.0541988 0.0293,2.3133807 V 5.4797068 h -6.94014 V -36.512545 h 6.09092 l 0.29284,3.191879 h 0.11713 q 1.28847,-1.698431 3.30901,-2.781913 2.02055,-1.112766 4.68533,-1.112766 2.31338,0 4.53891,0.878499 2.25482,0.849216 3.98253,2.635497 1.72772,1.786282 2.75263,4.509629 1.0542,2.723346 1.0542,6.471609 0,3.953245 -1.11276,6.852292 -1.11277,2.869763 -2.92833,4.773178 -1.81557,1.8741312 -4.0411,2.7819135 -2.19625,0.9077823 -4.53891,0.9077823 z"
           id="path411" /></g></g></g></svg>
