<?xml version="1.0" encoding="UTF-8" standalone="no"?>
<!-- Created with Inkscape (http://www.inkscape.org/) -->

<svg
   width="250mm"
   height="120mm"
   viewBox="0 0 250 120"
   version="1.1"
   id="svg3391"
   xml:space="preserve"
   inkscape:export-filename="bitmap.png"
   inkscape:export-xdpi="50"
   inkscape:export-ydpi="50"
   sodipodi:docname="RDM_net_white.svg"
   inkscape:version="1.2.2 (b0a8486541, 2022-12-01)"
   xmlns:inkscape="http://www.inkscape.org/namespaces/inkscape"
   xmlns:sodipodi="http://sodipodi.sourceforge.net/DTD/sodipodi-0.dtd"
   xmlns="http://www.w3.org/2000/svg"
   xmlns:svg="http://www.w3.org/2000/svg"><sodipodi:namedview
     id="namedview3393"
     pagecolor="#ffffff"
     bordercolor="#666666"
     borderopacity="1.0"
     inkscape:showpageshadow="2"
     inkscape:pageopacity="0.0"
     inkscape:pagecheckerboard="0"
     inkscape:deskcolor="#d1d1d1"
     inkscape:document-units="mm"
     showgrid="false"
     inkscape:zoom="0.70958379"
     inkscape:cx="189.54773"
     inkscape:cy="195.18484"
     inkscape:window-width="1920"
     inkscape:window-height="1032"
     inkscape:window-x="0"
     inkscape:window-y="0"
     inkscape:window-maximized="1"
     inkscape:current-layer="g1974" /><defs
     id="defs3388" /><g
     inkscape:label="Layer 1"
     inkscape:groupmode="layer"
     id="layer1"
     transform="translate(91.126029,69.744965)"><g
       id="g1974"
       transform="translate(9.6916969,8.2475198)"><path
         style="fill:#f47d20;fill-opacity:1;stroke-width:0.264583"
         d="m -41.713613,-31.438801 c -4.948262,-0.821902 -9.418916,-5.376402 -10.355469,-10.549684 -0.672878,-3.716805 0.464394,-8.232219 2.648905,-10.517187 0.452149,-0.472943 0.752425,-0.859896 0.667279,-0.859896 -0.275407,0 -6.321235,2.42864 -7.412636,2.977695 -2.708121,1.362385 -5.989171,3.908131 -9.185965,7.127333 -1.875859,1.889011 -3.580069,3.388722 -3.850802,3.388722 -0.26712,0 -1.015,-0.33514 -1.661954,-0.744757 -0.646953,-0.409615 -1.831123,-1.11044 -2.631487,-1.557388 -6.221209,-3.474106 -8.430528,-4.894048 -8.280699,-5.322051 0.516276,-1.474803 4.409323,-5.973162 7.871783,-9.095727 7.918101,-7.14081 18.046155,-11.692061 28.76228,-12.924927 3.973444,-0.457136 11.654589,-0.199649 15.56747,0.521851 5.512115,1.016384 11.846295,3.397843 16.921721,6.362052 3.1839667,1.859536 7.9242523,5.60257 10.6075983,8.375993 2.77438121,2.867515 5.5435977,6.388383 5.5435977,7.048304 0,0.231797 -0.3274218,0.649 -0.7276041,0.927114 -1.1624231,0.807852 -11.9219982,6.939793 -12.1565593,6.92809 -0.1169908,-0.0058 -0.6793596,-0.601972 -1.2497096,-1.32475 -1.410544,-1.787514 -4.99396,-5.284523 -6.767798,-6.604603 -2.421001,-1.801691 -5.401646,-3.427875 -8.779529,-4.789942 -1.763641,-0.711155 -3.26432,-1.293009 -3.334848,-1.293009 -0.07053,0 0.184971,0.246364 0.567772,0.547476 1.049835,0.825802 2.493087,4.065979 2.858757,6.418069 1.102329,7.090455 -3.712218,13.854351 -10.664523,14.982463 -1.935938,0.314131 -2.965006,0.309724 -4.95758,-0.02125 z"
         id="path3506"
         inkscape:export-filename="./path3506.png"
         inkscape:export-xdpi="50"
         inkscape:export-ydpi="50" /><path
         style="fill:#005472;fill-opacity:1;stroke-width:0.264583"
         d="m -35.131158,26.060244 v -7.699751 l 0.992187,-0.154352 c 1.948768,-0.303165 6.577809,-1.535345 8.26823,-2.200878 2.755963,-1.085046 5.769676,-2.77989 8.399854,-4.723884 l 2.446726,-1.8084062 -2.049851,-0.164846 c -2.541622,-0.2043933 -4.557155,-0.9070578 -6.619947,-2.3078704 -3.726302,-2.5304829 -5.616366,-6.24191759 -5.616366,-11.0286004 0,-3.6709852 1.255133,-6.678202 3.855384,-9.237236 6.312041,-6.211994 17.0278986,-4.53484 21.0315392,3.2916782 l 0.6090603,1.190625 0.3312266,-1.5875002 c 0.1821735,-0.873125 0.4762791,-2.920984 0.6535684,-4.550799 0.4965277,-4.564562 -0.2782384,-10.701168 -1.8974461,-15.028888 -0.5418059,-1.448107 -0.5492777,-1.562614 -0.1223434,-1.874798 0.9403954,-0.687631 12.5358792,-7.252806 12.8099902,-7.252806 0.4123928,0 0.9163897,1.085173 1.9674364,4.236156 1.7840854,5.348584 2.5148994,9.338419 2.7376704,14.946135 0.487323,12.2672635 -3.3672994,24.1465734 -11.0929423,34.186627 -3.06977,3.989395 -8.8749613,9.130781 -13.4907817,11.948154 -6.277647,3.831707 -14.88725,6.817191 -21.197938,7.350639 l -2.015257,0.170352 z"
         id="path3490"
         sodipodi:nodetypes="ccssscssssscsssssssssscc" /><path
         style="fill:#ffffff;fill-opacity:1;stroke-width:0.264583"
         d="m -48.228033,33.168524 c -10.981053,-1.952839 -20.466408,-7.022015 -28.317752,-15.133606 -3.226797,-3.333757 -5.613051,-6.485411 -7.789815,-10.2884202 -7.795281,-13.6191014 -8.9427,-30.2328358 -3.11209,-45.0606598 0.707827,-1.800074 0.88995,-2.05822 1.385282,-1.963534 0.972836,0.18597 12.823907,7.18943 12.827683,7.580595 0.0019,0.203232 -0.341458,1.453388 -0.763154,2.778125 -1.793092,5.632916 -2.158548,12.931018 -0.922189,18.415908 0.143523,0.6367167 0.169455,0.6219767 0.693211,-0.394018 0.960707,-1.863598 3.648887,-4.283424 5.9431,-5.349819 1.867953,-0.868262 2.332024,-0.970907 4.884512,-1.080376 2.341052,-0.100404 3.128063,-0.02728 4.630209,0.430212 6.589929,2.007016 10.533009,8.8849467 8.948036,15.6081017 -1.27132,5.3926977 -5.665896,9.4261383 -10.993821,10.0903694 -1.1019,0.1373743 -2.292525,0.1810994 -2.645833,0.097168 -0.578263,-0.1373743 -0.549953,-0.069969 0.283662,0.6753331 1.462249,1.3073408 5.472324,3.9520338 7.658817,5.0510838 2.535923,1.274691 5.899894,2.462376 8.613058,3.040933 1.164167,0.248248 2.325026,0.508709 2.579688,0.578805 0.427365,0.117634 0.463021,0.716918 0.463021,7.782536 v 7.655086 l -0.859896,-0.02164 c -0.472943,-0.01191 -2.050521,-0.233383 -3.505729,-0.492175 z"
         id="path3486" /><text
         xml:space="preserve"
         style="font-weight:bold;font-size:19.7556px;line-height:1.25;font-family:Corbel;-inkscape-font-specification:'Corbel Bold';letter-spacing:0px;word-spacing:0px;fill:#f47d20;fill-opacity:1;stroke-width:0.264583"
         x="24.393742"
         y="-50.172504"
         id="text314"><tspan
           sodipodi:role="line"
           id="tspan312"
           x="24.393742"
           y="-50.172504"
           style="font-size:19.7556px;letter-spacing:1.04775px;fill:#ffffff;fill-opacity:1;stroke-width:0.264583">Life Science</tspan><tspan
           sodipodi:role="line"
           x="24.393742"
           y="-25.478004"
           style="font-size:19.7556px;fill:#f47d20;fill-opacity:1;stroke-width:0.264583"
           id="tspan316"><tspan
   style="letter-spacing:-0.687917px"
   id="tspan1871">Research Data</tspan> </tspan><tspan
           sodipodi:role="line"
           x="24.393742"
           y="-0.78350449"
           style="font-size:19.7556px;fill:#f47d20;fill-opacity:1;stroke-width:0.264583"
           id="tspan318">Management</tspan><tspan
           sodipodi:role="line"
           x="24.393742"
           y="23.910995"
           style="font-size:19.7556px;letter-spacing:-0.814917px;fill:#005472;fill-opacity:1;stroke-width:0.264583"
           id="tspan320">Group Norway</tspan></text></g></g></svg>
