<?xml version="1.0" encoding="UTF-8" standalone="no"?>
<!-- Created with Inkscape (http://www.inkscape.org/) -->

<svg
   version="1.1"
   id="svg814"
   width="2534.2798"
   height="624.85333"
   viewBox="0 0 2534.2798 624.85333"
   sodipodi:docname="Stottet_av_Forskningsradet_logo_Engelsk_01_Weller_CMYK.svg"
   inkscape:version="1.2.2 (b0a8486541, 2022-12-01)"
   xmlns:inkscape="http://www.inkscape.org/namespaces/inkscape"
   xmlns:sodipodi="http://sodipodi.sourceforge.net/DTD/sodipodi-0.dtd"
   xmlns="http://www.w3.org/2000/svg"
   xmlns:svg="http://www.w3.org/2000/svg">
  <defs
     id="defs818">
    <clipPath
       clipPathUnits="userSpaceOnUse"
       id="clipPath834">
      <path
         d="M 0,1029 H 2461 V 0 H 0 Z"
         id="path832" />
    </clipPath>
  </defs>
  <sodipodi:namedview
     id="namedview816"
     pagecolor="#ffffff"
     bordercolor="#666666"
     borderopacity="1.0"
     inkscape:showpageshadow="2"
     inkscape:pageopacity="0.0"
     inkscape:pagecheckerboard="0"
     inkscape:deskcolor="#d1d1d1"
     showgrid="false"
     showguides="false"
     inkscape:zoom="0.4415888"
     inkscape:cx="891.10049"
     inkscape:cy="313.6402"
     inkscape:window-width="1920"
     inkscape:window-height="1032"
     inkscape:window-x="0"
     inkscape:window-y="0"
     inkscape:window-maximized="1"
     inkscape:current-layer="g822">
    <inkscape:page
       x="0"
       y="0"
       id="page820"
       width="2534.2798"
       height="624.85333" />
  </sodipodi:namedview>
  <g
     id="g822"
     inkscape:groupmode="layer"
     inkscape:label="Page 1"
     transform="matrix(1.3333333,0,0,-1.3333333,-373.33332,998.66664)">
    <g
       id="g824"
       transform="translate(897.839,695.8)"
       style="fill:#ffffff">
      <path
         d="M 0,0 H 49.92 V -15.2 H 0 V -64.8 H -17.6 V 49.6 H 61.76 V 34.4 H 0 Z"
         style="fill:#ffffff;fill-opacity:1;fill-rule:nonzero;stroke:none"
         id="path826" />
    </g>
    <g
       id="g828"
       style="fill:#ffffff">
      <g
         id="g830"
         clip-path="url(#clipPath834)"
         style="fill:#ffffff">
        <g
           id="g836"
           transform="translate(982.631,660.44)"
           style="fill:#ffffff">
          <path
             d="m 0,0 c 0,-3.626 0.533,-6.826 1.6,-9.6 1.173,-2.773 2.933,-4.96 5.28,-6.56 2.453,-1.493 5.653,-2.24 9.6,-2.24 3.409,0 6.449,0.48 9.119,1.44 2.77,0.96 5.12,2.347 7.04,4.16 1.92,1.92 3.36,4.107 4.32,6.56 1.07,2.454 1.6,5.227 1.6,8.32 h 0.32 V -19.2 h -0.64 c -2.13,-3.093 -5.39,-5.973 -9.76,-8.64 -4.37,-2.56 -10.08,-3.84 -17.119,-3.84 -5.014,0 -9.6,0.96 -13.76,2.88 -4.054,1.92 -7.307,4.907 -9.76,8.96 -2.454,4.16 -3.68,9.334 -3.68,15.52 V 52.16 H 0 Z m 54.239,-29.44 h -15.68 v 81.6 h 15.68 z"
             style="fill:#ffffff;fill-opacity:1;fill-rule:nonzero;stroke:none"
             id="path838" />
        </g>
        <g
           id="g840"
           transform="translate(1110.95,683.32)"
           style="fill:#ffffff">
          <path
             d="m 0,0 c 0,3.627 -0.59,6.827 -1.76,9.6 -1.07,2.774 -2.83,4.907 -5.28,6.4 -2.35,1.494 -5.5,2.24 -9.44,2.24 -3.42,0 -6.51,-0.48 -9.28,-1.44 -2.67,-0.96 -4.96,-2.346 -6.88,-4.16 -1.92,-1.813 -3.42,-4 -4.48,-6.56 -0.96,-2.453 -1.44,-5.226 -1.44,-8.32 H -44 v 21.28 h 5.76 c 2.13,3.094 5.38,5.974 9.76,8.64 4.37,2.667 10.08,4 17.12,4 5.12,0 9.7,-1.013 13.76,-3.04 4.05,-1.92 7.3,-4.906 9.76,-8.96 2.45,-3.946 3.68,-9.066 3.68,-15.36 V -52.32 H 0 Z m -54.24,29.28 h 15.68 v -81.6 h -15.68 z"
             style="fill:#ffffff;fill-opacity:1;fill-rule:nonzero;stroke:none"
             id="path842" />
        </g>
        <g
           id="g844"
           transform="translate(1180.4,641.72)"
           style="fill:#ffffff">
          <path
             d="m 0,0 c 3.63,0 6.83,0.694 9.6,2.08 2.78,1.387 5.12,3.414 7.04,6.08 2.03,2.667 3.58,5.814 4.64,9.44 1.07,3.734 1.6,7.894 1.6,12.48 0,6.187 -0.9,11.52 -2.72,16 -1.81,4.587 -4.42,8.054 -7.84,10.4 C 8.91,58.934 4.8,60.16 0,60.16 c -3.73,0 -7.04,-0.8 -9.92,-2.4 -2.88,-1.6 -5.28,-3.786 -7.2,-6.56 -1.81,-2.773 -3.2,-5.973 -4.16,-9.6 -0.96,-3.626 -1.44,-7.466 -1.44,-11.52 0,-5.333 0.8,-10.293 2.4,-14.88 1.71,-4.586 4.27,-8.266 7.68,-11.04 C -9.22,1.387 -5.01,0 0,0 m 22.56,60.96 h 4.32 V -1.12 h -4.32 c -1.38,-1.813 -3.25,-3.68 -5.6,-5.6 -2.24,-1.813 -5.01,-3.306 -8.32,-4.48 -3.2,-1.173 -6.93,-1.76 -11.2,-1.76 -6.93,0 -13.17,1.707 -18.72,5.12 -5.44,3.414 -9.76,8.32 -12.96,14.72 -3.2,6.507 -4.8,14.24 -4.8,23.2 0,6.72 0.91,12.747 2.72,18.08 1.82,5.334 4.38,9.867 7.68,13.6 3.42,3.734 7.31,6.56 11.68,8.48 4.38,2.027 9.18,3.04 14.4,3.04 4.27,0 8,-0.586 11.2,-1.76 3.31,-1.173 6.08,-2.72 8.32,-4.64 2.35,-1.813 4.22,-3.786 5.6,-5.92 m 0.32,42.72 H 38.72 V -10.72 H 22.88 Z"
             style="fill:#ffffff;fill-opacity:1;fill-rule:nonzero;stroke:none"
             id="path846" />
        </g>
        <g
           id="g848"
           transform="translate(1274.7,628.6)"
           style="fill:#ffffff">
          <path
             d="m 0,0 c -8.64,0 -16,1.867 -22.08,5.6 -5.97,3.734 -10.5,8.854 -13.6,15.36 -3.09,6.614 -4.64,14.08 -4.64,22.4 0,6.4 0.91,12.214 2.72,17.44 1.92,5.334 4.59,9.92 8,13.76 3.52,3.84 7.74,6.774 12.64,8.8 5.02,2.134 10.67,3.2 16.96,3.2 8.32,0 15.31,-1.706 20.96,-5.12 5.76,-3.413 10.14,-8.266 13.12,-14.56 3.1,-6.186 4.64,-13.493 4.64,-21.92 V 41.6 c 0,-1.066 -0.05,-1.92 -0.16,-2.56 h -71.04 v 12.32 h 54.72 c 0,3.2 -0.53,6.134 -1.6,8.8 -1.06,2.774 -2.61,5.174 -4.64,7.2 -1.92,2.027 -4.26,3.574 -7.04,4.64 -2.77,1.174 -5.92,1.76 -9.44,1.76 -4.58,0 -8.69,-1.013 -12.32,-3.04 -3.52,-2.026 -6.29,-4.853 -8.32,-8.48 -2.02,-3.626 -3.04,-7.893 -3.04,-12.8 v -5.12 -4.48 c 0,-4.693 0.91,-9.066 2.72,-13.12 1.82,-4.053 4.54,-7.413 8.16,-10.08 3.63,-2.56 8.16,-3.84 13.6,-3.84 4.8,0 8.64,0.854 11.52,2.56 2.99,1.707 5.23,3.68 6.72,5.92 1.6,2.347 2.67,4.427 3.2,6.24 H 37.6 C 36.22,22.294 33.92,17.6 30.72,13.44 27.52,9.28 23.36,5.974 18.24,3.52 13.23,1.174 7.15,0 0,0"
             style="fill:#ffffff;fill-opacity:1;fill-rule:nonzero;stroke:none"
             id="path850" />
        </g>
        <g
           id="g852"
           transform="translate(1364.26,641.72)"
           style="fill:#ffffff">
          <path
             d="m 0,0 c 3.62,0 6.82,0.694 9.6,2.08 2.77,1.387 5.12,3.414 7.04,6.08 2.02,2.667 3.57,5.814 4.64,9.44 1.06,3.734 1.6,7.894 1.6,12.48 0,6.187 -0.91,11.52 -2.72,16 -1.82,4.587 -4.43,8.054 -7.84,10.4 C 8.9,58.934 4.8,60.16 0,60.16 c -3.74,0 -7.04,-0.8 -9.92,-2.4 -2.88,-1.6 -5.28,-3.786 -7.2,-6.56 -1.82,-2.773 -3.2,-5.973 -4.16,-9.6 -0.96,-3.626 -1.44,-7.466 -1.44,-11.52 0,-5.333 0.8,-10.293 2.4,-14.88 1.7,-4.586 4.26,-8.266 7.68,-11.04 C -9.23,1.387 -5.02,0 0,0 m 22.56,60.96 h 4.32 V -1.12 h -4.32 c -1.39,-1.813 -3.26,-3.68 -5.6,-5.6 -2.24,-1.813 -5.02,-3.306 -8.32,-4.48 -3.2,-1.173 -6.94,-1.76 -11.2,-1.76 -6.94,0 -13.18,1.707 -18.72,5.12 -5.44,3.414 -9.76,8.32 -12.96,14.72 -3.2,6.507 -4.8,14.24 -4.8,23.2 0,6.72 0.9,12.747 2.72,18.08 1.81,5.334 4.37,9.867 7.68,13.6 3.41,3.734 7.3,6.56 11.68,8.48 4.37,2.027 9.17,3.04 14.4,3.04 4.26,0 8,-0.586 11.2,-1.76 3.3,-1.173 6.08,-2.72 8.32,-4.64 2.34,-1.813 4.21,-3.786 5.6,-5.92 m 0.32,42.72 H 38.72 V -10.72 H 22.88 Z"
             style="fill:#ffffff;fill-opacity:1;fill-rule:nonzero;stroke:none"
             id="path854" />
        </g>
        <g
           id="g856"
           transform="translate(1497.87,701.88)"
           style="fill:#ffffff">
          <path
             d="m 0,0 c -3.52,0 -6.72,-0.693 -9.6,-2.08 -2.77,-1.28 -5.17,-3.253 -7.2,-5.92 -1.92,-2.666 -3.41,-5.866 -4.48,-9.6 -0.96,-3.626 -1.44,-7.786 -1.44,-12.48 0,-6.08 0.91,-11.413 2.72,-16 1.82,-4.48 4.43,-7.946 7.84,-10.4 3.42,-2.453 7.47,-3.68 12.16,-3.68 3.74,0 7.04,0.8 9.92,2.4 2.88,1.707 5.23,3.947 7.04,6.72 1.92,2.774 3.36,5.974 4.32,9.6 0.96,3.627 1.44,7.414 1.44,11.36 0,5.334 -0.85,10.294 -2.56,14.88 -1.6,4.587 -4.1,8.267 -7.52,11.04 C 9.34,-1.386 5.12,0 0,0 m -22.56,-60.8 h -4.16 V 1.12 h 4.16 c 1.5,2.027 3.36,3.947 5.6,5.76 2.24,1.814 4.96,3.307 8.16,4.48 3.31,1.174 7.1,1.76 11.36,1.76 6.94,0 13.12,-1.76 18.56,-5.28 5.55,-3.413 9.92,-8.373 13.12,-14.88 3.31,-6.4 4.96,-14.08 4.96,-23.04 0,-6.72 -0.96,-12.746 -2.88,-18.08 -1.81,-5.333 -4.37,-9.866 -7.68,-13.6 -3.3,-3.626 -7.2,-6.453 -11.68,-8.48 -4.37,-1.92 -9.17,-2.88 -14.4,-2.88 -4.26,0 -8.05,0.587 -11.36,1.76 -3.2,1.174 -5.92,2.667 -8.16,4.48 -2.24,1.92 -4.1,3.947 -5.6,6.08 m -0.32,-10.08 h -15.68 v 114.4 h 15.68 z"
             style="fill:#ffffff;fill-opacity:1;fill-rule:nonzero;stroke:none"
             id="path858" />
        </g>
        <g
           id="g860"
           transform="translate(1574.66,631.8)"
           style="fill:#ffffff">
          <path
             d="M 0,0 -33.12,80.8 H -16 L 7.84,18.4 H 8.16 L 30.72,80.8 H 47.04 L 14.88,-2.72 C 12.21,-9.333 9.49,-14.613 6.72,-18.56 3.94,-22.506 0.9,-25.28 -2.4,-26.88 c -3.2,-1.706 -6.94,-2.56 -11.2,-2.56 -1.71,0 -3.31,0.107 -4.8,0.32 -1.5,0.107 -3.26,0.374 -5.28,0.8 v 12.8 c 1.38,-0.106 2.56,-0.213 3.52,-0.32 0.96,-0.106 2.02,-0.16 3.2,-0.16 2.13,0 4.26,0.48 6.4,1.44 2.24,0.854 4.26,2.454 6.08,4.8 1.81,2.24 3.3,5.494 4.48,9.76"
             style="fill:#ffffff;fill-opacity:1;fill-rule:nonzero;stroke:none"
             id="path862" />
        </g>
        <g
           id="g864"
           transform="translate(910.319,470)"
           style="fill:#ffffff">
          <path
             d="m 0,0 v 99.2 h -36.96 v 15.2 H 54.72 V 99.2 H 17.76 V 0 Z"
             style="fill:#ffffff;fill-opacity:1;fill-rule:nonzero;stroke:none"
             id="path866" />
        </g>
        <g
           id="g868"
           transform="translate(1029.96,522.32)"
           style="fill:#ffffff">
          <path
             d="m 0,0 c 0,3.627 -0.59,6.827 -1.76,9.6 -1.07,2.774 -2.83,4.907 -5.28,6.4 -2.35,1.494 -5.5,2.24 -9.44,2.24 -3.42,0 -6.51,-0.48 -9.28,-1.44 -2.67,-0.96 -4.964,-2.346 -6.884,-4.16 -1.92,-1.813 -3.414,-4 -4.48,-6.56 -0.96,-2.453 -1.44,-5.226 -1.44,-8.32 h -5.44 v 21.28 h 5.76 c 2.133,3.094 5.386,5.974 9.764,8.64 4.37,2.667 10.08,4 17.12,4 5.12,0 9.7,-1.013 13.76,-3.04 4.05,-1.92 7.3,-4.906 9.76,-8.96 2.45,-3.946 3.68,-9.066 3.68,-15.36 V -52.32 H 0 Z m -54.244,62.08 h 15.68 v -114.4 h -15.68 z"
             style="fill:#ffffff;fill-opacity:1;fill-rule:nonzero;stroke:none"
             id="path870" />
        </g>
        <g
           id="g872"
           transform="translate(1100.6899,467.6)"
           style="fill:#ffffff">
          <path
             d="m 0,0 c -8.64,0 -16,1.867 -22.08,5.6 -5.97,3.734 -10.5,8.854 -13.6,15.36 -3.09,6.614 -4.64,14.08 -4.64,22.4 0,6.4 0.91,12.214 2.72,17.44 1.92,5.334 4.59,9.92 8,13.76 3.52,3.84 7.74,6.774 12.64,8.8 5.02,2.134 10.67,3.2 16.96,3.2 8.32,0 15.31,-1.706 20.96,-5.12 5.76,-3.413 10.14,-8.266 13.12,-14.56 3.1,-6.186 4.64,-13.493 4.64,-21.92 V 41.6 c 0,-1.066 -0.05,-1.92 -0.16,-2.56 h -71.04 v 12.32 h 54.72 c 0,3.2 -0.53,6.134 -1.6,8.8 -1.06,2.774 -2.61,5.174 -4.64,7.2 -1.92,2.027 -4.26,3.574 -7.04,4.64 -2.77,1.174 -5.92,1.76 -9.44,1.76 -4.58,0 -8.69,-1.013 -12.32,-3.04 -3.52,-2.026 -6.29,-4.853 -8.32,-8.48 -2.02,-3.626 -3.04,-7.893 -3.04,-12.8 v -5.12 -4.48 c 0,-4.693 0.91,-9.066 2.72,-13.12 1.82,-4.053 4.54,-7.413 8.16,-10.08 3.63,-2.56 8.16,-3.84 13.6,-3.84 4.8,0 8.64,0.854 11.52,2.56 2.99,1.707 5.23,3.68 6.72,5.92 1.6,2.347 2.67,4.427 3.2,6.24 H 37.6 C 36.22,22.294 33.92,17.6 30.72,13.44 27.52,9.28 23.36,5.974 18.24,3.52 13.23,1.174 7.15,0 0,0"
             style="fill:#ffffff;fill-opacity:1;fill-rule:nonzero;stroke:none"
             id="path874" />
        </g>
        <g
           id="g876"
           transform="translate(1211.8,569.2)"
           style="fill:#ffffff">
          <path
             d="m 0,0 v -39.2 h 26.24 c 5.44,0 9.97,0.747 13.6,2.24 3.73,1.6 6.56,3.894 8.48,6.88 1.92,2.987 2.88,6.667 2.88,11.04 0,6.187 -1.92,10.88 -5.76,14.08 C 41.71,-1.653 35.41,0 26.56,0 Z M -17.6,-99.2 V 15.2 h 47.68 c 12.69,0 22.35,-2.88 28.96,-8.64 6.61,-5.653 9.92,-13.76 9.92,-24.32 0,-4.8 -0.91,-9.173 -2.72,-13.12 -1.81,-3.84 -4.32,-7.04 -7.52,-9.6 -3.2,-2.56 -6.88,-4.32 -11.04,-5.28 v -0.32 c 4.37,-0.853 7.84,-2.666 10.4,-5.44 2.67,-2.666 4.64,-5.92 5.92,-9.76 1.28,-3.84 2.13,-7.84 2.56,-12 0.53,-4.16 0.91,-8.053 1.12,-11.68 0.21,-3.626 0.48,-6.666 0.8,-9.12 0.43,-2.346 1.12,-3.68 2.08,-4 V -99.2 H 51.68 c -0.85,0.854 -1.39,2.507 -1.6,4.96 -0.11,2.454 -0.16,5.387 -0.16,8.8 0,3.414 -0.27,6.88 -0.8,10.4 -0.43,3.627 -1.28,6.987 -2.56,10.08 -1.28,3.094 -3.31,5.6 -6.08,7.52 -2.67,2.027 -6.35,3.04 -11.04,3.04 H 0 v -44.8 z"
             style="fill:#ffffff;fill-opacity:1;fill-rule:nonzero;stroke:none"
             id="path878" />
        </g>
        <g
           id="g880"
           transform="translate(1334.76,467.6)"
           style="fill:#ffffff">
          <path
             d="m 0,0 c -8.64,0 -16,1.867 -22.08,5.6 -5.98,3.734 -10.51,8.854 -13.6,15.36 -3.1,6.614 -4.64,14.08 -4.64,22.4 0,6.4 0.9,12.214 2.72,17.44 1.92,5.334 4.58,9.92 8,13.76 3.52,3.84 7.73,6.774 12.64,8.8 5.01,2.134 10.66,3.2 16.96,3.2 8.32,0 15.3,-1.706 20.96,-5.12 5.76,-3.413 10.13,-8.266 13.12,-14.56 3.09,-6.186 4.64,-13.493 4.64,-21.92 V 41.6 c 0,-1.066 -0.06,-1.92 -0.16,-2.56 h -71.04 v 12.32 h 54.72 c 0,3.2 -0.54,6.134 -1.6,8.8 -1.07,2.774 -2.62,5.174 -4.64,7.2 -1.92,2.027 -4.27,3.574 -7.04,4.64 -2.78,1.174 -5.92,1.76 -9.44,1.76 -4.59,0 -8.7,-1.013 -12.32,-3.04 -3.52,-2.026 -6.3,-4.853 -8.32,-8.48 -2.03,-3.626 -3.04,-7.893 -3.04,-12.8 v -5.12 -4.48 c 0,-4.693 0.9,-9.066 2.72,-13.12 1.81,-4.053 4.53,-7.413 8.16,-10.08 3.62,-2.56 8.16,-3.84 13.6,-3.84 4.8,0 8.64,0.854 11.52,2.56 2.98,1.707 5.22,3.68 6.72,5.92 1.6,2.347 2.66,4.427 3.2,6.24 H 37.6 C 36.21,22.294 33.92,17.6 30.72,13.44 27.52,9.28 23.36,5.974 18.24,3.52 13.22,1.174 7.14,0 0,0"
             style="fill:#ffffff;fill-opacity:1;fill-rule:nonzero;stroke:none"
             id="path882" />
        </g>
        <g
           id="g884"
           transform="translate(1422.74,519.28)"
           style="fill:#ffffff">
          <path
             d="m 0,0 c 3.73,-0.96 7.41,-1.973 11.04,-3.04 3.73,-1.066 7.09,-2.56 10.08,-4.48 3.09,-1.92 5.55,-4.373 7.36,-7.36 1.81,-2.986 2.72,-6.72 2.72,-11.2 0,-5.333 -1.33,-9.92 -4,-13.76 -2.56,-3.733 -6.35,-6.613 -11.36,-8.64 -5.01,-2.026 -11.09,-3.04 -18.24,-3.04 -8.21,0 -15.09,1.28 -20.64,3.84 -5.44,2.56 -9.6,6.08 -12.48,10.56 -2.77,4.48 -4.27,9.494 -4.48,15.04 h 15.84 c 0.32,-3.2 1.17,-6.08 2.56,-8.64 1.49,-2.56 3.79,-4.586 6.88,-6.08 3.09,-1.386 7.15,-2.08 12.16,-2.08 4.59,0 8.11,0.587 10.56,1.76 2.56,1.174 4.32,2.667 5.28,4.48 1.07,1.92 1.6,3.84 1.6,5.76 0,3.414 -1.07,5.92 -3.2,7.52 -2.13,1.707 -4.8,2.934 -8,3.68 -3.2,0.854 -6.61,1.654 -10.24,2.4 -3.52,0.854 -7.09,1.76 -10.72,2.72 -3.63,1.067 -6.93,2.507 -9.92,4.32 -2.99,1.814 -5.39,4.107 -7.2,6.88 -1.81,2.774 -2.72,6.294 -2.72,10.56 0,4.694 1.23,8.8 3.68,12.32 2.45,3.52 5.97,6.24 10.56,8.16 4.69,2.027 10.35,3.04 16.96,3.04 7.36,0 13.49,-1.173 18.4,-3.52 5.01,-2.346 8.8,-5.546 11.36,-9.6 2.56,-3.946 4,-8.266 4.32,-12.96 H 12.32 C 12,10.774 11.25,12.854 10.08,14.88 9.01,16.907 7.25,18.614 4.8,20 c -2.45,1.387 -5.97,2.08 -10.56,2.08 -3.52,0 -6.4,-0.426 -8.64,-1.28 -2.13,-0.853 -3.73,-2.026 -4.8,-3.52 -1.07,-1.493 -1.6,-3.306 -1.6,-5.44 0,-2.773 0.91,-4.853 2.72,-6.24 1.81,-1.386 4.32,-2.453 7.52,-3.2 C -7.36,1.76 -3.84,0.96 0,0"
             style="fill:#ffffff;fill-opacity:1;fill-rule:nonzero;stroke:none"
             id="path886" />
        </g>
        <g
           id="g888"
           transform="translate(1504.39,467.6)"
           style="fill:#ffffff">
          <path
             d="m 0,0 c -8.64,0 -16,1.867 -22.08,5.6 -5.97,3.734 -10.5,8.854 -13.6,15.36 -3.09,6.614 -4.64,14.08 -4.64,22.4 0,6.4 0.91,12.214 2.72,17.44 1.92,5.334 4.59,9.92 8,13.76 3.52,3.84 7.74,6.774 12.64,8.8 5.02,2.134 10.67,3.2 16.96,3.2 8.32,0 15.31,-1.706 20.96,-5.12 5.76,-3.413 10.14,-8.266 13.12,-14.56 3.1,-6.186 4.64,-13.493 4.64,-21.92 V 41.6 c 0,-1.066 -0.05,-1.92 -0.16,-2.56 h -71.04 v 12.32 h 54.72 c 0,3.2 -0.53,6.134 -1.6,8.8 -1.06,2.774 -2.61,5.174 -4.64,7.2 -1.92,2.027 -4.26,3.574 -7.04,4.64 -2.77,1.174 -5.92,1.76 -9.44,1.76 -4.58,0 -8.69,-1.013 -12.32,-3.04 -3.52,-2.026 -6.29,-4.853 -8.32,-8.48 -2.02,-3.626 -3.04,-7.893 -3.04,-12.8 v -5.12 -4.48 c 0,-4.693 0.91,-9.066 2.72,-13.12 1.82,-4.053 4.54,-7.413 8.16,-10.08 3.63,-2.56 8.16,-3.84 13.6,-3.84 4.8,0 8.64,0.854 11.52,2.56 2.99,1.707 5.23,3.68 6.72,5.92 1.6,2.347 2.67,4.427 3.2,6.24 H 37.6 C 36.22,22.294 33.92,17.6 30.72,13.44 27.52,9.28 23.36,5.974 18.24,3.52 13.23,1.174 7.15,0 0,0"
             style="fill:#ffffff;fill-opacity:1;fill-rule:nonzero;stroke:none"
             id="path890" />
        </g>
        <g
           id="g892"
           transform="translate(1584.99,480.4)"
           style="fill:#ffffff">
          <path
             d="m 0,0 c 4.69,0 8.85,0.8 12.48,2.4 3.73,1.6 6.66,4 8.8,7.2 2.13,3.2 3.2,7.147 3.2,11.84 v 11.68 c -0.86,-0.746 -2.19,-1.493 -4,-2.24 C 18.77,30.24 16.69,29.6 14.24,28.96 11.89,28.427 9.33,27.84 6.56,27.2 1.76,26.24 -2.19,25.067 -5.28,23.68 c -2.99,-1.28 -5.18,-2.88 -6.56,-4.8 -1.28,-1.813 -1.92,-4.16 -1.92,-7.04 0,-3.84 1.06,-6.773 3.2,-8.8 C -8.32,1.014 -4.8,0 0,0 m -3.52,-12.64 c -8.11,0 -14.62,2.134 -19.52,6.4 -4.8,4.374 -7.2,10.027 -7.2,16.96 0,4.587 0.8,8.427 2.4,11.52 1.7,3.094 4.05,5.654 7.04,7.68 2.98,2.027 6.56,3.68 10.72,4.96 4.26,1.28 8.9,2.4 13.92,3.36 3.2,0.64 6.08,1.227 8.64,1.76 2.56,0.534 4.74,1.227 6.56,2.08 1.81,0.854 3.14,1.92 4,3.2 0.96,1.28 1.44,2.934 1.44,4.96 0,2.987 -1.12,5.547 -3.36,7.68 -2.14,2.134 -6.19,3.2 -12.16,3.2 -7.15,0 -12.06,-1.173 -14.72,-3.52 -2.67,-2.346 -4.22,-6.293 -4.64,-11.84 h -16 c 0.32,5.227 1.7,9.92 4.16,14.08 2.56,4.267 6.4,7.627 11.52,10.08 5.22,2.56 12,3.84 20.32,3.84 5.65,0 10.72,-0.906 15.2,-2.72 4.58,-1.706 8.21,-4.586 10.88,-8.64 2.77,-4.053 4.16,-9.653 4.16,-16.8 V 8.16 c 0,-2.986 0.26,-5.226 0.8,-6.72 0.53,-1.493 1.54,-2.24 3.04,-2.24 h 0.8 c 0.32,0 0.69,0.054 1.12,0.16 v -9.6 c -1.39,-0.32 -2.78,-0.533 -4.16,-0.64 -1.28,-0.213 -2.56,-0.32 -3.84,-0.32 -3.84,0 -6.83,0.854 -8.96,2.56 -2.14,1.814 -3.42,5.067 -3.84,9.76 H 24.48 C 21.7,-3.04 17.97,-6.4 13.28,-8.96 8.69,-11.413 3.09,-12.64 -3.52,-12.64"
             style="fill:#ffffff;fill-opacity:1;fill-rule:nonzero;stroke:none"
             id="path894" />
        </g>
        <g
           id="g896"
           transform="translate(1690.95,538)"
           style="fill:#ffffff">
          <path
             d="m 0,0 c -1.07,0.214 -2.03,0.32 -2.88,0.32 -0.75,0.107 -1.55,0.16 -2.4,0.16 -4.8,0 -9.07,-1.12 -12.8,-3.36 -3.63,-2.133 -6.51,-5.173 -8.64,-9.12 -2.03,-3.946 -3.04,-8.533 -3.04,-13.76 h -7.68 l -3.52,23.84 h 11.52 c 2.13,5.12 4.91,9.28 8.32,12.48 3.52,3.307 8.05,4.96 13.6,4.96 1.49,0 2.83,-0.053 4,-0.16 1.17,0 2.35,-0.106 3.52,-0.32 z m -45.44,13.6 h 15.68 V -68 h -15.68 z"
             style="fill:#ffffff;fill-opacity:1;fill-rule:nonzero;stroke:none"
             id="path898" />
        </g>
        <g
           id="g900"
           transform="translate(1757.21,522)"
           style="fill:#ffffff">
          <path
             d="m 0,0 c -0.21,2.774 -0.96,5.6 -2.24,8.48 -1.28,2.987 -3.41,5.494 -6.4,7.52 -2.88,2.027 -6.83,3.04 -11.84,3.04 -5.65,0 -10.24,-1.493 -13.76,-4.48 -3.52,-2.88 -6.08,-6.613 -7.68,-11.2 -1.49,-4.586 -2.24,-9.44 -2.24,-14.56 0,-5.12 0.75,-9.973 2.24,-14.56 1.6,-4.586 4.16,-8.32 7.68,-11.2 3.52,-2.88 8.11,-4.32 13.76,-4.32 5.12,0 9.12,0.96 12,2.88 2.88,2.027 4.96,4.534 6.24,7.52 1.28,3.094 2.03,6.134 2.24,9.12 h 16.32 c -0.32,-6.293 -2.08,-11.893 -5.28,-16.8 -3.2,-4.8 -7.52,-8.64 -12.96,-11.52 -5.33,-2.88 -11.47,-4.32 -18.4,-4.32 -8.11,0 -15.2,1.814 -21.28,5.44 -5.97,3.734 -10.61,8.8 -13.92,15.2 -3.31,6.507 -4.96,14.027 -4.96,22.56 0,6.4 0.91,12.214 2.72,17.44 1.92,5.334 4.64,9.92 8.16,13.76 3.52,3.84 7.73,6.774 12.64,8.8 4.91,2.134 10.4,3.2 16.48,3.2 6.93,0 13.07,-1.386 18.4,-4.16 C 3.25,25.067 7.47,21.28 10.56,16.48 13.76,11.68 15.68,6.187 16.32,0 Z"
             style="fill:#ffffff;fill-opacity:1;fill-rule:nonzero;stroke:none"
             id="path902" />
        </g>
        <g
           id="g904"
           transform="translate(1842.51,522.32)"
           style="fill:#ffffff">
          <path
             d="m 0,0 c 0,3.627 -0.58,6.827 -1.76,9.6 -1.06,2.774 -2.82,4.907 -5.28,6.4 -2.34,1.494 -5.49,2.24 -9.44,2.24 -3.41,0 -6.5,-0.48 -9.28,-1.44 -2.66,-0.96 -4.96,-2.346 -6.88,-4.16 -1.92,-1.813 -3.41,-4 -4.48,-6.56 -0.96,-2.453 -1.44,-5.226 -1.44,-8.32 H -44 v 21.28 h 5.76 c 2.14,3.094 5.39,5.974 9.76,8.64 4.38,2.667 10.08,4 17.12,4 5.12,0 9.71,-1.013 13.76,-3.04 4.06,-1.92 7.31,-4.906 9.76,-8.96 2.46,-3.946 3.68,-9.066 3.68,-15.36 V -52.32 H 0 Z m -54.24,62.08 h 15.68 v -114.4 h -15.68 z"
             style="fill:#ffffff;fill-opacity:1;fill-rule:nonzero;stroke:none"
             id="path906" />
        </g>
        <g
           id="g908"
           transform="translate(960.879,384.52)"
           style="fill:#ffffff">
          <path
             d="m 0,0 c -0.533,2.88 -1.44,5.814 -2.72,8.8 -1.173,2.987 -2.933,5.76 -5.28,8.32 -2.346,2.667 -5.386,4.8 -9.12,6.4 -3.733,1.6 -8.373,2.4 -13.92,2.4 -6.293,0 -11.68,-1.226 -16.16,-3.68 -4.373,-2.453 -7.946,-5.76 -10.72,-9.92 -2.773,-4.16 -4.8,-8.906 -6.08,-14.24 -1.28,-5.226 -1.92,-10.666 -1.92,-16.32 0,-5.653 0.64,-11.146 1.92,-16.48 1.28,-5.333 3.307,-10.08 6.08,-14.24 2.774,-4.16 6.347,-7.466 10.72,-9.92 4.48,-2.453 9.867,-3.68 16.16,-3.68 7.36,0 13.227,1.387 17.6,4.16 4.48,2.88 7.734,6.507 9.76,10.88 2.134,4.374 3.36,8.907 3.68,13.6 h 18.4 c -0.853,-8.426 -3.36,-16 -7.52,-22.72 -4.053,-6.613 -9.6,-11.786 -16.64,-15.52 -7.04,-3.733 -15.413,-5.6 -25.12,-5.6 -10.773,0 -20.16,2.56 -28.16,7.68 -8,5.12 -14.186,12.16 -18.56,21.12 -4.373,8.96 -6.56,19.147 -6.56,30.56 0,8.747 1.227,16.694 3.68,23.84 2.56,7.254 6.187,13.547 10.88,18.88 4.694,5.334 10.294,9.44 16.8,12.32 6.614,2.987 13.974,4.48 22.08,4.48 9.707,0 18.027,-1.813 24.96,-5.44 C 1.174,32.054 6.72,27.094 10.88,20.8 15.04,14.614 17.547,7.68 18.4,0 Z"
             style="fill:#ffffff;fill-opacity:1;fill-rule:nonzero;stroke:none"
             id="path910" />
        </g>
        <g
           id="g912"
           transform="translate(1033,319.56)"
           style="fill:#ffffff">
          <path
             d="m 0,0 c 4.26,0 7.89,0.747 10.88,2.24 3.09,1.494 5.6,3.627 7.52,6.4 2.02,2.88 3.52,6.134 4.48,9.76 1.06,3.627 1.6,7.574 1.6,11.84 0,5.76 -0.91,10.88 -2.72,15.36 -1.71,4.587 -4.38,8.214 -8,10.88 -3.63,2.667 -8.22,4 -13.76,4 -4.16,0 -7.79,-0.746 -10.88,-2.24 -3.1,-1.493 -5.66,-3.626 -7.68,-6.4 -2.03,-2.773 -3.52,-6.026 -4.48,-9.76 -0.96,-3.626 -1.44,-7.573 -1.44,-11.84 0,-5.653 0.85,-10.773 2.56,-15.36 1.7,-4.586 4.37,-8.213 8,-10.88 C -10.19,1.334 -5.55,0 0,0 m 0,-12.96 c -8.54,0 -15.84,1.814 -21.92,5.44 -6.08,3.734 -10.78,8.854 -14.084,15.36 -3.2,6.507 -4.8,13.974 -4.8,22.4 0,6.4 0.906,12.214 2.72,17.44 1.813,5.334 4.48,9.92 8.004,13.76 3.62,3.947 7.94,6.934 12.96,8.96 C -12,72.534 -6.3,73.6 0,73.6 8.53,73.6 15.78,71.734 21.76,68 27.84,64.374 32.53,59.307 35.84,52.8 39.14,46.4 40.8,38.934 40.8,30.4 40.8,23.894 39.84,17.974 37.92,12.64 36.1,7.414 33.38,2.88 29.76,-0.96 26.24,-4.8 21.97,-7.786 16.96,-9.92 11.94,-11.946 6.29,-12.96 0,-12.96"
             style="fill:#ffffff;fill-opacity:1;fill-rule:nonzero;stroke:none"
             id="path914" />
        </g>
        <g
           id="g916"
           transform="translate(1104.09,338.44)"
           style="fill:#ffffff">
          <path
             d="m 0,0 c 0,-3.626 0.53,-6.826 1.6,-9.6 1.17,-2.773 2.93,-4.96 5.28,-6.56 2.45,-1.493 5.65,-2.24 9.6,-2.24 3.41,0 6.45,0.48 9.12,1.44 2.77,0.96 5.12,2.347 7.04,4.16 1.92,1.92 3.36,4.107 4.32,6.56 1.07,2.454 1.6,5.227 1.6,8.32 h 0.32 V -19.2 h -0.64 c -2.13,-3.093 -5.39,-5.973 -9.76,-8.64 -4.37,-2.56 -10.08,-3.84 -17.12,-3.84 -5.01,0 -9.6,0.96 -13.76,2.88 -4.05,1.92 -7.31,4.907 -9.76,8.96 -2.45,4.16 -3.68,9.334 -3.68,15.52 V 52.16 H 0 Z M 54.24,-29.44 H 38.56 v 81.6 h 15.68 z"
             style="fill:#ffffff;fill-opacity:1;fill-rule:nonzero;stroke:none"
             id="path918" />
        </g>
        <g
           id="g920"
           transform="translate(1232.4,361.32)"
           style="fill:#ffffff">
          <path
             d="m 0,0 c 0,3.627 -0.58,6.827 -1.76,9.6 -1.06,2.774 -2.82,4.907 -5.28,6.4 -2.34,1.494 -5.49,2.24 -9.44,2.24 -3.41,0 -6.5,-0.48 -9.28,-1.44 -2.66,-0.96 -4.96,-2.346 -6.88,-4.16 -1.92,-1.813 -3.41,-4 -4.48,-6.56 -0.96,-2.453 -1.44,-5.226 -1.44,-8.32 H -44 v 21.28 h 5.76 c 2.14,3.094 5.39,5.974 9.76,8.64 4.38,2.667 10.08,4 17.12,4 5.12,0 9.71,-1.013 13.76,-3.04 4.06,-1.92 7.31,-4.906 9.76,-8.96 2.46,-3.946 3.68,-9.066 3.68,-15.36 V -52.32 H 0 Z m -54.24,29.28 h 15.68 v -81.6 h -15.68 z"
             style="fill:#ffffff;fill-opacity:1;fill-rule:nonzero;stroke:none"
             id="path922" />
        </g>
        <g
           id="g924"
           transform="translate(1323.3,361)"
           style="fill:#ffffff">
          <path
             d="m 0,0 c -0.21,2.774 -0.96,5.6 -2.24,8.48 -1.28,2.987 -3.41,5.494 -6.4,7.52 -2.88,2.027 -6.82,3.04 -11.84,3.04 -5.65,0 -10.24,-1.493 -13.76,-4.48 -3.52,-2.88 -6.08,-6.613 -7.68,-11.2 -1.49,-4.586 -2.24,-9.44 -2.24,-14.56 0,-5.12 0.75,-9.973 2.24,-14.56 1.6,-4.586 4.16,-8.32 7.68,-11.2 3.52,-2.88 8.11,-4.32 13.76,-4.32 5.12,0 9.12,0.96 12,2.88 2.88,2.027 4.96,4.534 6.24,7.52 1.28,3.094 2.03,6.134 2.24,9.12 h 16.32 c -0.32,-6.293 -2.08,-11.893 -5.28,-16.8 -3.2,-4.8 -7.52,-8.64 -12.96,-11.52 -5.33,-2.88 -11.46,-4.32 -18.4,-4.32 -8.1,0 -15.2,1.814 -21.28,5.44 -5.97,3.734 -10.61,8.8 -13.92,15.2 -3.3,6.507 -4.96,14.027 -4.96,22.56 0,6.4 0.91,12.214 2.72,17.44 1.92,5.334 4.64,9.92 8.16,13.76 3.52,3.84 7.74,6.774 12.64,8.8 4.91,2.134 10.4,3.2 16.48,3.2 6.94,0 13.07,-1.386 18.4,-4.16 C 3.26,25.067 7.47,21.28 10.56,16.48 13.76,11.68 15.68,6.187 16.32,0 Z"
             style="fill:#ffffff;fill-opacity:1;fill-rule:nonzero;stroke:none"
             id="path926" />
        </g>
        <g
           id="g928"
           transform="translate(1352.6,413.32)"
           style="fill:#ffffff">
          <path
             d="m 0,0 c 0,2.454 0.8,4.587 2.4,6.4 1.6,1.814 3.9,2.72 6.88,2.72 2.99,0 5.28,-0.906 6.88,-2.72 1.6,-1.813 2.4,-3.946 2.4,-6.4 0,-2.453 -0.8,-4.586 -2.4,-6.4 C 14.56,-8.213 12.27,-9.12 9.28,-9.12 6.3,-9.12 4,-8.213 2.4,-6.4 0.8,-4.586 0,-2.453 0,0 m 1.44,-22.72 h 15.68 v -81.6 H 1.44 Z"
             style="fill:#ffffff;fill-opacity:1;fill-rule:nonzero;stroke:none"
             id="path930" />
        </g>
        <path
           d="m 1389.88,423.4 h 15.68 V 309 h -15.68 z"
           style="fill:#ffffff;fill-opacity:1;fill-rule:nonzero;stroke:none"
           id="path932" />
        <g
           id="g934"
           transform="translate(1499.14,319.56)"
           style="fill:#ffffff">
          <path
             d="m 0,0 c 4.27,0 7.9,0.747 10.88,2.24 3.1,1.494 5.6,3.627 7.52,6.4 2.03,2.88 3.52,6.134 4.48,9.76 1.07,3.627 1.6,7.574 1.6,11.84 0,5.76 -0.9,10.88 -2.72,15.36 -1.7,4.587 -4.37,8.214 -8,10.88 -3.62,2.667 -8.21,4 -13.76,4 -4.16,0 -7.78,-0.746 -10.88,-2.24 -3.09,-1.493 -5.65,-3.626 -7.68,-6.4 -2.02,-2.773 -3.52,-6.026 -4.48,-9.76 -0.96,-3.626 -1.44,-7.573 -1.44,-11.84 0,-5.653 0.86,-10.773 2.56,-15.36 1.71,-4.586 4.38,-8.213 8,-10.88 C -10.18,1.334 -5.54,0 0,0 m 0,-12.96 c -8.53,0 -15.84,1.814 -21.92,5.44 C -28,-3.786 -32.69,1.334 -36,7.84 c -3.2,6.507 -4.8,13.974 -4.8,22.4 0,6.4 0.91,12.214 2.72,17.44 1.82,5.334 4.48,9.92 8,13.76 3.63,3.947 7.95,6.934 12.96,8.96 C -12,72.534 -6.29,73.6 0,73.6 8.54,73.6 15.79,71.734 21.76,68 27.84,64.374 32.54,59.307 35.84,52.8 39.15,46.4 40.8,38.934 40.8,30.4 40.8,23.894 39.84,17.974 37.92,12.64 36.11,7.414 33.39,2.88 29.76,-0.96 26.24,-4.8 21.98,-7.786 16.96,-9.92 11.95,-11.946 6.3,-12.96 0,-12.96"
             style="fill:#ffffff;fill-opacity:1;fill-rule:nonzero;stroke:none"
             id="path936" />
        </g>
        <g
           id="g938"
           transform="translate(1573.99,309)"
           style="fill:#ffffff">
          <path
             d="m 0,0 h -15.68 v 91.52 c 0,6.294 0.85,11.147 2.56,14.56 1.7,3.52 4.1,5.974 7.2,7.36 3.2,1.387 6.98,2.08 11.36,2.08 1.49,0 2.93,-0.106 4.32,-0.32 1.49,-0.106 3.36,-0.32 5.6,-0.64 v -12.64 c -1.6,0.214 -2.83,0.32 -3.68,0.32 -0.86,0.107 -1.87,0.16 -3.04,0.16 -2.14,0 -3.84,-0.266 -5.12,-0.8 C 2.24,101.067 1.33,100 0.8,98.4 0.26,96.907 0,94.72 0,91.84 Z M -26.88,81.6 H 15.36 V 68.64 h -42.24 z"
             style="fill:#ffffff;fill-opacity:1;fill-rule:nonzero;stroke:none"
             id="path940" />
        </g>
        <g
           id="g942"
           transform="translate(1643.16,309)"
           style="fill:#ffffff">
          <path
             d="m 0,0 v 114.4 h 20.16 l 53.12,-88 h 0.32 v 88 H 91.36 V 0 H 71.2 L 17.92,88 H 17.6 V 0 Z"
             style="fill:#ffffff;fill-opacity:1;fill-rule:nonzero;stroke:none"
             id="path944" />
        </g>
        <g
           id="g946"
           transform="translate(1791.23,319.56)"
           style="fill:#ffffff">
          <path
             d="m 0,0 c 4.27,0 7.89,0.747 10.88,2.24 3.09,1.494 5.6,3.627 7.52,6.4 2.03,2.88 3.52,6.134 4.48,9.76 1.07,3.627 1.6,7.574 1.6,11.84 0,5.76 -0.91,10.88 -2.72,15.36 -1.71,4.587 -4.37,8.214 -8,10.88 -3.63,2.667 -8.21,4 -13.76,4 -4.16,0 -7.79,-0.746 -10.88,-2.24 -3.09,-1.493 -5.65,-3.626 -7.68,-6.4 -2.03,-2.773 -3.52,-6.026 -4.48,-9.76 -0.96,-3.626 -1.44,-7.573 -1.44,-11.84 0,-5.653 0.85,-10.773 2.56,-15.36 1.71,-4.586 4.37,-8.213 8,-10.88 C -10.19,1.334 -5.55,0 0,0 m 0,-12.96 c -8.53,0 -15.84,1.814 -21.92,5.44 C -28,-3.786 -32.69,1.334 -36,7.84 c -3.2,6.507 -4.8,13.974 -4.8,22.4 0,6.4 0.91,12.214 2.72,17.44 1.81,5.334 4.48,9.92 8,13.76 3.63,3.947 7.95,6.934 12.96,8.96 C -12,72.534 -6.29,73.6 0,73.6 8.53,73.6 15.79,71.734 21.76,68 27.84,64.374 32.53,59.307 35.84,52.8 39.15,46.4 40.8,38.934 40.8,30.4 40.8,23.894 39.84,17.974 37.92,12.64 36.11,7.414 33.39,2.88 29.76,-0.96 26.24,-4.8 21.97,-7.786 16.96,-9.92 11.95,-11.946 6.29,-12.96 0,-12.96"
             style="fill:#ffffff;fill-opacity:1;fill-rule:nonzero;stroke:none"
             id="path948" />
        </g>
        <g
           id="g950"
           transform="translate(1892.72,377)"
           style="fill:#ffffff">
          <path
             d="m 0,0 c -1.06,0.214 -2.02,0.32 -2.88,0.32 -0.74,0.107 -1.54,0.16 -2.4,0.16 -4.8,0 -9.06,-1.12 -12.8,-3.36 -3.62,-2.133 -6.5,-5.173 -8.64,-9.12 -2.02,-3.946 -3.04,-8.533 -3.04,-13.76 h -7.68 l -3.52,23.84 h 11.52 c 2.14,5.12 4.91,9.28 8.32,12.48 3.52,3.307 8.06,4.96 13.6,4.96 1.5,0 2.83,-0.053 4,-0.16 1.18,0 2.35,-0.106 3.52,-0.32 z m -45.44,13.6 h 15.68 V -68 h -15.68 z"
             style="fill:#ffffff;fill-opacity:1;fill-rule:nonzero;stroke:none"
             id="path952" />
        </g>
        <g
           id="g954"
           transform="translate(1900,390.6)"
           style="fill:#ffffff">
          <path
             d="m 0,0 h 16.96 l 17.28,-63.2 h 0.32 L 51.52,0 H 67.36 L 84.32,-63.2 H 84.8 L 102.08,0 h 16.48 L 93.12,-81.6 H 76.96 l -17.6,62.88 H 59.04 L 41.44,-81.6 H 25.28 Z"
             style="fill:#ffffff;fill-opacity:1;fill-rule:nonzero;stroke:none"
             id="path956" />
        </g>
        <g
           id="g958"
           transform="translate(2052.8501,319.4)"
           style="fill:#ffffff">
          <path
             d="m 0,0 c 4.7,0 8.86,0.8 12.48,2.4 3.74,1.6 6.67,4 8.8,7.2 2.14,3.2 3.2,7.147 3.2,11.84 V 33.12 C 23.63,32.374 22.3,31.627 20.48,30.88 18.78,30.24 16.7,29.6 14.24,28.96 11.9,28.427 9.34,27.84 6.56,27.2 1.76,26.24 -2.18,25.067 -5.28,23.68 c -2.98,-1.28 -5.17,-2.88 -6.56,-4.8 -1.28,-1.813 -1.92,-4.16 -1.92,-7.04 0,-3.84 1.07,-6.773 3.2,-8.8 C -8.32,1.014 -4.8,0 0,0 m -3.52,-12.64 c -8.1,0 -14.61,2.134 -19.52,6.4 -4.8,4.374 -7.2,10.027 -7.2,16.96 0,4.587 0.8,8.427 2.4,11.52 1.71,3.094 4.06,5.654 7.04,7.68 2.99,2.027 6.56,3.68 10.72,4.96 4.27,1.28 8.91,2.4 13.92,3.36 3.2,0.64 6.08,1.227 8.64,1.76 2.56,0.534 4.75,1.227 6.56,2.08 1.82,0.854 3.15,1.92 4,3.2 0.96,1.28 1.44,2.934 1.44,4.96 0,2.987 -1.12,5.547 -3.36,7.68 -2.13,2.134 -6.18,3.2 -12.16,3.2 -7.14,0 -12.05,-1.173 -14.72,-3.52 -2.66,-2.346 -4.21,-6.293 -4.64,-11.84 h -16 c 0.32,5.227 1.71,9.92 4.16,14.08 2.56,4.267 6.4,7.627 11.52,10.08 5.23,2.56 12,3.84 20.32,3.84 5.66,0 10.72,-0.906 15.2,-2.72 4.59,-1.706 8.22,-4.586 10.88,-8.64 2.78,-4.053 4.16,-9.653 4.16,-16.8 V 8.16 c 0,-2.986 0.27,-5.226 0.8,-6.72 0.54,-1.493 1.55,-2.24 3.04,-2.24 h 0.8 c 0.32,0 0.7,0.054 1.12,0.16 v -9.6 c -1.38,-0.32 -2.77,-0.533 -4.16,-0.64 -1.28,-0.213 -2.56,-0.32 -3.84,-0.32 -3.84,0 -6.82,0.854 -8.96,2.56 -2.13,1.814 -3.41,5.067 -3.84,9.76 H 24.48 C 21.71,-3.04 17.98,-6.4 13.28,-8.96 8.7,-11.413 3.1,-12.64 -3.52,-12.64"
             style="fill:#ffffff;fill-opacity:1;fill-rule:nonzero;stroke:none"
             id="path960" />
        </g>
        <g
           id="g962"
           transform="translate(2133.6699,309.8)"
           style="fill:#ffffff">
          <path
             d="M 0,0 -33.12,80.8 H -16 L 7.84,18.4 H 8.16 L 30.72,80.8 H 47.04 L 14.88,-2.72 c -2.67,-6.613 -5.39,-11.893 -8.16,-15.84 -2.77,-3.946 -5.81,-6.72 -9.12,-8.32 -3.2,-1.706 -6.93,-2.56 -11.2,-2.56 -1.71,0 -3.31,0.107 -4.8,0.32 -1.49,0.107 -3.25,0.374 -5.28,0.8 v 12.8 c 1.39,-0.106 2.56,-0.213 3.52,-0.32 0.96,-0.106 2.03,-0.16 3.2,-0.16 2.13,0 4.27,0.48 6.4,1.44 2.24,0.854 4.27,2.454 6.08,4.8 1.81,2.24 3.31,5.494 4.48,9.76"
             style="fill:#ffffff;fill-opacity:1;fill-rule:nonzero;stroke:none"
             id="path964" />
        </g>
        <g
           id="g966"
           transform="translate(280,350.63)"
           style="fill:#ffffff">
          <path
             d="m 0,0 v 356.74 c 0,22.964 18.666,41.63 41.63,41.63 18.129,0 34.177,-11.75 39.682,-29.007 l 45.256,-142.347 c 5.976,-18.8 26.052,-29.14 44.786,-23.165 11.011,3.492 19.673,12.154 23.165,23.165 l 45.255,142.347 c 5.506,17.257 21.554,29.007 39.683,29.007 H 398.37 c 22.964,0 41.63,-18.666 41.63,-41.63 0,-18.129 -11.75,-34.177 -29.007,-39.682 L 268.646,271.802 c -18.8,-5.976 -29.14,-26.052 -23.165,-44.786 5.976,-18.8 26.053,-29.14 44.786,-23.165 4.566,1.478 8.729,3.761 12.355,6.916 l 68.689,58.685 c 17.458,14.973 43.711,12.892 58.684,-4.566 6.916,-8.057 10.475,-18.532 9.938,-29.141 L 434.024,117.1 c -1.007,-19.673 -17.726,-34.848 -37.4,-33.841 -7.117,0.336 -13.966,2.82 -19.606,7.118 l -76.075,57.073 c -15.779,11.817 -38.138,8.594 -49.956,-7.118 -2.417,-3.222 -4.23,-6.781 -5.438,-10.608 L 200.293,-12.623 C 194.787,-29.88 178.74,-41.63 160.61,-41.63 H 41.63 C 18.666,-41.63 0,-22.964 0,0"
             style="fill:#ffffff;fill-opacity:1;fill-rule:nonzero;stroke:none"
             id="path968" />
        </g>
      </g>
    </g>
  </g>
</svg>
